<svg width="368" height="406" viewBox="0 0 368 406" fill="none" xmlns="http://www.w3.org/2000/svg">
<g filter="url(#filter0_bd_362_76285)">
<rect width="242.4" height="153.6" rx="12.8" transform="matrix(0.866044 0.499968 -0.866044 0.499968 138.429 200.787)" fill="url(#paint0_linear_362_76285)"/>
<path d="M136.973 218.581L130.489 226.21L130.625 226.289L143.84 222.546L145.812 223.684L129.367 228.154L127.259 226.937L135 217.443L136.973 218.581ZM135.324 231.592L144.394 226.356L146.159 227.375L137.089 232.611L135.324 231.592ZM146.685 226.063C146.378 225.886 146.216 225.674 146.2 225.429C146.193 225.184 146.332 224.978 146.62 224.812C146.911 224.644 147.267 224.563 147.688 224.57C148.118 224.577 148.486 224.669 148.793 224.846C149.1 225.023 149.257 225.235 149.265 225.48C149.281 225.726 149.143 225.932 148.852 226.101C148.564 226.266 148.206 226.346 147.777 226.339C147.356 226.332 146.992 226.24 146.685 226.063ZM153.116 233.949L151.233 233.188C151.371 233.032 151.459 232.858 151.499 232.667C151.542 232.478 151.5 232.279 151.375 232.07C151.249 231.861 151.003 231.651 150.636 231.44C150.136 231.151 149.607 230.975 149.048 230.911C148.493 230.845 148.04 230.914 147.69 231.116C147.387 231.291 147.255 231.496 147.294 231.733C147.334 231.969 147.544 232.266 147.926 232.623L149.036 233.645C149.678 234.238 150.003 234.769 150.011 235.237C150.018 235.705 149.701 236.125 149.06 236.495C148.517 236.809 147.875 236.997 147.135 237.061C146.403 237.125 145.637 237.064 144.838 236.88C144.043 236.698 143.279 236.396 142.547 235.973C141.531 235.387 140.919 234.784 140.71 234.163C140.506 233.541 140.732 232.955 141.389 232.408L143.356 233.243C143.017 233.561 142.899 233.882 143.001 234.204C143.108 234.525 143.427 234.838 143.958 235.145C144.537 235.479 145.119 235.677 145.706 235.738C146.296 235.797 146.767 235.726 147.117 235.523C147.401 235.36 147.532 235.161 147.513 234.927C147.497 234.695 147.322 234.426 146.987 234.119L145.789 233.038C145.135 232.438 144.816 231.9 144.832 231.423C144.852 230.948 145.184 230.524 145.83 230.151C146.365 229.842 146.983 229.658 147.684 229.599C148.385 229.54 149.111 229.598 149.863 229.773C150.619 229.945 151.337 230.228 152.018 230.622C152.998 231.187 153.557 231.756 153.695 232.326C153.837 232.894 153.644 233.435 153.116 233.949ZM150.818 240.769C150.243 240.437 149.83 240.076 149.578 239.685C149.33 239.292 149.275 238.899 149.413 238.505C149.554 238.115 149.922 237.747 150.517 237.404C151.029 237.109 151.548 236.923 152.076 236.845C152.603 236.768 153.131 236.77 153.658 236.852C154.186 236.934 154.705 237.066 155.217 237.248C155.729 237.429 156.225 237.629 156.705 237.847C157.311 238.125 157.803 238.35 158.181 238.522C158.563 238.693 158.878 238.795 159.126 238.829C159.374 238.863 159.604 238.819 159.817 238.696L159.858 238.672C160.374 238.375 160.628 238.06 160.62 237.728C160.616 237.399 160.329 237.069 159.758 236.74C159.164 236.396 158.563 236.202 157.957 236.157C157.359 236.111 156.835 236.143 156.386 236.252L155.105 235.076C155.853 234.872 156.585 234.781 157.302 234.803C158.026 234.826 158.713 234.936 159.362 235.134C160.016 235.329 160.616 235.585 161.163 235.901C161.525 236.11 161.866 236.357 162.185 236.641C162.512 236.925 162.74 237.234 162.87 237.568C163.004 237.904 162.976 238.259 162.787 238.632C162.602 239.002 162.179 239.378 161.518 239.76L155.495 243.237L153.77 242.242L155.01 241.526L154.94 241.485C154.597 241.551 154.201 241.581 153.753 241.577C153.304 241.572 152.828 241.509 152.324 241.386C151.82 241.263 151.318 241.058 150.818 240.769ZM152.619 240.172C153.107 240.454 153.621 240.639 154.16 240.728C154.703 240.819 155.221 240.827 155.713 240.752C156.213 240.677 156.642 240.536 157 240.329L158.17 239.654C158.044 239.654 157.862 239.618 157.626 239.545C157.398 239.472 157.15 239.381 156.882 239.272C156.619 239.161 156.363 239.052 156.115 238.945C155.871 238.836 155.666 238.745 155.501 238.672C155.115 238.5 154.729 238.361 154.343 238.257C153.961 238.154 153.589 238.11 153.227 238.124C152.873 238.137 152.538 238.235 152.223 238.417C151.786 238.669 151.617 238.953 151.716 239.269C151.818 239.583 152.119 239.884 152.619 240.172ZM165.884 249.446C165.006 248.939 164.449 248.388 164.213 247.793C163.985 247.197 164.054 246.599 164.42 245.996C164.786 245.394 165.424 244.831 166.333 244.306C167.254 243.774 168.24 243.405 169.291 243.198C170.346 242.989 171.388 242.951 172.415 243.085C173.442 243.219 174.383 243.533 175.237 244.026C175.926 244.424 176.413 244.852 176.696 245.311C176.983 245.768 177.064 246.224 176.938 246.678C176.816 247.135 176.481 247.558 175.934 247.946L174.216 246.954C174.547 246.654 174.696 246.318 174.665 245.945C174.637 245.575 174.342 245.227 173.779 244.902C173.287 244.618 172.726 244.444 172.096 244.381C171.474 244.317 170.823 244.364 170.142 244.52C169.465 244.675 168.803 244.939 168.158 245.311C167.496 245.693 167.026 246.08 166.746 246.474C166.467 246.867 166.378 247.245 166.481 247.609C166.587 247.975 166.89 248.302 167.39 248.591C167.725 248.784 168.089 248.923 168.482 249.01C168.884 249.096 169.293 249.126 169.711 249.098C170.132 249.073 170.543 248.988 170.945 248.843L172.663 249.835C172.013 250.137 171.299 250.329 170.52 250.411C169.74 250.493 168.951 250.455 168.152 250.298C167.356 250.144 166.601 249.86 165.884 249.446ZM185.54 246.619L173.447 253.601L171.681 252.581L183.774 245.6L185.54 246.619ZM178.261 256.612C177.686 256.28 177.273 255.918 177.021 255.528C176.773 255.134 176.718 254.741 176.855 254.348C176.997 253.957 177.365 253.59 177.96 253.247C178.471 252.952 178.991 252.765 179.519 252.688C180.046 252.611 180.573 252.613 181.101 252.695C181.628 252.777 182.148 252.908 182.66 253.09C183.172 253.272 183.668 253.472 184.148 253.69C184.754 253.967 185.246 254.192 185.624 254.365C186.006 254.536 186.321 254.638 186.569 254.672C186.817 254.706 187.047 254.662 187.26 254.539L187.301 254.515C187.817 254.217 188.071 253.903 188.063 253.571C188.059 253.241 187.772 252.912 187.201 252.582C186.606 252.239 186.006 252.045 185.4 251.999C184.801 251.954 184.278 251.986 183.829 252.095L182.548 250.919C183.296 250.714 184.028 250.623 184.744 250.646C185.469 250.669 186.156 250.779 186.805 250.977C187.459 251.172 188.059 251.428 188.606 251.744C188.968 251.953 189.309 252.199 189.628 252.483C189.954 252.768 190.183 253.077 190.313 253.411C190.446 253.747 190.419 254.102 190.23 254.474C190.045 254.845 189.622 255.221 188.96 255.603L182.937 259.08L181.213 258.084L182.453 257.368L182.382 257.327C182.04 257.393 181.644 257.424 181.195 257.42C180.747 257.415 180.27 257.351 179.767 257.229C179.263 257.106 178.761 256.9 178.261 256.612ZM180.062 256.015C180.55 256.297 181.064 256.482 181.603 256.571C182.146 256.662 182.664 256.67 183.156 256.595C183.656 256.52 184.085 256.379 184.443 256.172L185.612 255.497C185.486 255.497 185.305 255.461 185.069 255.388C184.841 255.315 184.593 255.224 184.325 255.115C184.061 255.004 183.805 254.895 183.557 254.788C183.313 254.679 183.109 254.588 182.943 254.515C182.558 254.342 182.172 254.204 181.786 254.099C181.404 253.997 181.032 253.953 180.67 253.966C180.316 253.98 179.981 254.078 179.666 254.259C179.229 254.512 179.06 254.796 179.158 255.112C179.261 255.425 179.562 255.726 180.062 256.015ZM198.941 260.403L197.057 259.643C197.195 259.486 197.284 259.312 197.323 259.121C197.366 258.933 197.325 258.734 197.199 258.525C197.073 258.316 196.827 258.106 196.461 257.894C195.961 257.606 195.432 257.429 194.873 257.366C194.318 257.3 193.865 257.368 193.514 257.57C193.211 257.745 193.079 257.951 193.119 258.187C193.158 258.424 193.369 258.72 193.751 259.077L194.861 260.1C195.502 260.693 195.827 261.224 195.835 261.692C195.843 262.16 195.526 262.579 194.884 262.95C194.341 263.263 193.699 263.452 192.959 263.515C192.227 263.579 191.462 263.519 190.662 263.335C189.867 263.153 189.104 262.851 188.371 262.428C187.356 261.842 186.744 261.238 186.535 260.618C186.33 259.995 186.557 259.41 187.214 258.862L189.18 259.697C188.842 260.016 188.724 260.336 188.826 260.659C188.932 260.979 189.251 261.293 189.783 261.6C190.361 261.934 190.944 262.131 191.53 262.193C192.121 262.252 192.591 262.18 192.942 261.978C193.225 261.814 193.357 261.616 193.337 261.381C193.322 261.15 193.146 260.88 192.812 260.574L191.613 259.493C190.96 258.893 190.641 258.354 190.657 257.877C190.676 257.402 191.009 256.978 191.654 256.606C192.19 256.297 192.808 256.113 193.509 256.053C194.209 255.994 194.936 256.052 195.687 256.227C196.443 256.4 197.162 256.683 197.843 257.076C198.823 257.642 199.382 258.21 199.52 258.781C199.661 259.349 199.469 259.89 198.941 260.403ZM207.856 265.55L205.972 264.789C206.11 264.633 206.199 264.459 206.238 264.268C206.281 264.079 206.24 263.88 206.114 263.671C205.988 263.462 205.742 263.252 205.376 263.041C204.876 262.752 204.346 262.576 203.787 262.512C203.232 262.446 202.78 262.515 202.429 262.717C202.126 262.892 201.994 263.098 202.034 263.334C202.073 263.57 202.284 263.867 202.666 264.224L203.776 265.246C204.417 265.839 204.742 266.37 204.75 266.838C204.758 267.306 204.441 267.726 203.799 268.096C203.256 268.41 202.614 268.598 201.874 268.662C201.142 268.726 200.376 268.665 199.577 268.481C198.782 268.299 198.018 267.997 197.286 267.575C196.271 266.988 195.658 266.385 195.45 265.764C195.245 265.142 195.471 264.557 196.129 264.009L198.095 264.844C197.757 265.162 197.639 265.483 197.741 265.805C197.847 266.126 198.166 266.439 198.697 266.746C199.276 267.08 199.859 267.278 200.445 267.339C201.036 267.398 201.506 267.327 201.857 267.125C202.14 266.961 202.272 266.762 202.252 266.528C202.236 266.296 202.061 266.027 201.727 265.72L200.528 264.64C199.874 264.04 199.556 263.501 199.571 263.024C199.591 262.549 199.924 262.125 200.569 261.752C201.105 261.443 201.723 261.259 202.423 261.2C203.124 261.141 203.85 261.199 204.602 261.374C205.358 261.547 206.077 261.829 206.758 262.223C207.738 262.788 208.297 263.357 208.435 263.927C208.576 264.495 208.383 265.036 207.856 265.55ZM203.119 270.73L212.189 265.494L213.954 266.514L204.884 271.75L203.119 270.73ZM214.48 265.201C214.173 265.024 214.011 264.813 213.995 264.567C213.988 264.322 214.127 264.116 214.415 263.95C214.706 263.782 215.062 263.701 215.483 263.708C215.913 263.715 216.281 263.807 216.588 263.984C216.895 264.161 217.052 264.373 217.06 264.618C217.076 264.864 216.938 265.07 216.647 265.239C216.359 265.405 216.001 265.484 215.572 265.477C215.151 265.47 214.787 265.378 214.48 265.201ZM210.897 275.432C210.019 274.925 209.462 274.374 209.226 273.779C208.997 273.183 209.066 272.584 209.432 271.982C209.799 271.38 210.436 270.816 211.346 270.291C212.267 269.76 213.253 269.39 214.304 269.184C215.359 268.974 216.4 268.937 217.428 269.071C218.455 269.205 219.396 269.519 220.25 270.012C220.939 270.41 221.425 270.838 221.709 271.297C221.996 271.754 222.077 272.209 221.951 272.664C221.829 273.121 221.494 273.543 220.947 273.932L219.229 272.94C219.559 272.64 219.709 272.304 219.677 271.931C219.65 271.561 219.355 271.213 218.792 270.888C218.3 270.604 217.739 270.43 217.109 270.366C216.487 270.303 215.835 270.349 215.154 270.506C214.477 270.661 213.816 270.924 213.17 271.297C212.509 271.679 212.038 272.066 211.759 272.459C211.479 272.853 211.391 273.231 211.493 273.595C211.6 273.96 211.903 274.288 212.403 274.576C212.737 274.77 213.101 274.909 213.495 274.996C213.897 275.082 214.306 275.112 214.723 275.084C215.144 275.059 215.556 274.974 215.957 274.829L217.676 275.821C217.026 276.123 216.312 276.315 215.532 276.397C214.753 276.479 213.963 276.441 213.164 276.284C212.369 276.13 211.613 275.846 210.897 275.432Z" fill="white"/>
<path d="M310.542 315.969L301.714 310.872L285.849 320.031L294.677 325.129L310.542 315.969Z" fill="#FF5F00"/>
<path d="M294.342 315.775C295.868 314.892 297.723 314.222 299.765 313.814C301.807 313.406 303.983 313.271 306.128 313.421C305.809 311.886 304.749 310.434 303.069 309.23C301.389 308.027 299.156 307.121 296.625 306.615C294.095 306.11 291.37 306.025 288.761 306.372C286.151 306.719 283.764 307.482 281.871 308.575C279.978 309.668 278.655 311.047 278.055 312.553C277.455 314.059 277.6 315.633 278.476 317.094C279.351 318.555 280.921 319.844 283.005 320.814C285.09 321.784 287.605 322.396 290.263 322.58C290.005 321.341 290.237 320.085 290.944 318.906C291.651 317.727 292.813 316.657 294.342 315.775Z" fill="#EB001B"/>
<path d="M314.52 327.425C312.627 328.518 310.239 329.282 307.63 329.628C305.021 329.975 302.296 329.891 299.765 329.385C297.235 328.88 295.002 327.974 293.322 326.77C291.642 325.567 290.582 324.115 290.263 322.58C292.408 322.728 294.584 322.593 296.625 322.185C298.667 321.777 300.522 321.107 302.049 320.225C303.577 319.343 304.738 318.272 305.444 317.094C306.151 315.915 306.384 314.659 306.128 313.421C308.786 313.604 311.301 314.216 313.386 315.187C315.47 316.157 317.04 317.446 317.915 318.907C318.79 320.367 318.936 321.941 318.336 323.447C317.735 324.954 316.413 326.332 314.52 327.425Z" fill="#F79E1B"/>
<path d="M307.305 330.479L307.63 330.291L307.761 330.367L307.827 330.329L307.494 330.136L307.427 330.174L307.558 330.25L307.234 330.438L307.305 330.479ZM307.953 330.853L308.344 330.627L308.242 330.568L307.855 330.655L308.007 330.432L307.905 330.373L307.513 330.599L307.585 330.641L307.881 330.47L307.736 330.681L307.811 330.724L308.177 330.64L307.881 330.811L307.953 330.853Z" fill="#F79E1B"/>
<path d="M34.8739 276.241L36.2202 275.518L34.4251 275.286L34.6377 274.836L36.3973 275.157L35.8423 274.141L36.6217 274.018L37.0232 275.054L38.2751 274.277L38.8419 274.604L37.4956 275.327L39.2907 275.559L39.0781 276.009L37.3185 275.688L37.8735 276.704L37.0941 276.827L36.6926 275.791L35.4407 276.568L34.8739 276.241ZM39.1705 278.721L40.5169 277.998L38.7218 277.767L38.9344 277.317L40.694 277.637L40.1389 276.621L40.9184 276.499L41.3199 277.535L42.5717 276.758L43.1386 277.085L41.7923 277.808L43.5874 278.039L43.3748 278.489L41.6152 278.169L42.1702 279.185L41.3908 279.308L40.9892 278.271L39.7374 279.048L39.1705 278.721ZM43.4672 281.202L44.8135 280.479L43.0185 280.247L43.231 279.797L44.9907 280.118L44.4356 279.102L45.2151 278.979L45.6166 280.015L46.8684 279.238L47.4353 279.565L46.089 280.288L47.8841 280.52L47.6715 280.97L45.9118 280.649L46.4669 281.665L45.6875 281.788L45.2859 280.752L44.0341 281.529L43.4672 281.202ZM47.7639 283.682L49.1102 282.959L47.3152 282.728L47.5277 282.278L49.2874 282.598L48.7323 281.582L49.5118 281.46L49.9133 282.496L51.1651 281.719L51.732 282.046L50.3857 282.769L52.1808 283L51.9682 283.45L50.2085 283.13L50.7636 284.146L49.9841 284.268L49.5826 283.232L48.3308 284.009L47.7639 283.682ZM50.9012 288.548L51.4327 288.241L55.6133 288.132C56.1034 288.119 56.5187 288.102 56.8592 288.081C57.2017 288.058 57.493 288.019 57.7331 287.965C57.9772 287.91 58.1917 287.83 58.3768 287.723C58.5893 287.6 58.7222 287.464 58.7753 287.315C58.8304 287.168 58.8127 287.019 58.7222 286.869C58.6317 286.719 58.4771 286.581 58.2587 286.455C58.0264 286.321 57.7754 286.231 57.5058 286.187C57.2401 286.143 56.9744 286.143 56.7086 286.187C56.4449 286.232 56.1979 286.322 55.9676 286.455L55.2708 286.052C55.6251 285.848 56.0178 285.715 56.4488 285.655C56.8799 285.595 57.3109 285.603 57.742 285.679C58.175 285.756 58.5677 285.897 58.92 286.1C59.2743 286.305 59.5134 286.529 59.6374 286.773C59.7614 287.018 59.7742 287.258 59.6758 287.494C59.5774 287.731 59.3727 287.939 59.0617 288.118C58.8393 288.247 58.5815 288.349 58.2882 288.425C57.9988 288.501 57.6259 288.557 57.1692 288.594C56.7165 288.63 56.1309 288.656 55.4125 288.67L52.6018 288.725L52.5546 288.752L55.3653 290.375L54.7158 290.75L50.9012 288.548ZM65.1749 289.806L59.1283 293.297L58.3961 292.874L63.6751 289.827L63.6396 289.806L61.1832 289.52L61.9272 289.091L64.4427 289.384L65.1749 289.806ZM61.9466 294.924L62.478 294.617L66.6587 294.508C67.1488 294.496 67.5641 294.479 67.9046 294.457C68.2471 294.434 68.5384 294.396 68.7785 294.341C69.0226 294.287 69.2371 294.206 69.4221 294.099C69.6347 293.976 69.7676 293.841 69.8207 293.692C69.8758 293.544 69.8581 293.395 69.7676 293.245C69.677 293.095 69.5225 292.957 69.304 292.831C69.0718 292.697 68.8208 292.608 68.5512 292.564C68.2854 292.519 68.0197 292.519 67.754 292.564C67.4903 292.609 67.2432 292.698 67.0129 292.831L66.3162 292.429C66.6705 292.224 67.0631 292.092 67.4942 292.032C67.9252 291.971 68.3563 291.979 68.7874 292.056C69.2204 292.133 69.613 292.273 69.9654 292.477C70.3197 292.681 70.5588 292.906 70.6828 293.15C70.8068 293.394 70.8196 293.634 70.7212 293.871C70.6228 294.107 70.4181 294.315 70.1071 294.495C69.8847 294.623 69.6268 294.725 69.3336 294.801C69.0442 294.878 68.6712 294.934 68.2146 294.97C67.7619 295.007 67.1763 295.032 66.4579 295.047L63.6472 295.101L63.5999 295.129L66.4107 296.751L65.7611 297.126L61.9466 294.924ZM68.3904 297.212L68.9927 296.865L75.8542 295.972L76.2911 296.224L75.3581 296.762L75.0629 296.592L69.8784 297.267L69.8312 297.294L73.4095 299.36L72.76 299.735L68.3904 297.212ZM69.9965 299.571L71.4196 298.75L71.7001 298.588L76.0431 296.081L76.7399 296.483L70.6933 299.974L69.9965 299.571Z" fill="white"/>
<path d="M194.907 371.278C194.462 371.021 194.204 370.733 194.134 370.412C194.065 370.091 194.179 369.749 194.476 369.386C194.775 369.023 195.253 368.651 195.911 368.271C196.564 367.894 197.205 367.62 197.833 367.448C198.465 367.277 199.059 367.211 199.616 367.251C200.177 367.29 200.678 367.437 201.119 367.692C201.56 367.947 201.814 368.235 201.881 368.558C201.952 368.881 201.837 369.224 201.538 369.587C201.243 369.951 200.769 370.321 200.115 370.699C199.458 371.078 198.814 371.354 198.184 371.527C197.556 371.699 196.964 371.764 196.407 371.725C195.852 371.684 195.352 371.535 194.907 371.278ZM195.557 370.903C195.997 371.158 196.553 371.233 197.222 371.128C197.891 371.024 198.619 370.744 199.407 370.29C199.93 369.987 200.32 369.698 200.576 369.42C200.834 369.144 200.955 368.89 200.939 368.658C200.925 368.428 200.773 368.228 200.481 368.06C200.044 367.808 199.487 367.735 198.81 367.842C198.135 367.948 197.405 368.227 196.619 368.681C196.096 368.983 195.706 369.271 195.45 369.546C195.194 369.821 195.074 370.074 195.09 370.303C195.108 370.534 195.263 370.734 195.557 370.903ZM207.374 371.398L201.327 374.889L200.595 374.466L205.874 371.419L205.839 371.398L203.382 371.112L204.126 370.683L206.642 370.976L207.374 371.398ZM212.448 374L203.26 377.055L202.622 376.686L211.81 373.632L212.448 374ZM207.249 378.308L207.78 378.001L211.961 377.892C212.451 377.879 212.866 377.862 213.207 377.84C213.549 377.818 213.84 377.779 214.081 377.725C214.325 377.67 214.539 377.589 214.724 377.483C214.937 377.36 215.07 377.224 215.123 377.075C215.178 376.927 215.16 376.779 215.07 376.629C214.979 376.479 214.825 376.341 214.606 376.214C214.374 376.08 214.123 375.991 213.853 375.947C213.588 375.903 213.322 375.903 213.056 375.947C212.792 375.992 212.545 376.082 212.315 376.214L211.618 375.812C211.973 375.608 212.365 375.475 212.796 375.415C213.227 375.355 213.658 375.363 214.089 375.439C214.522 375.516 214.915 375.657 215.267 375.86C215.622 376.064 215.861 376.289 215.985 376.533C216.109 376.777 216.122 377.018 216.023 377.254C215.925 377.491 215.72 377.698 215.409 377.878C215.187 378.006 214.929 378.109 214.636 378.185C214.346 378.261 213.973 378.317 213.517 378.354C213.064 378.39 212.478 378.415 211.76 378.43L208.949 378.485L208.902 378.512L211.713 380.135L211.063 380.51L207.249 378.308ZM213.102 381.687L221.156 380.159L221.204 380.132L218.086 378.332L218.735 377.957L222.609 380.194L221.924 380.589L213.87 382.13L213.102 381.687Z" fill="white"/>
</g>
<g filter="url(#filter1_bd_362_76285)">
<rect width="242.4" height="153.6" rx="12.8" transform="matrix(0.866044 0.499968 -0.866044 0.499968 138.429 101.894)" fill="black"/>
<g clip-path="url(#clip0_362_76285)">
<path d="M307.297 220.598C304.938 219.236 301.599 218.73 299.325 220.043C296.718 221.548 300.276 223.81 298.966 224.566C298.415 224.885 297.293 224.807 296.22 224.188C294.698 223.309 294.25 222.254 294.25 222.254L291.469 223.298C291.469 223.298 292.197 224.391 293.937 225.395C296.516 226.884 299.837 227.311 302.149 225.976C304.905 224.385 301.325 222.117 302.541 221.415C302.973 221.165 303.962 221.19 305.031 221.807C306.238 222.504 306.721 223.362 306.721 223.362L309.413 222.357C309.413 222.357 308.807 221.47 307.297 220.598ZM285.547 208.235L285.156 208.396C285.156 208.396 285.965 209.074 286.494 209.801C287.227 210.706 287.066 210.894 286.503 211.443L280.42 217.393L283.252 219.028L298.108 215.487L295.283 213.856L285.345 216.358L290.25 212.206C290.837 211.745 290.701 211.211 290.051 210.835L285.547 208.235ZM299.244 216.143L286.533 220.922L289.227 222.477L301.93 217.693L299.244 216.143ZM314.268 224.816C313.618 224.441 312.924 224.444 312.06 224.652L298.58 227.877L301.405 229.508L303.541 228.906L306.982 230.893L305.726 232.002L308.218 233.441L316.538 226.127L314.268 224.816ZM311.8 226.665L308.699 229.422L306.456 228.127L311.8 226.665Z" fill="white"/>
</g>
<path d="M136.973 119.688L130.489 127.317L130.625 127.395L143.84 123.652L145.812 124.791L129.367 129.26L127.259 128.043L135 118.549L136.973 119.688ZM135.324 132.699L144.394 127.463L146.159 128.482L137.089 133.718L135.324 132.699ZM146.685 127.169C146.378 126.992 146.216 126.781 146.2 126.535C146.193 126.29 146.332 126.084 146.62 125.918C146.911 125.75 147.267 125.67 147.688 125.676C148.118 125.683 148.486 125.775 148.793 125.953C149.1 126.13 149.257 126.341 149.265 126.587C149.281 126.832 149.143 127.039 148.852 127.207C148.564 127.373 148.206 127.452 147.777 127.446C147.356 127.439 146.992 127.347 146.685 127.169ZM153.116 135.055L151.233 134.295C151.371 134.138 151.459 133.964 151.499 133.773C151.542 133.585 151.5 133.386 151.375 133.177C151.249 132.968 151.003 132.757 150.636 132.546C150.136 132.257 149.607 132.081 149.048 132.018C148.493 131.952 148.04 132.02 147.69 132.222C147.387 132.397 147.255 132.603 147.294 132.839C147.334 133.076 147.544 133.372 147.926 133.729L149.036 134.752C149.678 135.345 150.003 135.875 150.011 136.344C150.018 136.812 149.701 137.231 149.06 137.601C148.517 137.915 147.875 138.104 147.135 138.167C146.403 138.231 145.637 138.171 144.838 137.987C144.043 137.805 143.279 137.503 142.547 137.08C141.531 136.494 140.919 135.89 140.71 135.27C140.506 134.647 140.732 134.062 141.389 133.514L143.356 134.349C143.017 134.668 142.899 134.988 143.001 135.311C143.108 135.631 143.427 135.945 143.958 136.252C144.537 136.586 145.119 136.783 145.706 136.845C146.296 136.904 146.767 136.832 147.117 136.63C147.401 136.466 147.532 136.267 147.513 136.033C147.497 135.802 147.322 135.532 146.987 135.225L145.789 134.145C145.135 133.545 144.816 133.006 144.832 132.529C144.852 132.054 145.184 131.63 145.83 131.258C146.365 130.948 146.983 130.764 147.684 130.705C148.385 130.646 149.111 130.704 149.863 130.879C150.619 131.052 151.337 131.335 152.018 131.728C152.998 132.294 153.557 132.862 153.695 133.432C153.837 134.001 153.644 134.541 153.116 135.055ZM150.818 141.875C150.243 141.544 149.83 141.182 149.578 140.791C149.33 140.398 149.275 140.005 149.413 139.612C149.554 139.221 149.922 138.854 150.517 138.511C151.029 138.215 151.548 138.029 152.076 137.952C152.603 137.874 153.131 137.877 153.658 137.959C154.186 138.04 154.705 138.172 155.217 138.354C155.729 138.536 156.225 138.736 156.705 138.954C157.311 139.231 157.803 139.456 158.181 139.629C158.563 139.799 158.878 139.902 159.126 139.936C159.374 139.97 159.604 139.925 159.817 139.803L159.858 139.779C160.374 139.481 160.628 139.166 160.62 138.835C160.616 138.505 160.329 138.176 159.758 137.846C159.164 137.503 158.563 137.309 157.957 137.263C157.359 137.218 156.835 137.249 156.386 137.359L155.105 136.183C155.853 135.978 156.585 135.887 157.302 135.91C158.026 135.933 158.713 136.043 159.362 136.24C160.016 136.436 160.616 136.692 161.163 137.007C161.525 137.217 161.866 137.463 162.185 137.747C162.512 138.031 162.74 138.34 162.87 138.674C163.004 139.011 162.976 139.365 162.787 139.738C162.602 140.108 162.179 140.485 161.518 140.866L155.495 144.343L153.77 143.348L155.01 142.632L154.94 142.591C154.597 142.657 154.201 142.688 153.753 142.683C153.304 142.679 152.828 142.615 152.324 142.492C151.82 142.37 151.318 142.164 150.818 141.875ZM152.619 141.279C153.107 141.561 153.621 141.746 154.16 141.834C154.703 141.925 155.221 141.933 155.713 141.858C156.213 141.783 156.642 141.642 157 141.436L158.17 140.761C158.044 140.761 157.862 140.724 157.626 140.652C157.398 140.579 157.15 140.488 156.882 140.379C156.619 140.267 156.363 140.158 156.115 140.052C155.871 139.943 155.666 139.852 155.501 139.779C155.115 139.606 154.729 139.468 154.343 139.363C153.961 139.261 153.589 139.216 153.227 139.23C152.873 139.244 152.538 139.341 152.223 139.523C151.786 139.775 151.617 140.06 151.716 140.375C151.818 140.689 152.119 140.99 152.619 141.279ZM165.884 150.553C165.006 150.046 164.449 149.495 164.213 148.899C163.985 148.304 164.054 147.705 164.42 147.103C164.786 146.501 165.424 145.937 166.333 145.412C167.254 144.88 168.24 144.511 169.291 144.304C170.346 144.095 171.388 144.058 172.415 144.192C173.442 144.326 174.383 144.639 175.237 145.133C175.926 145.53 176.413 145.959 176.696 146.418C176.983 146.874 177.064 147.33 176.938 147.785C176.816 148.241 176.481 148.664 175.934 149.053L174.216 148.061C174.547 147.761 174.696 147.424 174.665 147.052C174.637 146.681 174.342 146.334 173.779 146.009C173.287 145.725 172.726 145.551 172.096 145.487C171.474 145.423 170.823 145.47 170.142 145.627C169.465 145.781 168.803 146.045 168.158 146.418C167.496 146.799 167.026 147.187 166.746 147.58C166.467 147.973 166.378 148.352 166.481 148.715C166.587 149.081 166.89 149.408 167.39 149.697C167.725 149.89 168.089 150.03 168.482 150.116C168.884 150.203 169.293 150.232 169.711 150.205C170.132 150.18 170.543 150.095 170.945 149.949L172.663 150.941C172.013 151.243 171.299 151.436 170.52 151.517C169.74 151.599 168.951 151.562 168.152 151.405C167.356 151.25 166.601 150.966 165.884 150.553ZM185.54 147.726L173.447 154.707L171.681 153.688L183.774 146.707L185.54 147.726ZM178.261 157.718C177.686 157.386 177.273 157.025 177.021 156.634C176.773 156.241 176.718 155.848 176.855 155.455C176.997 155.064 177.365 154.697 177.96 154.354C178.471 154.058 178.991 153.872 179.519 153.794C180.046 153.717 180.573 153.719 181.101 153.801C181.628 153.883 182.148 154.015 182.66 154.197C183.172 154.379 183.668 154.578 184.148 154.797C184.754 155.074 185.246 155.299 185.624 155.472C186.006 155.642 186.321 155.744 186.569 155.778C186.817 155.813 187.047 155.768 187.26 155.645L187.301 155.622C187.817 155.324 188.071 155.009 188.063 154.677C188.059 154.348 187.772 154.018 187.201 153.689C186.606 153.346 186.006 153.151 185.4 153.106C184.801 153.06 184.278 153.092 183.829 153.201L182.548 152.025C183.296 151.821 184.028 151.73 184.744 151.753C185.469 151.775 186.156 151.885 186.805 152.083C187.459 152.279 188.059 152.534 188.606 152.85C188.968 153.059 189.309 153.306 189.628 153.59C189.954 153.874 190.183 154.183 190.313 154.517C190.446 154.853 190.419 155.208 190.23 155.581C190.045 155.951 189.622 156.327 188.96 156.709L182.937 160.186L181.213 159.191L182.453 158.475L182.382 158.434C182.04 158.5 181.644 158.531 181.195 158.526C180.747 158.521 180.27 158.458 179.767 158.335C179.263 158.212 178.761 158.007 178.261 157.718ZM180.062 157.122C180.55 157.403 181.064 157.589 181.603 157.677C182.146 157.768 182.664 157.776 183.156 157.701C183.656 157.626 184.085 157.485 184.443 157.278L185.612 156.603C185.486 156.603 185.305 156.567 185.069 156.494C184.841 156.422 184.593 156.331 184.325 156.222C184.061 156.11 183.805 156.001 183.557 155.894C183.313 155.785 183.109 155.694 182.943 155.622C182.558 155.449 182.172 155.31 181.786 155.206C181.404 155.103 181.032 155.059 180.67 155.073C180.316 155.086 179.981 155.184 179.666 155.366C179.229 155.618 179.06 155.902 179.158 156.218C179.261 156.532 179.562 156.833 180.062 157.122ZM198.941 161.51L197.057 160.749C197.195 160.593 197.284 160.419 197.323 160.228C197.366 160.039 197.325 159.84 197.199 159.631C197.073 159.422 196.827 159.212 196.461 159.001C195.961 158.712 195.432 158.536 194.873 158.472C194.318 158.406 193.865 158.475 193.514 158.677C193.211 158.852 193.079 159.057 193.119 159.294C193.158 159.53 193.369 159.827 193.751 160.184L194.861 161.206C195.502 161.799 195.827 162.33 195.835 162.798C195.843 163.266 195.526 163.686 194.884 164.056C194.341 164.37 193.699 164.558 192.959 164.622C192.227 164.686 191.462 164.625 190.662 164.441C189.867 164.259 189.104 163.957 188.371 163.534C187.356 162.948 186.744 162.345 186.535 161.724C186.33 161.102 186.557 160.516 187.214 159.969L189.18 160.804C188.842 161.122 188.724 161.443 188.826 161.765C188.932 162.086 189.251 162.399 189.783 162.706C190.361 163.04 190.944 163.238 191.53 163.299C192.121 163.358 192.591 163.287 192.942 163.084C193.225 162.921 193.357 162.722 193.337 162.488C193.322 162.256 193.146 161.987 192.812 161.68L191.613 160.599C190.96 159.999 190.641 159.461 190.657 158.984C190.676 158.509 191.009 158.085 191.654 157.712C192.19 157.403 192.808 157.219 193.509 157.16C194.209 157.101 194.936 157.159 195.687 157.334C196.443 157.506 197.162 157.789 197.843 158.183C198.823 158.748 199.382 159.317 199.52 159.887C199.661 160.455 199.469 160.996 198.941 161.51ZM207.856 166.656L205.972 165.896C206.11 165.739 206.199 165.565 206.238 165.374C206.281 165.186 206.24 164.987 206.114 164.778C205.988 164.569 205.742 164.359 205.376 164.147C204.876 163.859 204.346 163.682 203.787 163.619C203.232 163.553 202.78 163.621 202.429 163.823C202.126 163.998 201.994 164.204 202.034 164.44C202.073 164.677 202.284 164.973 202.666 165.33L203.776 166.353C204.417 166.946 204.742 167.477 204.75 167.945C204.758 168.413 204.441 168.832 203.799 169.203C203.256 169.516 202.614 169.705 201.874 169.768C201.142 169.832 200.376 169.772 199.577 169.588C198.782 169.406 198.018 169.104 197.286 168.681C196.271 168.095 195.658 167.491 195.45 166.871C195.245 166.248 195.471 165.663 196.129 165.115L198.095 165.95C197.757 166.269 197.639 166.589 197.741 166.912C197.847 167.232 198.166 167.546 198.697 167.853C199.276 168.187 199.859 168.384 200.445 168.446C201.036 168.505 201.506 168.433 201.857 168.231C202.14 168.067 202.272 167.869 202.252 167.634C202.236 167.403 202.061 167.133 201.727 166.827L200.528 165.746C199.874 165.146 199.556 164.607 199.571 164.13C199.591 163.655 199.924 163.231 200.569 162.859C201.105 162.55 201.723 162.365 202.423 162.306C203.124 162.247 203.85 162.305 204.602 162.48C205.358 162.653 206.077 162.936 206.758 163.329C207.738 163.895 208.297 164.463 208.435 165.033C208.576 165.602 208.383 166.143 207.856 166.656ZM203.119 171.837L212.189 166.601L213.954 167.62L204.884 172.856L203.119 171.837ZM214.48 166.308C214.173 166.13 214.011 165.919 213.995 165.674C213.988 165.428 214.127 165.222 214.415 165.057C214.706 164.888 215.062 164.808 215.483 164.814C215.913 164.821 216.281 164.913 216.588 165.091C216.895 165.268 217.052 165.479 217.06 165.725C217.076 165.97 216.938 166.177 216.647 166.345C216.359 166.511 216.001 166.59 215.572 166.584C215.151 166.577 214.787 166.485 214.48 166.308ZM210.897 176.538C210.019 176.032 209.462 175.481 209.226 174.885C208.997 174.29 209.066 173.691 209.432 173.089C209.799 172.486 210.436 171.923 211.346 171.398C212.267 170.866 213.253 170.497 214.304 170.29C215.359 170.081 216.4 170.043 217.428 170.177C218.455 170.312 219.396 170.625 220.25 171.118C220.939 171.516 221.425 171.944 221.709 172.403C221.996 172.86 222.077 173.316 221.951 173.77C221.829 174.227 221.494 174.65 220.947 175.039L219.229 174.047C219.559 173.747 219.709 173.41 219.677 173.038C219.65 172.667 219.355 172.319 218.792 171.994C218.3 171.71 217.739 171.536 217.109 171.473C216.487 171.409 215.835 171.456 215.154 171.613C214.477 171.767 213.816 172.031 213.17 172.403C212.509 172.785 212.038 173.173 211.759 173.566C211.479 173.959 211.391 174.337 211.493 174.701C211.6 175.067 211.903 175.394 212.403 175.683C212.737 175.876 213.101 176.016 213.495 176.102C213.897 176.188 214.306 176.218 214.723 176.191C215.144 176.166 215.556 176.081 215.957 175.935L217.676 176.927C217.026 177.229 216.312 177.421 215.532 177.503C214.753 177.585 213.963 177.547 213.164 177.391C212.369 177.236 211.613 176.952 210.897 176.538Z" fill="white"/>
<path d="M34.8739 177.347L36.2202 176.624L34.4251 176.393L34.6377 175.943L36.3973 176.263L35.8423 175.247L36.6217 175.125L37.0232 176.161L38.2751 175.384L38.8419 175.711L37.4956 176.434L39.2907 176.665L39.0781 177.115L37.3185 176.795L37.8735 177.811L37.0941 177.933L36.6926 176.897L35.4407 177.674L34.8739 177.347ZM39.1705 179.828L40.5169 179.105L38.7218 178.873L38.9344 178.423L40.694 178.744L40.1389 177.728L40.9184 177.605L41.3199 178.641L42.5717 177.864L43.1386 178.191L41.7923 178.914L43.5874 179.146L43.3748 179.596L41.6152 179.275L42.1702 180.291L41.3908 180.414L40.9892 179.378L39.7374 180.155L39.1705 179.828ZM43.4672 182.308L44.8135 181.585L43.0185 181.354L43.231 180.904L44.9907 181.224L44.4356 180.208L45.2151 180.086L45.6166 181.122L46.8684 180.345L47.4353 180.672L46.089 181.395L47.8841 181.626L47.6715 182.076L45.9118 181.756L46.4669 182.772L45.6875 182.894L45.2859 181.858L44.0341 182.635L43.4672 182.308ZM47.7639 184.789L49.1102 184.066L47.3152 183.834L47.5277 183.384L49.2874 183.705L48.7323 182.689L49.5118 182.566L49.9133 183.602L51.1651 182.825L51.732 183.152L50.3857 183.875L52.1808 184.107L51.9682 184.557L50.2085 184.236L50.7636 185.252L49.9841 185.375L49.5826 184.339L48.3308 185.116L47.7639 184.789ZM50.9012 189.654L51.4327 189.347L55.6133 189.238C56.1034 189.226 56.5187 189.209 56.8592 189.187C57.2017 189.164 57.493 189.126 57.7331 189.071C57.9772 189.017 58.1917 188.936 58.3768 188.829C58.5893 188.706 58.7222 188.571 58.7753 188.422C58.8304 188.274 58.8127 188.125 58.7222 187.975C58.6317 187.825 58.4771 187.687 58.2587 187.561C58.0264 187.427 57.7754 187.338 57.5058 187.293C57.2401 187.249 56.9744 187.249 56.7086 187.293C56.4449 187.339 56.1979 187.428 55.9676 187.561L55.2708 187.159C55.6251 186.954 56.0178 186.822 56.4488 186.762C56.8799 186.701 57.3109 186.709 57.742 186.786C58.175 186.863 58.5677 187.003 58.92 187.207C59.2743 187.411 59.5134 187.635 59.6374 187.88C59.7614 188.124 59.7742 188.364 59.6758 188.601C59.5774 188.837 59.3727 189.045 59.0617 189.225C58.8393 189.353 58.5815 189.455 58.2882 189.531C57.9988 189.608 57.6259 189.664 57.1692 189.7C56.7165 189.736 56.1309 189.762 55.4125 189.777L52.6018 189.831L52.5546 189.859L55.3653 191.481L54.7158 191.856L50.9012 189.654ZM65.1749 190.913L59.1283 194.404L58.3961 193.981L63.6751 190.933L63.6396 190.913L61.1832 190.627L61.9272 190.197L64.4427 190.49L65.1749 190.913ZM61.9466 196.031L62.478 195.724L66.6587 195.615C67.1488 195.602 67.5641 195.585 67.9046 195.564C68.2471 195.541 68.5384 195.502 68.7785 195.448C69.0226 195.393 69.2371 195.312 69.4221 195.206C69.6347 195.083 69.7676 194.947 69.8207 194.798C69.8758 194.651 69.8581 194.502 69.7676 194.352C69.677 194.202 69.5225 194.064 69.304 193.938C69.0718 193.803 68.8208 193.714 68.5512 193.67C68.2854 193.626 68.0197 193.626 67.754 193.67C67.4903 193.715 67.2432 193.805 67.0129 193.938L66.3162 193.535C66.6705 193.331 67.0631 193.198 67.4942 193.138C67.9252 193.078 68.3563 193.086 68.7874 193.162C69.2204 193.239 69.613 193.38 69.9654 193.583C70.3197 193.788 70.5588 194.012 70.6828 194.256C70.8068 194.501 70.8196 194.741 70.7212 194.977C70.6228 195.214 70.4181 195.422 70.1071 195.601C69.8847 195.729 69.6268 195.832 69.3336 195.908C69.0442 195.984 68.6712 196.04 68.2146 196.077C67.7619 196.113 67.1763 196.139 66.4579 196.153L63.6472 196.208L63.5999 196.235L66.4107 197.858L65.7611 198.233L61.9466 196.031ZM68.3904 198.319L68.9927 197.971L75.8542 197.078L76.2911 197.33L75.3581 197.869L75.0629 197.698L69.8784 198.373L69.8312 198.401L73.4095 200.466L72.76 200.841L68.3904 198.319ZM69.9965 200.678L71.4196 199.856L71.7001 199.694L76.0431 197.187L76.7399 197.589L70.6933 201.08L69.9965 200.678Z" fill="white"/>
<path d="M194.907 272.385C194.462 272.128 194.204 271.839 194.134 271.519C194.065 271.197 194.179 270.855 194.476 270.493C194.775 270.129 195.253 269.757 195.911 269.378C196.564 269.001 197.205 268.726 197.833 268.555C198.465 268.383 199.059 268.317 199.616 268.357C200.177 268.397 200.678 268.544 201.119 268.798C201.56 269.053 201.814 269.342 201.881 269.664C201.952 269.987 201.837 270.33 201.538 270.694C201.243 271.057 200.769 271.428 200.115 271.805C199.458 272.185 198.814 272.461 198.184 272.633C197.556 272.805 196.964 272.871 196.407 272.831C195.852 272.79 195.352 272.641 194.907 272.385ZM195.557 272.01C195.997 272.264 196.553 272.339 197.222 272.235C197.891 272.13 198.619 271.851 199.407 271.396C199.93 271.094 200.32 270.804 200.576 270.527C200.834 270.251 200.955 269.997 200.939 269.765C200.925 269.534 200.773 269.335 200.481 269.167C200.044 268.914 199.487 268.842 198.81 268.948C198.135 269.054 197.405 269.334 196.619 269.787C196.096 270.089 195.706 270.378 195.45 270.653C195.194 270.928 195.074 271.18 195.09 271.41C195.108 271.64 195.263 271.84 195.557 272.01ZM207.374 272.505L201.327 275.996L200.595 275.573L205.874 272.525L205.839 272.505L203.382 272.218L204.126 271.789L206.642 272.082L207.374 272.505ZM212.448 275.107L203.26 278.161L202.622 277.793L211.81 274.739L212.448 275.107ZM207.249 279.414L207.78 279.107L211.961 278.998C212.451 278.986 212.866 278.969 213.207 278.947C213.549 278.924 213.84 278.886 214.081 278.831C214.325 278.776 214.539 278.696 214.724 278.589C214.937 278.466 215.07 278.33 215.123 278.182C215.178 278.034 215.16 277.885 215.07 277.735C214.979 277.585 214.825 277.447 214.606 277.321C214.374 277.187 214.123 277.098 213.853 277.053C213.588 277.009 213.322 277.009 213.056 277.053C212.792 277.099 212.545 277.188 212.315 277.321L211.618 276.919C211.973 276.714 212.365 276.582 212.796 276.522C213.227 276.461 213.658 276.469 214.089 276.545C214.522 276.623 214.915 276.763 215.267 276.966C215.622 277.171 215.861 277.395 215.985 277.64C216.109 277.884 216.122 278.124 216.023 278.361C215.925 278.597 215.72 278.805 215.409 278.984C215.187 279.113 214.929 279.215 214.636 279.291C214.346 279.367 213.973 279.424 213.517 279.46C213.064 279.496 212.478 279.522 211.76 279.537L208.949 279.591L208.902 279.618L211.713 281.241L211.063 281.616L207.249 279.414ZM213.102 282.793L221.156 281.266L221.204 281.239L218.086 279.439L218.735 279.064L222.609 281.3L221.924 281.695L213.87 283.236L213.102 282.793Z" fill="white"/>
</g>
<g filter="url(#filter2_bd_362_76285)">
<rect width="242.4" height="153.6" rx="12.8" transform="matrix(0.866044 0.499968 -0.866044 0.499968 138.429 3)" fill="#0C4AFF"/>
<g clip-path="url(#clip1_362_76285)">
<path d="M307.297 121.704C304.938 120.342 301.599 119.836 299.325 121.149C296.718 122.654 300.276 124.916 298.966 125.672C298.415 125.991 297.293 125.913 296.22 125.294C294.698 124.415 294.25 123.36 294.25 123.36L291.469 124.404C291.469 124.404 292.197 125.497 293.937 126.501C296.516 127.99 299.837 128.417 302.149 127.081C304.905 125.491 301.325 123.223 302.541 122.521C302.973 122.271 303.962 122.296 305.031 122.913C306.238 123.61 306.721 124.468 306.721 124.468L309.413 123.463C309.413 123.463 308.807 122.576 307.297 121.704ZM285.547 109.341L285.156 109.502C285.156 109.502 285.965 110.18 286.494 110.907C287.227 111.812 287.066 112 286.503 112.549L280.42 118.499L283.252 120.134L298.108 116.593L295.283 114.962L285.345 117.463L290.25 113.312C290.837 112.851 290.701 112.317 290.051 111.941L285.547 109.341ZM299.244 117.249L286.533 122.028L289.227 123.583L301.93 118.799L299.244 117.249ZM314.268 125.922C313.618 125.547 312.924 125.55 312.06 125.758L298.58 128.983L301.405 130.614L303.541 130.012L306.982 131.999L305.726 133.108L308.218 134.547L316.538 127.233L314.268 125.922ZM311.8 127.771L308.699 130.528L306.456 129.233L311.8 127.771Z" fill="white"/>
</g>
<path d="M142.292 28.406L140.45 27.3425C140.773 27.0743 140.987 26.7982 141.094 26.5141C141.2 26.23 141.218 25.9471 141.147 25.6653C141.076 25.3835 140.92 25.1119 140.68 24.8506C140.444 24.5915 140.133 24.3506 139.747 24.1279C139.051 23.7256 138.251 23.4666 137.35 23.3507C136.452 23.237 135.506 23.2836 134.51 23.4904C133.518 23.6995 132.534 24.0858 131.557 24.6494C130.573 25.2176 129.9 25.788 129.538 26.3607C129.18 26.9357 129.103 27.4822 129.308 28.0004C129.512 28.5185 129.959 28.9764 130.648 29.3741C131.03 29.5946 131.443 29.7741 131.888 29.9127C132.341 30.0514 132.809 30.1423 133.293 30.1855C133.778 30.2286 134.264 30.2207 134.752 30.1616C135.248 30.1025 135.726 29.9832 136.187 29.8037L138.023 30.8706C137.33 31.157 136.592 31.3627 135.809 31.4876C135.033 31.6126 134.244 31.6524 133.441 31.607C132.646 31.5615 131.868 31.4331 131.109 31.2218C130.349 31.0104 129.636 30.7127 128.971 30.3286C127.924 29.7241 127.239 29.0423 126.916 28.2833C126.597 27.522 126.666 26.7368 127.123 25.9278C127.583 25.121 128.457 24.3461 129.745 23.6029C131.036 22.8575 132.38 22.3541 133.778 22.0928C135.179 21.8292 136.537 21.7905 137.852 21.9769C139.171 22.161 140.352 22.5541 141.395 23.1564C142.037 23.5268 142.542 23.9256 142.912 24.3529C143.29 24.7801 143.525 25.2244 143.615 25.6857C143.71 26.1448 143.649 26.605 143.432 27.0663C143.219 27.5254 142.84 27.972 142.292 28.406ZM150.032 28.3336L137.939 35.315L136.173 34.2957L148.267 27.3143L150.032 28.3336ZM142.753 38.3258C142.178 37.994 141.765 37.6327 141.513 37.2418C141.265 36.8487 141.21 36.4555 141.348 36.0623C141.489 35.6715 141.857 35.3044 142.452 34.9613C142.964 34.6658 143.483 34.4795 144.011 34.4022C144.538 34.325 145.066 34.3272 145.593 34.409C146.121 34.4909 146.64 34.6227 147.152 34.8045C147.664 34.9863 148.16 35.1863 148.64 35.4044C149.246 35.6817 149.738 35.9067 150.116 36.0794C150.498 36.2498 150.813 36.3521 151.061 36.3862C151.309 36.4203 151.539 36.376 151.752 36.2532L151.793 36.2294C152.309 35.9317 152.563 35.6169 152.555 35.2851C152.551 34.9556 152.264 34.6261 151.693 34.2966C151.098 33.9534 150.498 33.7591 149.892 33.7136C149.294 33.6682 148.77 33.7 148.321 33.8091L147.04 32.633C147.788 32.4285 148.52 32.3376 149.236 32.3603C149.961 32.383 150.648 32.4933 151.297 32.691C151.951 32.8864 152.551 33.1421 153.098 33.458C153.46 33.667 153.801 33.9136 154.12 34.1977C154.447 34.4818 154.675 34.7908 154.805 35.1249C154.939 35.4612 154.911 35.8158 154.722 36.1885C154.537 36.5589 154.114 36.935 153.453 37.3168L147.43 40.7939L145.705 39.7985L146.945 39.0826L146.875 39.0417C146.532 39.1076 146.136 39.1383 145.688 39.1337C145.239 39.1292 144.763 39.0656 144.259 38.9428C143.755 38.8201 143.253 38.6145 142.753 38.3258ZM144.554 37.7293C145.042 38.0111 145.556 38.1963 146.095 38.2849C146.638 38.3758 147.156 38.3838 147.648 38.3088C148.148 38.2338 148.577 38.0929 148.935 37.8861L150.104 37.2111C149.979 37.2111 149.797 37.1748 149.561 37.1021C149.333 37.0293 149.085 36.9384 148.817 36.8293C148.553 36.718 148.298 36.6089 148.05 36.5021C147.806 36.393 147.601 36.3021 147.436 36.2294C147.05 36.0567 146.664 35.918 146.278 35.8135C145.896 35.7112 145.524 35.6669 145.162 35.6806C144.808 35.6942 144.473 35.7919 144.158 35.9737C143.721 36.226 143.552 36.51 143.65 36.8259C143.753 37.1395 144.054 37.4407 144.554 37.7293ZM163.433 42.1174L161.55 41.3572C161.687 41.2004 161.776 41.0265 161.815 40.8356C161.859 40.647 161.817 40.4481 161.691 40.2391C161.565 40.03 161.319 39.8198 160.953 39.6084C160.453 39.3198 159.924 39.1437 159.365 39.08C158.81 39.0141 158.357 39.0823 158.007 39.2846C157.704 39.4596 157.572 39.6652 157.611 39.9016C157.65 40.1379 157.861 40.4345 158.243 40.7913L159.353 41.814C159.995 42.4071 160.319 42.9378 160.327 43.4059C160.335 43.8741 160.018 44.2933 159.377 44.6638C158.833 44.9774 158.192 45.166 157.452 45.2297C156.719 45.2933 155.954 45.2331 155.155 45.049C154.359 44.8672 153.596 44.5649 152.864 44.1422C151.848 43.5559 151.236 42.9525 151.027 42.3321C150.822 41.7094 151.049 41.1242 151.706 40.5765L153.672 41.4117C153.334 41.7299 153.216 42.0503 153.318 42.373C153.424 42.6935 153.743 43.0071 154.275 43.3139C154.853 43.6479 155.436 43.8456 156.023 43.907C156.613 43.9661 157.084 43.8945 157.434 43.6922C157.717 43.5286 157.849 43.3298 157.83 43.0957C157.814 42.8639 157.639 42.5946 157.304 42.2878L156.105 41.2072C155.452 40.6072 155.133 40.0686 155.149 39.5914C155.168 39.1164 155.501 38.6926 156.147 38.3199C156.682 38.0108 157.3 37.8267 158.001 37.7676C158.701 37.7085 159.428 37.7665 160.18 37.9415C160.935 38.1142 161.654 38.3971 162.335 38.7903C163.315 39.3562 163.874 39.9243 164.012 40.4947C164.154 41.0629 163.961 41.6037 163.433 42.1174ZM172.348 47.2639L170.464 46.5037C170.602 46.3469 170.691 46.1731 170.73 45.9822C170.773 45.7935 170.732 45.5947 170.606 45.3856C170.48 45.1765 170.234 44.9663 169.868 44.755C169.368 44.4663 168.839 44.2902 168.28 44.2266C167.725 44.1607 167.272 44.2289 166.921 44.4311C166.618 44.6061 166.487 44.8118 166.526 45.0481C166.565 45.2845 166.776 45.581 167.158 45.9378L168.268 46.9605C168.909 47.5536 169.234 48.0843 169.242 48.5524C169.25 49.0206 168.933 49.4399 168.291 49.8103C167.748 50.1239 167.107 50.3126 166.366 50.3762C165.634 50.4398 164.869 50.3796 164.069 50.1955C163.274 50.0137 162.511 49.7115 161.778 49.2888C160.763 48.7024 160.151 48.0991 159.942 47.4787C159.737 46.856 159.964 46.2708 160.621 45.7231L162.587 46.5583C162.249 46.8764 162.131 47.1969 162.233 47.5196C162.339 47.84 162.658 48.1536 163.19 48.4604C163.768 48.7945 164.351 48.9922 164.937 49.0536C165.528 49.1126 165.998 49.0411 166.349 48.8388C166.632 48.6752 166.764 48.4763 166.744 48.2422C166.729 48.0104 166.553 47.7411 166.219 47.4343L165.02 46.3537C164.367 45.7538 164.048 45.2152 164.064 44.7379C164.083 44.263 164.416 43.8391 165.061 43.4664C165.597 43.1573 166.215 42.9733 166.916 42.9142C167.616 42.8551 168.343 42.913 169.094 43.088C169.85 43.2607 170.569 43.5437 171.25 43.9368C172.23 44.5027 172.789 45.0709 172.927 45.6413C173.068 46.2094 172.876 46.7503 172.348 47.2639ZM167.611 52.4445L176.681 47.2085L178.446 48.2278L169.376 53.4638L167.611 52.4445ZM178.972 46.9153C178.665 46.7381 178.503 46.5267 178.488 46.2813C178.48 46.0358 178.619 45.8302 178.907 45.6643C179.198 45.4961 179.554 45.4154 179.976 45.4223C180.405 45.4291 180.773 45.5211 181.08 45.6984C181.387 45.8756 181.544 46.087 181.552 46.3324C181.568 46.5779 181.43 46.7847 181.139 46.9528C180.852 47.1187 180.493 47.1983 180.064 47.1915C179.643 47.1846 179.279 47.0926 178.972 46.9153ZM175.389 57.1462C174.511 56.6394 173.954 56.0883 173.718 55.4929C173.49 54.8975 173.559 54.2987 173.925 53.6964C174.291 53.0942 174.928 52.5306 175.838 52.0056C176.759 51.4738 177.745 51.1046 178.796 50.8978C179.851 50.6887 180.892 50.6512 181.92 50.7853C182.947 50.9193 183.888 51.233 184.742 51.7261C185.431 52.1238 185.917 52.5522 186.201 53.0113C186.488 53.468 186.569 53.9237 186.443 54.3782C186.321 54.835 185.986 55.2577 185.439 55.6463L183.721 54.6543C184.051 54.3543 184.201 54.018 184.17 53.6453C184.142 53.2749 183.847 52.9272 183.284 52.6022C182.792 52.3181 182.231 52.1443 181.601 52.0806C180.979 52.017 180.327 52.0636 179.646 52.2204C178.969 52.3749 178.308 52.6385 177.662 53.0113C177.001 53.393 176.531 53.7805 176.251 54.1737C175.972 54.5668 175.883 54.9452 175.985 55.3088C176.092 55.6747 176.395 56.002 176.895 56.2906C177.229 56.4838 177.594 56.6235 177.987 56.7099C178.389 56.7962 178.798 56.8258 179.215 56.7985C179.637 56.7735 180.048 56.6883 180.45 56.5428L182.168 57.5348C181.518 57.8371 180.804 58.0291 180.024 58.1109C179.245 58.1927 178.456 58.1552 177.657 57.9984C176.861 57.8439 176.106 57.5598 175.389 57.1462Z" fill="white"/>
<path d="M34.8739 78.4536L36.2202 77.7309L34.4251 77.4991L34.6377 77.0491L36.3973 77.3696L35.8423 76.3537L36.6217 76.231L37.0232 77.2673L38.2751 76.4901L38.8419 76.8173L37.4956 77.54L39.2907 77.7718L39.0781 78.2218L37.3185 77.9014L37.8735 78.9172L37.0941 79.0399L36.6926 78.0036L35.4407 78.7808L34.8739 78.4536ZM39.1705 80.9341L40.5169 80.2114L38.7218 79.9796L38.9344 79.5296L40.694 79.85L40.1389 78.8342L40.9184 78.7115L41.3199 79.7478L42.5717 78.9706L43.1386 79.2978L41.7923 80.0205L43.5874 80.2523L43.3748 80.7023L41.6152 80.3818L42.1702 81.3977L41.3908 81.5204L40.9892 80.4841L39.7374 81.2613L39.1705 80.9341ZM43.4672 83.4145L44.8135 82.6919L43.0185 82.4601L43.231 82.0101L44.9907 82.3305L44.4356 81.3147L45.2151 81.192L45.6166 82.2283L46.8684 81.451L47.4353 81.7783L46.089 82.501L47.8841 82.7328L47.6715 83.1827L45.9118 82.8623L46.4669 83.8782L45.6875 84.0009L45.2859 82.9646L44.0341 83.7418L43.4672 83.4145ZM47.7639 85.895L49.1102 85.1723L47.3152 84.9405L47.5277 84.4906L49.2874 84.811L48.7323 83.7952L49.5118 83.6724L49.9133 84.7087L51.1651 83.9315L51.732 84.2588L50.3857 84.9815L52.1808 85.2133L51.9682 85.6632L50.2085 85.3428L50.7636 86.3586L49.9841 86.4814L49.5826 85.4451L48.3308 86.2223L47.7639 85.895ZM50.9012 90.7605L51.4327 90.4537L55.6133 90.3447C56.1034 90.3322 56.5187 90.3151 56.8592 90.2935C57.2017 90.2708 57.493 90.2322 57.7331 90.1776C57.9772 90.1231 58.1917 90.0424 58.3768 89.9356C58.5893 89.8129 58.7222 89.6771 58.7753 89.5282C58.8304 89.3805 58.8127 89.2317 58.7222 89.0817C58.6317 88.9317 58.4771 88.7936 58.2587 88.6675C58.0264 88.5334 57.7754 88.4442 57.5058 88.3999C57.2401 88.3556 56.9744 88.3556 56.7086 88.3999C56.4449 88.4453 56.1979 88.5345 55.9676 88.6675L55.2708 88.2652C55.6251 88.0607 56.0178 87.9283 56.4488 87.8681C56.8799 87.8079 57.3109 87.8158 57.742 87.892C58.175 87.9692 58.5677 88.1096 58.92 88.313C59.2743 88.5175 59.5134 88.7419 59.6374 88.9862C59.7614 89.2305 59.7742 89.4709 59.6758 89.7072C59.5774 89.9435 59.3727 90.1515 59.0617 90.331C58.8393 90.4594 58.5815 90.5617 58.2882 90.6378C57.9988 90.714 57.6259 90.7702 57.1692 90.8066C56.7165 90.8429 56.1309 90.8685 55.4125 90.8833L52.6018 90.9378L52.5546 90.9651L55.3653 92.5877L54.7158 92.9627L50.9012 90.7605ZM65.1749 92.0194L59.1283 95.51L58.3961 95.0873L63.6751 92.0398L63.6396 92.0194L61.1832 91.733L61.9272 91.3035L64.4427 91.5967L65.1749 92.0194ZM61.9466 97.137L62.478 96.8302L66.6587 96.7212C67.1488 96.7087 67.5641 96.6916 67.9046 96.67C68.2471 96.6473 68.5384 96.6087 68.7785 96.5541C69.0226 96.4996 69.2371 96.4189 69.4221 96.3121C69.6347 96.1894 69.7676 96.0536 69.8207 95.9047C69.8758 95.757 69.8581 95.6082 69.7676 95.4582C69.677 95.3082 69.5225 95.1701 69.304 95.044C69.0718 94.9099 68.8208 94.8207 68.5512 94.7764C68.2854 94.7321 68.0197 94.7321 67.754 94.7764C67.4903 94.8218 67.2432 94.911 67.0129 95.044L66.3162 94.6417C66.6705 94.4372 67.0631 94.3048 67.4942 94.2446C67.9252 94.1844 68.3563 94.1923 68.7874 94.2685C69.2204 94.3457 69.613 94.4861 69.9654 94.6895C70.3197 94.894 70.5588 95.1184 70.6828 95.3627C70.8068 95.607 70.8196 95.8473 70.7212 96.0837C70.6228 96.32 70.4181 96.528 70.1071 96.7075C69.8847 96.8359 69.6268 96.9382 69.3336 97.0143C69.0442 97.0904 68.6712 97.1467 68.2146 97.1831C67.7619 97.2194 67.1763 97.245 66.4579 97.2598L63.6472 97.3143L63.5999 97.3416L66.4107 98.9642L65.7611 99.3392L61.9466 97.137ZM68.3904 99.4253L68.9927 99.0776L75.8542 98.1845L76.2911 98.4368L75.3581 98.9754L75.0629 98.8049L69.8784 99.4799L69.8312 99.5072L73.4095 101.573L72.76 101.948L68.3904 99.4253ZM69.9965 101.784L71.4196 100.963L71.7001 100.801L76.0431 98.2936L76.7399 98.6958L70.6933 102.187L69.9965 101.784Z" fill="white"/>
<path d="M194.907 173.491C194.462 173.234 194.204 172.946 194.134 172.625C194.065 172.304 194.179 171.962 194.476 171.599C194.775 171.235 195.253 170.864 195.911 170.484C196.564 170.107 197.205 169.833 197.833 169.661C198.465 169.49 199.059 169.424 199.616 169.463C200.177 169.503 200.678 169.65 201.119 169.905C201.56 170.159 201.814 170.448 201.881 170.771C201.952 171.093 201.837 171.437 201.538 171.8C201.243 172.164 200.769 172.534 200.115 172.911C199.458 173.291 198.814 173.567 198.184 173.74C197.556 173.911 196.964 173.977 196.407 173.938C195.852 173.897 195.352 173.748 194.907 173.491ZM195.557 173.116C195.997 173.371 196.553 173.446 197.222 173.341C197.891 173.236 198.619 172.957 199.407 172.502C199.93 172.2 200.32 171.91 200.576 171.633C200.834 171.357 200.955 171.103 200.939 170.871C200.925 170.641 200.773 170.441 200.481 170.273C200.044 170.021 199.487 169.948 198.81 170.055C198.135 170.161 197.405 170.44 196.619 170.893C196.096 171.196 195.706 171.484 195.45 171.759C195.194 172.034 195.074 172.287 195.09 172.516C195.108 172.747 195.263 172.947 195.557 173.116ZM207.374 173.611L201.327 177.102L200.595 176.679L205.874 173.632L205.839 173.611L203.382 173.325L204.126 172.895L206.642 173.189L207.374 173.611ZM212.448 176.213L203.26 179.268L202.622 178.899L211.81 175.845L212.448 176.213ZM207.249 180.52L207.78 180.214L211.961 180.105C212.451 180.092 212.866 180.075 213.207 180.053C213.549 180.031 213.84 179.992 214.081 179.937C214.325 179.883 214.539 179.802 214.724 179.695C214.937 179.573 215.07 179.437 215.123 179.288C215.178 179.14 215.16 178.992 215.07 178.842C214.979 178.692 214.825 178.553 214.606 178.427C214.374 178.293 214.123 178.204 213.853 178.16C213.588 178.115 213.322 178.115 213.056 178.16C212.792 178.205 212.545 178.294 212.315 178.427L211.618 178.025C211.973 177.821 212.365 177.688 212.796 177.628C213.227 177.568 213.658 177.576 214.089 177.652C214.522 177.729 214.915 177.869 215.267 178.073C215.622 178.277 215.861 178.502 215.985 178.746C216.109 178.99 216.122 179.231 216.023 179.467C215.925 179.703 215.72 179.911 215.409 180.091C215.187 180.219 214.929 180.322 214.636 180.398C214.346 180.474 213.973 180.53 213.517 180.566C213.064 180.603 212.478 180.628 211.76 180.643L208.949 180.698L208.902 180.725L211.713 182.348L211.063 182.723L207.249 180.52ZM213.102 183.9L221.156 182.372L221.204 182.345L218.086 180.545L218.735 180.17L222.609 182.406L221.924 182.802L213.87 184.343L213.102 183.9Z" fill="white"/>
</g>
<defs>
<filter id="filter0_bd_362_76285" x="-10.5953" y="184.787" width="388.877" height="229.987" filterUnits="userSpaceOnUse" color-interpolation-filters="sRGB">
<feFlood flood-opacity="0" result="BackgroundImageFix"/>
<feGaussianBlur in="BackgroundImageFix" stdDeviation="8"/>
<feComposite in2="SourceAlpha" operator="in" result="effect1_backgroundBlur_362_76285"/>
<feColorMatrix in="SourceAlpha" type="matrix" values="0 0 0 0 0 0 0 0 0 0 0 0 0 0 0 0 0 0 127 0" result="hardAlpha"/>
<feOffset dy="1.6"/>
<feGaussianBlur stdDeviation="2.4"/>
<feColorMatrix type="matrix" values="0 0 0 0 0 0 0 0 0 0 0 0 0 0 0 0 0 0 0.2 0"/>
<feBlend mode="normal" in2="effect1_backgroundBlur_362_76285" result="effect2_dropShadow_362_76285"/>
<feBlend mode="normal" in="SourceGraphic" in2="effect2_dropShadow_362_76285" result="shape"/>
</filter>
<filter id="filter1_bd_362_76285" x="-10.5953" y="85.8936" width="374.954" height="229.987" filterUnits="userSpaceOnUse" color-interpolation-filters="sRGB">
<feFlood flood-opacity="0" result="BackgroundImageFix"/>
<feGaussianBlur in="BackgroundImageFix" stdDeviation="8"/>
<feComposite in2="SourceAlpha" operator="in" result="effect1_backgroundBlur_362_76285"/>
<feColorMatrix in="SourceAlpha" type="matrix" values="0 0 0 0 0 0 0 0 0 0 0 0 0 0 0 0 0 0 127 0" result="hardAlpha"/>
<feOffset dy="1.6"/>
<feGaussianBlur stdDeviation="2.4"/>
<feColorMatrix type="matrix" values="0 0 0 0 0 0 0 0 0 0 0 0 0 0 0 0 0 0 0.2 0"/>
<feBlend mode="normal" in2="effect1_backgroundBlur_362_76285" result="effect2_dropShadow_362_76285"/>
<feBlend mode="normal" in="SourceGraphic" in2="effect2_dropShadow_362_76285" result="shape"/>
</filter>
<filter id="filter2_bd_362_76285" x="-10.5953" y="-13" width="374.954" height="229.987" filterUnits="userSpaceOnUse" color-interpolation-filters="sRGB">
<feFlood flood-opacity="0" result="BackgroundImageFix"/>
<feGaussianBlur in="BackgroundImageFix" stdDeviation="8"/>
<feComposite in2="SourceAlpha" operator="in" result="effect1_backgroundBlur_362_76285"/>
<feColorMatrix in="SourceAlpha" type="matrix" values="0 0 0 0 0 0 0 0 0 0 0 0 0 0 0 0 0 0 127 0" result="hardAlpha"/>
<feOffset dy="1.6"/>
<feGaussianBlur stdDeviation="2.4"/>
<feColorMatrix type="matrix" values="0 0 0 0 0 0 0 0 0 0 0 0 0 0 0 0 0 0 0.2 0"/>
<feBlend mode="normal" in2="effect1_backgroundBlur_362_76285" result="effect2_dropShadow_362_76285"/>
<feBlend mode="normal" in="SourceGraphic" in2="effect2_dropShadow_362_76285" result="shape"/>
</filter>
<linearGradient id="paint0_linear_362_76285" x1="121.2" y1="0" x2="121.2" y2="153.6" gradientUnits="userSpaceOnUse">
<stop stop-color="#A9A9A9"/>
<stop offset="0.583333" stop-color="#D0D0D0"/>
<stop offset="1" stop-color="#A7A7A7"/>
</linearGradient>
<clipPath id="clip0_362_76285">
<rect width="38.4" height="38.4" fill="white" transform="matrix(0.866044 0.499968 -0.866044 0.499968 296.742 201.687)"/>
</clipPath>
<clipPath id="clip1_362_76285">
<rect width="38.4" height="38.4" fill="white" transform="matrix(0.866044 0.499968 -0.866044 0.499968 296.742 102.793)"/>
</clipPath>
</defs>
</svg>
