<svg width="569" height="493" viewBox="0 0 569 493" fill="none" xmlns="http://www.w3.org/2000/svg">
<g clip-path="url(#clip0_270_60411)" filter="url(#filter0_d_270_60411)">
<rect width="161.28" height="161.28" rx="36.864" transform="matrix(0.866026 0.5 -0.866026 0.5 324.357 206.931)" fill="#E2EFFF"/>
<path fill-rule="evenodd" clip-rule="evenodd" d="M296.697 282.805L291.172 279.615L303.301 267.827C303.853 267.281 304.097 266.658 303.795 266.123C303.046 264.786 301.98 263.45 300.452 262.205L301.079 261.843L309.98 266.982C311.209 267.692 311.189 268.767 310.25 269.487L300.661 277.505L319.957 272.742L325.329 275.844L296.697 282.805ZM308.055 289.363L302.837 286.35L327.478 277.085L332.697 280.098L308.055 289.363ZM333.818 287.249C335.067 286.706 336.615 286.876 337.69 287.496C339.537 288.381 341.062 289.625 341.817 290.963L347.119 288.966C346.21 287.717 344.835 286.56 343.302 285.675C338.237 282.751 331.733 282.25 327.822 284.508C324.847 286.226 325.895 288.635 326.797 290.242C327.852 291.935 327.993 292.74 326.901 293.193C325.494 294.006 323.332 293.481 321.799 292.596C319.956 291.532 318.582 290.197 317.679 288.771L312.375 290.77C313.437 292.284 315.116 293.617 316.959 294.681C322.483 298.049 328.828 298.462 333.054 296.022C338.375 292.95 331.472 288.604 333.818 287.249ZM344.582 310.452L360.783 296.313L356.332 293.744C355.411 293.212 353.863 293.041 352.617 293.406L326.165 299.818L331.537 302.92L335.582 301.823L342.183 305.634L339.825 307.705L344.582 310.452ZM351.624 297.349L345.49 302.661L341.193 300.18L351.624 297.349Z" fill="#3662E3"/>
<rect width="161.28" height="161.28" rx="36.864" transform="matrix(0.866026 0.5 -0.866026 0.5 685.706 -1.58032)" fill="#E2EFFF"/>
<rect width="161.28" height="161.28" rx="36.864" transform="matrix(0.866026 0.5 -0.866026 0.5 497.157 105.556)" fill="#E2EFFF"/>
<path d="M516.706 183.009L502.678 174.91L477.47 189.464L491.498 197.563L516.706 183.009Z" fill="#FF5F00"/>
<path d="M490.965 182.701C493.39 181.298 496.337 180.232 499.581 179.584C502.826 178.936 506.284 178.722 509.692 178.96C509.186 176.521 507.502 174.213 504.832 172.301C502.162 170.389 498.614 168.949 494.593 168.146C490.573 167.343 486.242 167.209 482.096 167.76C477.95 168.31 474.157 169.524 471.149 171.26C468.14 172.997 466.039 175.187 465.085 177.581C464.132 179.975 464.363 182.475 465.754 184.796C467.145 187.117 469.639 189.166 472.951 190.707C476.264 192.249 480.26 193.221 484.484 193.513C484.073 191.545 484.443 189.549 485.566 187.676C486.689 185.803 488.535 184.102 490.965 182.701Z" fill="#EB001B"/>
<path d="M523.027 201.212C520.019 202.949 516.225 204.162 512.079 204.713C507.934 205.264 503.603 205.13 499.583 204.327C495.562 203.524 492.014 202.084 489.344 200.172C486.674 198.26 484.99 195.952 484.484 193.513C487.893 193.749 491.349 193.534 494.593 192.886C497.837 192.238 500.784 191.173 503.211 189.772C505.639 188.37 507.483 186.669 508.606 184.796C509.729 182.923 510.1 180.927 509.692 178.96C513.916 179.252 517.913 180.224 521.225 181.766C524.537 183.307 527.031 185.356 528.422 187.677C529.813 189.998 530.044 192.498 529.09 194.892C528.136 197.285 526.035 199.476 523.027 201.212Z" fill="#F79E1B"/>
<path d="M511.563 206.065L512.079 205.767L512.287 205.887L512.393 205.826L511.863 205.52L511.757 205.581L511.966 205.701L511.45 205.999L511.563 206.065ZM512.592 206.659L513.214 206.299L513.052 206.206L512.437 206.345L512.678 205.99L512.516 205.896L511.893 206.255L512.008 206.322L512.477 206.051L512.248 206.385L512.367 206.454L512.948 206.321L512.478 206.593L512.592 206.659Z" fill="#F79E1B"/>
<rect width="161.28" height="161.28" rx="36.864" transform="matrix(0.866026 0.5 -0.866026 0.5 684.933 214.996)" fill="#E2EFFF"/>
<rect width="161.28" height="161.28" rx="36.864" transform="matrix(0.866026 0.5 -0.866026 0.5 512.133 316.371)" fill="#E2EFFF"/>
<path d="M499.662 382.611L537.075 404.211L530.839 386.211L499.662 382.611Z" stroke="#3662E3" stroke-width="3.6" stroke-linecap="round" stroke-linejoin="round"/>
<path d="M504.339 385.311L488.751 394.311" stroke="#3662E3" stroke-width="3.6" stroke-linecap="round" stroke-linejoin="round"/>
<path d="M513.692 390.711L498.104 399.711" stroke="#3662E3" stroke-width="3.6" stroke-linecap="round" stroke-linejoin="round"/>
<path d="M523.045 396.111L507.457 405.111" stroke="#3662E3" stroke-width="3.6" stroke-linecap="round" stroke-linejoin="round"/>
<path d="M532.398 401.511L516.81 410.511" stroke="#3662E3" stroke-width="3.6" stroke-linecap="round" stroke-linejoin="round"/>
<path d="M484.074 391.611L521.486 413.211" stroke="#3662E3" stroke-width="3.6" stroke-linecap="round" stroke-linejoin="round"/>
<path d="M474.721 393.411L518.369 418.611" stroke="#3662E3" stroke-width="3.6" stroke-linecap="round" stroke-linejoin="round"/>
<rect width="161.28" height="161.28" rx="36.864" transform="matrix(0.866026 0.5 -0.866026 0.5 144.645 103.252)" fill="#E2EFFF"/>
<path fill-rule="evenodd" clip-rule="evenodd" d="M134.226 165.053C132.42 165.177 130.351 164.903 129.193 164.103C130.4 163.222 132.476 162.743 134.102 162.646C135.936 162.505 138.068 162.881 139.251 163.498C137.96 164.397 136.048 164.904 134.226 165.053ZM133.414 166.853C132.363 166.165 130.909 165.824 129.734 165.548C128.978 165.371 128.338 165.221 127.996 165.023C127.612 164.801 127.343 164.415 127.041 163.982C126.646 163.414 126.194 162.764 125.351 162.296C123.428 161.218 120.512 160.867 117.708 161.369C112.047 162.342 108.078 166.332 107.01 169.167C106.47 170.565 105.973 172.153 107.514 172.977C108.193 173.339 108.877 173.486 109.585 173.639C110.4 173.815 111.246 173.997 112.154 174.521C113.03 175.027 113.328 175.497 113.614 175.949C113.886 176.378 114.147 176.789 114.884 177.199C116.45 178.07 118.869 177.79 121.291 177.478C123.896 177.147 125.893 176.509 126.196 176.412L126.231 176.401C126.231 176.399 126.225 176.388 126.214 176.369C126.041 176.077 124.723 173.842 128.12 171.852C130.968 170.18 134.506 170.542 135.062 170.599C135.096 170.602 135.119 170.605 135.13 170.605C135.912 168.624 134.073 167.299 133.414 166.853ZM125.987 183.428L148.185 170.612L155.937 175.088C159.939 177.399 159.773 180.723 155.445 183.222C151.116 185.721 145.277 185.802 141.222 183.461L136.783 180.898L129.193 185.28L125.987 183.428ZM148.486 174.141L152.184 176.275C154.967 177.882 154.962 179.721 152.157 181.34C149.352 182.96 146.153 182.971 143.357 181.356L139.673 179.229L148.486 174.141ZM153.788 196.405C151.203 196.918 148.238 196.472 146.223 195.309C143.242 193.588 143.069 191.285 145.946 189.625C148.793 187.98 152.445 188.198 156.411 190.208L160.669 192.371L161.894 191.664C163.702 190.62 163.585 189.417 161.623 188.285C160.007 187.352 157.93 187.189 156.325 187.84L153.436 186.172C156.405 184.565 161.016 184.81 164.421 186.777C168.092 188.896 168.413 191.465 165.209 193.315L154.16 199.694L151.191 197.98L153.854 196.443L153.788 196.405ZM149.719 194.286C148.009 193.299 147.805 192.162 149.158 191.381C150.553 190.575 152.412 190.711 154.541 191.792L158.348 193.711L157.095 194.434C155.016 195.634 151.892 195.541 149.719 194.286ZM163.137 205.88C157.964 207.382 155.212 207.273 152.085 205.467C151.846 205.33 151.079 204.854 150.951 204.714L153.614 203.177C153.784 203.308 154.246 203.608 154.497 203.753C155.915 204.572 157.351 204.661 159.507 203.982L160.781 203.583L171.509 191.116L174.862 193.051L165.525 202.803L165.591 202.841L182.482 197.451L185.742 199.333L163.137 205.88Z" fill="black" fill-opacity="0.84"/>
<rect width="161.28" height="161.28" rx="36.864" transform="matrix(0.866026 0.5 -0.866026 0.5 505.994 -105.26)" fill="#E2EFFF"/>
<rect width="161.28" height="161.28" rx="36.864" transform="matrix(0.866026 0.5 -0.866026 0.5 319.749 4.17969)" fill="#E2EFFF"/>
<path fill-rule="evenodd" clip-rule="evenodd" d="M307.798 88.3233L317.167 82.9141L321.895 85.6443C323.833 86.763 326.133 87.324 328.775 87.3377L329.427 87.3308C334.574 87.1717 338.637 84.6409 338.55 81.6943C338.58 80.1784 337.522 78.7367 335.654 77.7009L328.063 73.3182L304.935 86.6708L307.798 88.3233ZM320.007 81.2744L328.085 76.6106L332.886 79.3822C333.917 79.9776 334.489 80.7765 334.481 81.6233C334.478 83.4108 331.932 84.9221 328.834 84.9862C327.312 85.0231 325.838 84.6833 324.808 84.0461L320.007 81.2744Z" fill="#3C4043"/>
<path fill-rule="evenodd" clip-rule="evenodd" d="M345.692 93.3565C345.628 91.9775 344.547 90.672 342.431 89.4506C339.711 87.8802 336.634 87.2962 333.236 87.698L334.119 90.1032C336.445 89.8276 338.408 90.1517 340.008 91.0755C341.021 91.6605 341.612 92.4486 341.675 93.2946C341.758 94.109 341.226 94.909 340.211 95.4947L339.529 95.8887C339.054 94.8903 337.999 93.898 336.292 92.9127C334.301 91.7632 332.222 91.1163 330.053 90.9929C327.885 90.8696 325.989 91.266 324.348 92.2137C322.818 93.0556 322.02 94.2348 322.164 95.4248C322.251 96.6677 323.157 97.787 324.828 98.7518C326.801 99.891 329.269 100.273 332.268 99.9167L332.392 99.9885L330.197 101.256L332.935 102.836L342.691 97.2035C344.739 96.0215 345.757 94.7355 345.692 93.3565ZM326.25 95.6117C326.106 95.0174 326.469 94.3969 327.244 93.9496C328.111 93.4492 329.221 93.2598 330.557 93.3711C331.911 93.4927 333.184 93.8869 334.34 94.5542C335.959 95.4674 336.835 96.3989 336.986 97.3381C335.732 98.0622 334.164 98.4133 332.299 98.4016C330.56 98.42 328.907 98.0402 327.698 97.3421C326.879 96.8908 326.373 96.2794 326.25 95.6117Z" fill="#3C4043"/>
<path d="M332.133 110.402L364.474 102.774L361.363 100.977L345.576 104.981L345.523 104.95L352.35 95.7736L349.239 93.9774L340.705 106.151L329.182 108.698L332.133 110.402Z" fill="#3C4043"/>
<path d="M309.314 76.0379C310.218 75.5162 311.05 74.9534 311.793 74.3601L299.722 67.391L294.614 70.3405L301.529 74.3331C299.603 75.1166 297.203 75.4347 294.93 75.1871L291.61 77.1037L295.735 79.4849C300.458 79.5498 305.256 78.3805 309.314 76.0379Z" fill="#4285F4"/>
<path d="M284.046 76.4422C287.495 78.4334 291.591 79.4348 295.735 79.4849L294.93 75.1871C292.963 74.9884 291.027 74.4031 289.303 73.4075C285.96 71.4779 285.476 68.4937 287.598 66.0985L283.349 63.6454L279.919 65.6259C277.606 69.4656 279.211 73.6504 284.046 76.4422Z" fill="#34A853"/>
<path d="M287.598 66.0985C288.706 64.8428 290.496 63.8102 292.689 63.1599L296.101 61.19L291.851 58.7365C286.276 59.8407 281.85 62.3963 279.937 65.6151L287.598 66.0985Z" fill="#FBBC04"/>
<path d="M305.348 64.1437C307.216 65.1796 308.257 66.611 308.263 68.1265L315.724 68.0473C315.645 65.4037 313.823 62.9249 310.604 61.109C305.769 58.3173 298.502 57.4013 291.851 58.7365L292.67 63.1702C296.837 61.9345 302.006 62.2141 305.348 64.1437Z" fill="#EA4335"/>
</g>
<defs>
<filter id="filter0_d_270_60411" x="-4" y="0.75" width="573" height="500" filterUnits="userSpaceOnUse" color-interpolation-filters="sRGB">
<feFlood flood-opacity="0" result="BackgroundImageFix"/>
<feColorMatrix in="SourceAlpha" type="matrix" values="0 0 0 0 0 0 0 0 0 0 0 0 0 0 0 0 0 0 127 0" result="hardAlpha"/>
<feOffset dy="4"/>
<feGaussianBlur stdDeviation="2"/>
<feComposite in2="hardAlpha" operator="out"/>
<feColorMatrix type="matrix" values="0 0 0 0 0 0 0 0 0 0 0 0 0 0 0 0 0 0 0.25 0"/>
<feBlend mode="normal" in2="BackgroundImageFix" result="effect1_dropShadow_270_60411"/>
<feBlend mode="normal" in="SourceGraphic" in2="effect1_dropShadow_270_60411" result="shape"/>
</filter>
<clipPath id="clip0_270_60411">
<rect width="565" height="492" fill="white" transform="translate(0 0.75)"/>
</clipPath>
</defs>
</svg>
