<svg width="113" height="26" viewBox="0 0 113 26" fill="none" xmlns="http://www.w3.org/2000/svg">
<path d="M1.1 26V5.68L0.7 2.48H6.46L20.06 16.72L21.62 18.88H22.06V2.48H27.34V26H22.26L8.34 11.52L6.78 9.64H6.38V26H1.1ZM37.8269 26C36.4935 26 35.4669 25.8267 34.7469 25.48C34.0269 25.1333 33.5069 24.6933 33.1869 24.16C32.8935 23.6267 32.7069 23.0667 32.6269 22.48C32.5735 21.8933 32.5469 21.36 32.5469 20.88V13.2C32.5469 12.8 32.5735 12.32 32.6269 11.76C32.7069 11.1733 32.8935 10.6 33.1869 10.04C33.5069 9.48 34.0269 9.01333 34.7469 8.64C35.4935 8.26667 36.5202 8.08 37.8269 8.08H46.4269C48.1869 8.08 49.5602 8.25333 50.5469 8.6C51.5602 8.92 52.2669 9.45333 52.6669 10.2C53.0935 10.9467 53.3069 11.9467 53.3069 13.2V19.12H46.3069C43.9069 19.12 41.9469 19.0667 40.4269 18.96C38.9335 18.8533 37.9335 18.7867 37.4269 18.76V20.96C37.4002 22.0267 38.0402 22.56 39.3469 22.56H41.3869C42.8269 22.56 44.2269 22.5467 45.5869 22.52C46.9735 22.4667 48.2402 22.4133 49.3869 22.36C50.5335 22.28 51.4535 22.2133 52.1469 22.16L53.7469 24.76C53.7469 25.5867 51.1202 26 45.8669 26H37.8269ZM37.4269 15.68H48.4269V13.12C48.4269 12.5867 48.3602 12.2133 48.2269 12C48.1202 11.7867 47.7735 11.6533 47.1869 11.6C46.6002 11.5467 45.6002 11.52 44.1869 11.52H39.3469C38.0669 11.52 37.4269 12.0533 37.4269 13.12V15.68ZM55.7516 26L56.5516 24.4L63.4716 17L55.7516 8.08H61.8316L66.7116 14.28H67.1116L72.0716 8.08H78.1516L77.5116 9.36L70.1916 17L78.1516 26H72.0316L67.1116 20H66.7116L61.8316 26H55.7516ZM83.7947 5.56C82.808 5.56 82.088 5.36 81.6347 4.96C81.1814 4.56 80.9547 3.89333 80.9547 2.96C80.9547 2 81.168 1.33333 81.5947 0.959998C82.048 0.559999 82.7814 0.359999 83.7947 0.359999C84.808 0.359999 85.5414 0.559999 85.9947 0.959998C86.448 1.33333 86.6747 2 86.6747 2.96C86.6747 3.86666 86.448 4.53333 85.9947 4.96C85.5414 5.36 84.808 5.56 83.7947 5.56ZM81.3547 26V8.08H86.2347V26H81.3547ZM96.3425 26C94.5558 26 93.2225 25.64 92.3425 24.92C91.4892 24.2 91.0625 23.0267 91.0625 21.4V13.2C91.0625 12.8 91.0892 12.32 91.1425 11.76C91.2225 11.1733 91.4092 10.6 91.7025 10.04C92.0225 9.48 92.5425 9.01333 93.2625 8.64C94.0092 8.26667 95.0358 8.08 96.3425 8.08H107.383C108.716 8.08 109.743 8.26667 110.463 8.64C111.183 9.01333 111.689 9.48 111.983 10.04C112.303 10.6 112.489 11.1733 112.543 11.76C112.623 12.32 112.663 12.8 112.663 13.2V20.88C112.663 21.36 112.623 21.8933 112.543 22.48C112.489 23.0667 112.303 23.6267 111.983 24.16C111.663 24.6933 111.143 25.1333 110.423 25.48C109.703 25.8267 108.689 26 107.383 26H96.3425ZM97.8625 22.56H105.863C107.169 22.56 107.823 22.0267 107.823 20.96V13.12C107.823 12.0533 107.169 11.52 105.863 11.52H97.8625C96.5825 11.52 95.9425 12.0533 95.9425 13.12V20.96C95.9425 22.0267 96.5825 22.56 97.8625 22.56Z" fill="#0C4AFF"/>
<path d="M1.1 26H0.6V26.5H1.1V26ZM1.1 5.68H1.6V5.64887L1.59614 5.61798L1.1 5.68ZM0.7 2.48V1.98H0.133609L0.203861 2.54202L0.7 2.48ZM6.46 2.48L6.82159 2.13467L6.67387 1.98H6.46V2.48ZM20.06 16.72L20.4653 16.4273L20.4453 16.3995L20.4216 16.3747L20.06 16.72ZM21.62 18.88L21.2147 19.1727L21.3643 19.38H21.62V18.88ZM22.06 18.88V19.38H22.56V18.88H22.06ZM22.06 2.48V1.98H21.56V2.48H22.06ZM27.34 2.48H27.84V1.98H27.34V2.48ZM27.34 26V26.5H27.84V26H27.34ZM22.26 26L21.8995 26.3465L22.0471 26.5H22.26V26ZM8.34 11.52L7.95522 11.8393L7.96689 11.8533L7.97955 11.8665L8.34 11.52ZM6.78 9.64L7.16478 9.32071L7.01483 9.14H6.78V9.64ZM6.38 9.64V9.14H5.88V9.64H6.38ZM6.38 26V26.5H6.88V26H6.38ZM1.6 26V5.68H0.6V26H1.6ZM1.59614 5.61798L1.19614 2.41798L0.203861 2.54202L0.603861 5.74202L1.59614 5.61798ZM0.7 2.98H6.46V1.98H0.7V2.98ZM6.09841 2.82533L19.6984 17.0653L20.4216 16.3747L6.82159 2.13467L6.09841 2.82533ZM19.6547 17.0127L21.2147 19.1727L22.0253 18.5873L20.4653 16.4273L19.6547 17.0127ZM21.62 19.38H22.06V18.38H21.62V19.38ZM22.56 18.88V2.48H21.56V18.88H22.56ZM22.06 2.98H27.34V1.98H22.06V2.98ZM26.84 2.48V26H27.84V2.48H26.84ZM27.34 25.5H22.26V26.5H27.34V25.5ZM22.6205 25.6535L8.70046 11.1735L7.97955 11.8665L21.8995 26.3465L22.6205 25.6535ZM8.72478 11.2007L7.16478 9.32071L6.39522 9.95929L7.95522 11.8393L8.72478 11.2007ZM6.78 9.14H6.38V10.14H6.78V9.14ZM5.88 9.64V26H6.88V9.64H5.88ZM6.38 25.5H1.1V26.5H6.38V25.5ZM34.7469 25.48L34.9638 25.0295L34.9638 25.0295L34.7469 25.48ZM33.1869 24.16L32.7488 24.401L32.7533 24.4092L32.7581 24.4172L33.1869 24.16ZM32.6269 22.48L32.1289 22.5253L32.1299 22.5364L32.1315 22.5476L32.6269 22.48ZM32.6269 11.76L32.1315 11.6924L32.1301 11.7025L32.1291 11.7126L32.6269 11.76ZM33.1869 10.04L32.7528 9.79193L32.7482 9.79988L32.744 9.808L33.1869 10.04ZM34.7469 8.64L34.5232 8.19274L34.5167 8.19612L34.7469 8.64ZM50.5469 8.6L50.3811 9.07173L50.3887 9.07438L50.3963 9.07679L50.5469 8.6ZM52.6669 10.2L52.226 10.4362L52.2328 10.4481L52.6669 10.2ZM53.3069 19.12V19.62H53.8069V19.12H53.3069ZM40.4269 18.96L40.3913 19.4587L40.3919 19.4588L40.4269 18.96ZM37.4269 18.76L37.4532 18.2607L36.9269 18.233V18.76H37.4269ZM37.4269 20.96L37.9269 20.9725V20.96H37.4269ZM45.5869 22.52L45.5967 23.02L45.6061 23.0196L45.5869 22.52ZM49.3869 22.36L49.4101 22.8596L49.4217 22.8588L49.3869 22.36ZM52.1469 22.16L52.5727 21.898L52.4128 21.6381L52.1085 21.6615L52.1469 22.16ZM53.7469 24.76H54.2469V24.6185L54.1727 24.498L53.7469 24.76ZM37.4269 15.68H36.9269V16.18H37.4269V15.68ZM48.4269 15.68V16.18H48.9269V15.68H48.4269ZM48.2269 12L47.7797 12.2236L47.7903 12.2449L47.8029 12.265L48.2269 12ZM47.1869 11.6L47.1416 12.0979L47.1416 12.0979L47.1869 11.6ZM37.8269 25.5C36.5247 25.5 35.5854 25.3288 34.9638 25.0295L34.53 25.9305C35.3484 26.3246 36.4624 26.5 37.8269 26.5V25.5ZM34.9638 25.0295C34.3069 24.7132 33.8729 24.3315 33.6156 23.9028L32.7581 24.4172C33.1409 25.0552 33.7468 25.5534 34.53 25.9305L34.9638 25.0295ZM33.625 23.919C33.3604 23.438 33.1938 22.9366 33.1223 22.4124L32.1315 22.5476C32.22 23.1968 32.4267 23.8154 32.7488 24.401L33.625 23.919ZM33.1248 22.4347C33.0726 21.8599 33.0469 21.342 33.0469 20.88H32.0469C32.0469 21.378 32.0745 21.9268 32.1289 22.5253L33.1248 22.4347ZM33.0469 20.88V13.2H32.0469V20.88H33.0469ZM33.0469 13.2C33.0469 12.8207 33.0722 12.3574 33.1246 11.8074L32.1291 11.7126C32.0748 12.2826 32.0469 12.7793 32.0469 13.2H33.0469ZM33.1223 11.8276C33.1939 11.3021 33.3615 10.7841 33.6298 10.272L32.744 9.808C32.4256 10.4159 32.2198 11.0445 32.1315 11.6924L33.1223 11.8276ZM33.621 10.2881C33.8823 9.83072 34.3205 9.42429 34.977 9.08388L34.5167 8.19612C33.7332 8.60238 33.1314 9.12928 32.7528 9.79193L33.621 10.2881ZM34.9705 9.08721C35.6194 8.76275 36.5583 8.58 37.8269 8.58V7.58C36.4821 7.58 35.3677 7.77058 34.5233 8.19279L34.9705 9.08721ZM37.8269 8.58H46.4269V7.58H37.8269V8.58ZM46.4269 8.58C48.1635 8.58 49.4719 8.75226 50.3811 9.07173L50.7126 8.12827C49.6485 7.7544 48.2103 7.58 46.4269 7.58V8.58ZM50.3963 9.07679C51.3185 9.36801 51.9025 9.83194 52.2261 10.4361L53.1076 9.96389C52.6313 9.07473 51.8019 8.47199 50.6974 8.12321L50.3963 9.07679ZM52.2328 10.4481C52.6009 11.0924 52.8069 11.9965 52.8069 13.2H53.8069C53.8069 11.8969 53.5862 10.801 53.101 9.95193L52.2328 10.4481ZM52.8069 13.2V19.12H53.8069V13.2H52.8069ZM53.3069 18.62H46.3069V19.62H53.3069V18.62ZM46.3069 18.62C43.9128 18.62 41.9656 18.5668 40.4619 18.4612L40.3919 19.4588C41.9281 19.5666 43.901 19.62 46.3069 19.62V18.62ZM40.4625 18.4613C38.9699 18.3547 37.9653 18.2876 37.4532 18.2607L37.4006 19.2593C37.9018 19.2857 38.8972 19.352 40.3913 19.4587L40.4625 18.4613ZM36.9269 18.76V20.96H37.9269V18.76H36.9269ZM36.927 20.9475C36.911 21.5868 37.0977 22.1532 37.5668 22.5441C38.0153 22.9179 38.6395 23.06 39.3469 23.06V22.06C38.7476 22.06 38.3984 21.9354 38.207 21.7759C38.0361 21.6335 37.916 21.3998 37.9267 20.9725L36.927 20.9475ZM39.3469 23.06H41.3869V22.06H39.3469V23.06ZM41.3869 23.06C42.83 23.06 44.2332 23.0466 45.5967 23.0199L45.5771 22.0201C44.2205 22.0467 42.8238 22.06 41.3869 22.06V23.06ZM45.6061 23.0196C46.9938 22.9663 48.2619 22.9129 49.4101 22.8595L49.3636 21.8605C48.2186 21.9138 46.9533 21.9671 45.5677 22.0204L45.6061 23.0196ZM49.4217 22.8588C50.5689 22.7788 51.4902 22.712 52.1852 22.6585L52.1085 21.6615C51.4169 21.7147 50.4982 21.7812 49.3521 21.8612L49.4217 22.8588ZM51.721 22.422L53.321 25.022L54.1727 24.498L52.5727 21.898L51.721 22.422ZM53.2469 24.76C53.2469 24.6563 53.3333 24.7123 53.0409 24.8504C52.7775 24.9747 52.3409 25.0951 51.6992 25.1961C50.4257 25.3965 48.4875 25.5 45.8669 25.5V26.5C48.4996 26.5 50.5014 26.3969 51.8546 26.1839C52.5262 26.0782 53.0746 25.9403 53.4678 25.7546C53.8321 25.5827 54.2469 25.277 54.2469 24.76H53.2469ZM45.8669 25.5H37.8269V26.5H45.8669V25.5ZM37.4269 16.18H48.4269V15.18H37.4269V16.18ZM48.9269 15.68V13.12H47.9269V15.68H48.9269ZM48.9269 13.12C48.9269 12.5767 48.8648 12.0772 48.6509 11.735L47.8029 12.265C47.8556 12.3494 47.9269 12.5966 47.9269 13.12H48.9269ZM48.6741 11.7764C48.541 11.5101 48.2938 11.3608 48.0664 11.2733C47.8324 11.1833 47.5479 11.1308 47.2321 11.1021L47.1416 12.0979C47.4125 12.1226 47.5947 12.1633 47.7074 12.2067C47.8266 12.2525 47.8061 12.2765 47.7797 12.2236L48.6741 11.7764ZM47.2321 11.1021C46.6206 11.0465 45.6003 11.02 44.1869 11.02V12.02C45.6001 12.02 46.5798 12.0469 47.1416 12.0979L47.2321 11.1021ZM44.1869 11.02H39.3469V12.02H44.1869V11.02ZM39.3469 11.02C38.6498 11.02 38.0338 11.1633 37.5868 11.5359C37.1223 11.923 36.9269 12.4832 36.9269 13.12H37.9269C37.9269 12.6901 38.0515 12.4503 38.227 12.3041C38.4199 12.1433 38.764 12.02 39.3469 12.02V11.02ZM36.9269 13.12V15.68H37.9269V13.12H36.9269ZM55.7516 26L55.3043 25.7764L54.9425 26.5H55.7516V26ZM56.5516 24.4L56.1864 24.0585L56.1368 24.1115L56.1043 24.1764L56.5516 24.4ZM63.4716 17L63.8368 17.3415L64.144 17.0129L63.8496 16.6728L63.4716 17ZM55.7516 8.08V7.58H54.6576L55.3735 8.40721L55.7516 8.08ZM61.8316 8.08L62.2245 7.77075L62.0743 7.58H61.8316V8.08ZM66.7116 14.28L66.3187 14.5892L66.4688 14.78H66.7116V14.28ZM67.1116 14.28V14.78H67.3519L67.502 14.5923L67.1116 14.28ZM72.0716 8.08V7.58H71.8313L71.6811 7.76765L72.0716 8.08ZM78.1516 8.08L78.5988 8.30361L78.9606 7.58H78.1516V8.08ZM77.5116 9.36L77.8726 9.70591L77.9249 9.65128L77.9588 9.58361L77.5116 9.36ZM70.1916 17L69.8305 16.6541L69.5121 16.9865L69.817 17.3313L70.1916 17ZM78.1516 26V26.5H79.2613L78.5261 25.6687L78.1516 26ZM72.0316 26L71.6449 26.317L71.795 26.5H72.0316V26ZM67.1116 20L67.4982 19.683L67.3482 19.5H67.1116V20ZM66.7116 20V19.5H66.4737L66.3237 19.6845L66.7116 20ZM61.8316 26V26.5H62.0694L62.2195 26.3155L61.8316 26ZM56.1988 26.2236L56.9988 24.6236L56.1043 24.1764L55.3043 25.7764L56.1988 26.2236ZM56.9168 24.7415L63.8368 17.3415L63.1064 16.6585L56.1864 24.0585L56.9168 24.7415ZM63.8496 16.6728L56.1296 7.75279L55.3735 8.40721L63.0935 17.3272L63.8496 16.6728ZM55.7516 8.58H61.8316V7.58H55.7516V8.58ZM61.4387 8.38925L66.3187 14.5892L67.1045 13.9708L62.2245 7.77075L61.4387 8.38925ZM66.7116 14.78H67.1116V13.78H66.7116V14.78ZM67.502 14.5923L72.462 8.39235L71.6811 7.76765L66.7211 13.9677L67.502 14.5923ZM72.0716 8.58H78.1516V7.58H72.0716V8.58ZM77.7044 7.85639L77.0643 9.13639L77.9588 9.58361L78.5988 8.30361L77.7044 7.85639ZM77.1505 9.01409L69.8305 16.6541L70.5526 17.3459L77.8726 9.70591L77.1505 9.01409ZM69.817 17.3313L77.777 26.3313L78.5261 25.6687L70.5661 16.6687L69.817 17.3313ZM78.1516 25.5H72.0316V26.5H78.1516V25.5ZM72.4182 25.683L67.4982 19.683L66.7249 20.317L71.6449 26.317L72.4182 25.683ZM67.1116 19.5H66.7116V20.5H67.1116V19.5ZM66.3237 19.6845L61.4437 25.6845L62.2195 26.3155L67.0995 20.3155L66.3237 19.6845ZM61.8316 25.5H55.7516V26.5H61.8316V25.5ZM81.6347 4.96L81.9655 4.58508L81.9655 4.58508L81.6347 4.96ZM81.5947 0.959998L81.9239 1.33629L81.9255 1.33492L81.5947 0.959998ZM85.9947 0.959998L85.6639 1.33492L85.6703 1.34055L85.6768 1.34596L85.9947 0.959998ZM85.9947 4.96L86.3255 5.33492L86.3315 5.3296L86.3374 5.3241L85.9947 4.96ZM81.3547 26H80.8547V26.5H81.3547V26ZM81.3547 8.08V7.58H80.8547V8.08H81.3547ZM86.2347 8.08H86.7347V7.58H86.2347V8.08ZM86.2347 26V26.5H86.7347V26H86.2347ZM83.7947 5.06C82.8577 5.06 82.2849 4.86695 81.9655 4.58508L81.3039 5.33492C81.8911 5.85305 82.7584 6.06 83.7947 6.06V5.06ZM81.9655 4.58508C81.6668 4.32151 81.4547 3.8276 81.4547 2.96H80.4547C80.4547 3.95907 80.6959 4.79849 81.3039 5.33492L81.9655 4.58508ZM81.4547 2.96C81.4547 2.04835 81.6615 1.56592 81.9239 1.33629L81.2654 0.58371C80.6745 1.10074 80.4547 1.95165 80.4547 2.96H81.4547ZM81.9255 1.33492C82.2431 1.05471 82.8269 0.859999 83.7947 0.859999V-0.140001C82.7358 -0.140001 81.853 0.0652863 81.2639 0.585079L81.9255 1.33492ZM83.7947 0.859999C84.7625 0.859999 85.3463 1.05471 85.6639 1.33492L86.3255 0.585079C85.7364 0.0652863 84.8535 -0.140001 83.7947 -0.140001V0.859999ZM85.6768 1.34596C85.9583 1.57774 86.1747 2.05614 86.1747 2.96H87.1747C87.1747 1.94386 86.9378 1.08892 86.3125 0.574033L85.6768 1.34596ZM86.1747 2.96C86.1747 3.7923 85.9666 4.29985 85.652 4.5959L86.3374 5.3241C86.9295 4.76681 87.1747 3.94103 87.1747 2.96H86.1747ZM85.6639 4.58508C85.3463 4.86529 84.7625 5.06 83.7947 5.06V6.06C84.8535 6.06 85.7364 5.85471 86.3255 5.33492L85.6639 4.58508ZM81.8547 26V8.08H80.8547V26H81.8547ZM81.3547 8.58H86.2347V7.58H81.3547V8.58ZM85.7347 8.08V26H86.7347V8.08H85.7347ZM86.2347 25.5H81.3547V26.5H86.2347V25.5ZM92.3425 24.92L92.02 25.3022L92.0259 25.307L92.3425 24.92ZM91.1425 11.76L90.6471 11.6924L90.6457 11.7025L90.6448 11.7126L91.1425 11.76ZM91.7025 10.04L91.2684 9.79193L91.2638 9.79988L91.2596 9.808L91.7025 10.04ZM93.2625 8.64L93.0389 8.19274L93.0323 8.19612L93.2625 8.64ZM111.983 10.04L111.54 10.272L111.544 10.2801L111.548 10.2881L111.983 10.04ZM112.543 11.76L112.045 11.8053L112.046 11.818L112.048 11.8307L112.543 11.76ZM112.543 22.48L112.047 22.4124L112.046 22.4236L112.045 22.4347L112.543 22.48ZM111.983 24.16L111.554 23.9028L111.554 23.9028L111.983 24.16ZM96.3425 25.5C94.6091 25.5 93.4113 25.1484 92.6591 24.533L92.0259 25.307C93.0337 26.1316 94.5026 26.5 96.3425 26.5V25.5ZM92.6649 24.5379C91.9681 23.9499 91.5625 22.9485 91.5625 21.4H90.5625C90.5625 23.1048 91.0103 24.4501 92.0201 25.3021L92.6649 24.5379ZM91.5625 21.4V13.2H90.5625V21.4H91.5625ZM91.5625 13.2C91.5625 12.8207 91.5879 12.3574 91.6402 11.8074L90.6448 11.7126C90.5905 12.2826 90.5625 12.7793 90.5625 13.2H91.5625ZM91.6379 11.8276C91.7096 11.3021 91.8772 10.7841 92.1454 10.272L91.2596 9.808C90.9412 10.4159 90.7354 11.0445 90.6471 11.6924L91.6379 11.8276ZM92.1366 10.2881C92.398 9.83072 92.8362 9.42429 93.4927 9.08388L93.0323 8.19612C92.2488 8.60238 91.647 9.12928 91.2684 9.79193L92.1366 10.2881ZM93.4861 9.08721C94.135 8.76275 95.074 8.58 96.3425 8.58V7.58C94.9977 7.58 93.8833 7.77058 93.0389 8.19279L93.4861 9.08721ZM96.3425 8.58H107.383V7.58H96.3425V8.58ZM107.383 8.58C108.681 8.58 109.615 8.76387 110.232 9.08388L110.693 8.19612C109.87 7.76947 108.75 7.58 107.383 7.58V8.58ZM110.232 9.08388C110.887 9.42337 111.306 9.8254 111.54 10.272L112.425 9.808C112.073 9.1346 111.478 8.6033 110.693 8.19612L110.232 9.08388ZM111.548 10.2881C111.836 10.7918 111.998 11.2965 112.045 11.8053L113.04 11.7147C112.98 11.0501 112.769 10.4082 112.417 9.79193L111.548 10.2881ZM112.048 11.8307C112.125 12.376 112.163 12.8311 112.163 13.2H113.163C113.163 12.7689 113.12 12.264 113.037 11.6893L112.048 11.8307ZM112.163 13.2V20.88H113.163V13.2H112.163ZM112.163 20.88C112.163 21.3329 112.125 21.8432 112.047 22.4124L113.038 22.5476C113.12 21.9434 113.163 21.3871 113.163 20.88H112.163ZM112.045 22.4347C111.998 22.9423 111.837 23.4303 111.554 23.9028L112.411 24.4172C112.768 23.8231 112.98 23.1911 113.04 22.5253L112.045 22.4347ZM111.554 23.9028C111.297 24.3315 110.862 24.7132 110.206 25.0295L110.639 25.9305C111.423 25.5534 112.028 25.0552 112.411 24.4172L111.554 23.9028ZM110.206 25.0295C109.583 25.3293 108.656 25.5 107.383 25.5V26.5C108.722 26.5 109.822 26.3241 110.639 25.9305L110.206 25.0295ZM107.383 25.5H96.3425V26.5H107.383V25.5ZM97.8625 23.06H105.863V22.06H97.8625V23.06ZM105.863 23.06C106.571 23.06 107.195 22.9174 107.649 22.5473C108.121 22.1614 108.323 21.6002 108.323 20.96H107.323C107.323 21.3864 107.197 21.6253 107.016 21.7727C106.816 21.9359 106.461 22.06 105.863 22.06V23.06ZM108.323 20.96V13.12H107.323V20.96H108.323ZM108.323 13.12C108.323 12.4798 108.121 11.9186 107.649 11.5327C107.195 11.1626 106.571 11.02 105.863 11.02V12.02C106.461 12.02 106.816 12.1441 107.016 12.3073C107.197 12.4547 107.323 12.6936 107.323 13.12H108.323ZM105.863 11.02H97.8625V12.02H105.863V11.02ZM97.8625 11.02C97.1654 11.02 96.5495 11.1633 96.1024 11.5359C95.6379 11.923 95.4425 12.4832 95.4425 13.12H96.4425C96.4425 12.6901 96.5671 12.4503 96.7426 12.3041C96.9355 12.1433 97.2796 12.02 97.8625 12.02V11.02ZM95.4425 13.12V20.96H96.4425V13.12H95.4425ZM95.4425 20.96C95.4425 21.5968 95.6379 22.157 96.1024 22.5441C96.5495 22.9167 97.1654 23.06 97.8625 23.06V22.06C97.2796 22.06 96.9355 21.9367 96.7426 21.7759C96.5671 21.6296 96.4425 21.3899 96.4425 20.96H95.4425Z" fill="#0C4AFF"/>
</svg>
