<svg width="368" height="405" viewBox="0 0 368 405" fill="none" xmlns="http://www.w3.org/2000/svg">
<path d="M233.934 145.124L220.199 137.149L101.46 164.175L118.296 176.581L233.934 145.124Z" fill="#0C4AFF"/>
<path d="M118.296 188.1L93.042 197.848L255.644 264.306L288.43 251.015L118.296 188.1Z" fill="#0C4AFF"/>
<path d="M293.747 292.662L252.543 278.927L83.7378 341.398L147.981 367.982L293.747 292.662Z" fill="#0C4AFF"/>
<path d="M233.934 145.124L220.199 137.149L101.46 164.175L118.296 176.581L233.934 145.124Z" stroke="#0C4AFF"/>
<path d="M118.296 188.1L93.042 197.848L255.644 264.306L288.43 251.015L118.296 188.1Z" stroke="#0C4AFF"/>
<path d="M293.747 292.662L252.543 278.927L83.7378 341.398L147.981 367.982L293.747 292.662Z" stroke="#0C4AFF"/>
<ellipse cx="256.53" cy="134.048" rx="36.7737" ry="14.1778" fill="#0C4AFF"/>
<ellipse cx="71.3322" cy="179.683" rx="50.9516" ry="19.9376" fill="#0C4AFF"/>
<ellipse cx="308.811" cy="271.838" rx="58.9266" ry="22.5959" fill="#0C4AFF"/>
<ellipse cx="79.3072" cy="372.855" rx="79.3072" ry="31.4571" fill="#0C4AFF"/>
<path d="M258.744 0.6875C240.178 0.6875 225.073 15.7253 225.073 34.2073C225.073 51.9978 255.623 93.5629 256.924 95.323L258.138 96.9676C258.28 97.1609 258.506 97.2739 258.744 97.2739C258.985 97.2739 259.21 97.1609 259.353 96.9676L260.567 95.323C261.868 93.5629 292.418 51.9978 292.418 34.2073C292.418 15.7253 277.311 0.6875 258.744 0.6875ZM258.744 22.2006C265.396 22.2006 270.806 27.5855 270.806 34.2073C270.806 40.8256 265.396 46.214 258.744 46.214C252.095 46.214 246.682 40.8256 246.682 34.2073C246.682 27.5855 252.095 22.2006 258.744 22.2006Z" fill="black" fill-opacity="0.84"/>
</svg>
