<svg width="253" height="183" viewBox="0 0 253 183" fill="none" xmlns="http://www.w3.org/2000/svg">
<path d="M136.25 119.77V107.634C136.25 105.663 135.465 103.773 134.071 102.379C132.674 100.986 130.782 100.202 128.808 100.202H24.2185C22.2462 100.21 20.3594 100.996 18.9646 102.389C17.5713 103.78 16.7849 105.666 16.7764 107.634V119.771C16.7849 121.739 17.5712 123.625 18.9646 125.016C20.3593 126.408 22.2461 127.195 24.2185 127.203H128.808C130.782 127.203 132.674 126.419 134.071 125.026C135.465 123.632 136.25 121.742 136.25 119.77ZM22.176 119.77V107.634C22.176 106.509 23.0885 105.596 24.2169 105.596H128.807C129.934 105.596 130.848 106.509 130.848 107.634V119.77C130.848 120.902 129.939 121.823 128.807 121.84H24.2169C23.0843 121.823 22.176 120.902 22.176 119.77ZM24.2169 136.36V136.359C22.2447 136.367 20.3579 137.154 18.963 138.545C17.5697 139.937 16.7833 141.823 16.7749 143.791V155.927C16.7581 157.912 17.5333 159.822 18.9294 161.235C20.3269 162.647 22.2291 163.445 24.2167 163.454H51.8171H51.8157C53.8062 163.454 55.7139 162.658 57.1116 161.243C58.5105 159.829 59.2829 157.915 59.2577 155.927V143.791C59.2577 141.82 58.4741 139.93 57.078 138.536C55.6818 137.143 53.7894 136.359 51.8158 136.359L24.2169 136.36ZM53.9199 143.791V155.927C53.9031 157.058 52.9793 157.965 51.8481 157.965H24.2168C23.0884 157.965 22.1758 157.053 22.1758 155.927V143.791C22.1758 142.66 23.0842 141.738 24.2168 141.722H51.8172H51.8158C52.9653 141.722 53.9031 142.643 53.9199 143.791ZM207.995 116.759C210.738 116.304 213.445 115.654 216.096 114.816V160.661C216.096 166.483 213.78 172.066 209.657 176.184C205.536 180.299 199.946 182.612 194.116 182.612H22.5185C16.6887 182.612 11.0985 180.3 6.97716 176.184C2.85471 172.066 0.539062 166.483 0.539062 160.661V55.169C0.581116 49.3745 2.91503 43.8306 7.03206 39.7486C11.1491 35.6647 16.7167 33.3746 22.5185 33.3746H138.696C137.686 35.9981 136.868 38.6917 136.247 41.4341H22.517C18.8668 41.4341 15.3652 42.8802 12.7818 45.4548C10.197 48.0294 8.74047 51.5238 8.73221 55.169V62.6013H134.925C136.081 72.4305 139.58 81.8396 145.13 90.0403H8.6059V160.661C8.61431 164.329 10.0875 167.841 12.6989 170.42C15.309 172.999 18.8428 174.43 22.5152 174.397H194.206C197.853 174.397 201.352 172.95 203.932 170.374C206.511 167.798 207.959 164.303 207.959 160.661L207.995 116.759ZM196.785 0.38623C182.213 0.38623 168.236 6.16813 157.929 16.4593C147.625 26.7519 141.836 40.7108 141.836 55.2657C141.836 69.8196 147.625 83.7788 157.929 94.0721C168.235 104.363 182.212 110.145 196.785 110.145C211.359 110.145 225.335 104.363 235.641 94.0721C245.946 83.7796 251.735 69.8206 251.735 55.2657C251.743 40.709 245.957 26.7458 235.65 16.4521C225.343 6.1581 211.362 0.379063 196.787 0.387665L196.785 0.38623ZM196.785 101.739C184.444 101.739 172.608 96.8418 163.881 88.1272C155.155 79.4111 150.252 67.5897 150.252 55.2646C150.252 42.9393 155.155 31.1181 163.881 22.4021C172.608 13.6875 184.444 8.79047 196.785 8.79047C209.126 8.79047 220.963 13.6875 229.69 22.4021C238.416 31.1181 243.319 42.9396 243.319 55.2646C243.302 67.5857 238.394 79.3972 229.672 88.1093C220.948 96.8214 209.122 101.722 196.785 101.739L196.785 101.739ZM215.845 41.748V38.7689C215.845 32.0071 212.233 25.759 206.37 22.3783C200.507 18.9974 193.284 18.9974 187.42 22.3783C181.558 25.7592 177.946 32.0071 177.946 38.7689V41.748C176.144 41.7564 174.419 42.4759 173.148 43.7513C171.878 45.0267 171.164 46.7528 171.164 48.5519V79.1899C171.164 80.9861 171.878 82.7094 173.15 83.9791C174.422 85.2503 176.147 85.9643 177.946 85.9643H215.844C217.645 85.9643 219.373 85.2517 220.65 83.9819C221.927 82.7122 222.649 80.9888 222.658 79.1899V48.5519C222.658 46.7473 221.939 45.017 220.662 43.7402C219.383 42.4648 217.651 41.748 215.844 41.748L215.845 41.748ZM183.253 38.7689C183.073 35.066 184.422 31.4541 186.982 28.7705C189.541 26.0882 193.09 24.5691 196.801 24.5691C200.511 24.5691 204.06 26.0881 206.62 28.7705C209.181 31.4542 210.528 35.066 210.35 38.7689V41.748H183.253V38.7689ZM217.195 79.1916C217.178 79.9588 216.55 80.572 215.782 80.572H177.726C176.963 80.572 176.345 79.9546 176.345 79.1916V48.5536C176.344 47.7865 176.958 47.1607 177.726 47.1425H215.846C216.62 47.1593 217.242 47.7823 217.259 48.5536L217.195 79.1916ZM209.753 53.4464C210.323 53.886 210.692 54.5355 210.775 55.2509C210.858 55.9649 210.647 56.6831 210.193 57.2403L195.937 75.178C195.494 75.7324 194.852 76.0922 194.147 76.1818H193.833C193.205 76.2014 192.587 76.0152 192.075 75.6484L183.628 68.9369C182.458 68.0115 182.262 66.3119 183.19 65.1429C184.118 63.974 185.818 63.778 186.988 64.7033L193.268 69.7208L205.828 54.0412C206.243 53.3903 206.921 52.9493 207.685 52.8359C208.451 52.7211 209.229 52.9437 209.816 53.4462L209.753 53.4464Z" fill="white"/>
<path fill-rule="evenodd" clip-rule="evenodd" d="M243.024 55.3077C243.024 80.3286 222.483 100.792 196.923 100.792C171.362 100.792 150.822 80.3286 150.822 55.3077C150.822 30.2867 171.362 9.82374 196.923 9.82374C222.483 9.82374 243.024 30.2867 243.024 55.3077ZM252.462 55.3077C252.462 85.6402 227.596 110.23 196.923 110.23C166.249 110.23 141.384 85.6402 141.384 55.3077C141.384 24.9751 166.249 0.385742 196.923 0.385742C227.596 0.385742 252.462 24.9751 252.462 55.3077ZM177.169 35.0699C176.532 37.2929 176.217 39.6071 176.232 41.9296C173.322 42.5898 171.15 45.1921 171.15 48.3018V79.5198C171.15 83.1284 174.075 86.0538 177.684 86.0538H216.162C219.77 86.0538 222.696 83.1284 222.696 79.5198V48.3018C222.696 45.1919 220.523 42.5894 217.613 41.9295C217.631 39.1781 217.185 36.4461 216.297 33.8692C216.252 33.7369 216.205 33.605 216.157 33.4735C215.192 30.8244 213.773 28.4007 211.978 26.33C211.841 26.1709 211.701 26.0139 211.558 25.8591C211.457 25.7486 211.354 25.6394 211.251 25.5314C209.427 23.6273 207.298 22.1027 204.969 21.0334C204.834 20.9712 204.698 20.9106 204.561 20.8515C201.939 19.7186 199.132 19.1809 196.312 19.2714L196.273 19.2727C193.467 19.3685 190.707 20.0847 188.163 21.3778C188.015 21.4529 187.868 21.5299 187.722 21.6088C185.477 22.821 183.453 24.4671 181.749 26.4668C181.648 26.5851 181.548 26.7046 181.45 26.8253C181.318 26.9863 181.189 27.1492 181.062 27.314C179.38 29.4981 178.093 32.0115 177.272 34.7215C177.237 34.8373 177.202 34.9535 177.169 35.0699ZM209.463 36.3599C210.091 38.0824 210.413 39.9175 210.413 41.7678H183.432C183.432 40.2097 183.66 38.6586 184.11 37.1735C184.145 37.0575 184.182 36.942 184.22 36.8271C184.8 35.0604 185.688 33.43 186.834 32.0253C186.966 31.8637 187.101 31.7055 187.239 31.5508C188.379 30.2723 189.725 29.229 191.211 28.4734C191.36 28.3981 191.509 28.3258 191.659 28.2565C193.2 27.5466 194.85 27.1539 196.525 27.1001L196.563 27.0989C198.242 27.0503 199.912 27.3429 201.49 27.9602C201.628 28.0144 201.766 28.0711 201.903 28.1303C203.425 28.7878 204.822 29.7405 206.028 30.9401C206.176 31.0881 206.322 31.2398 206.465 31.3953C207.673 32.7103 208.64 34.2621 209.314 35.9674C209.366 36.0974 209.415 36.2282 209.463 36.3599ZM177.684 47.5758C177.283 47.5758 176.958 47.9008 176.958 48.3018V79.5198C176.958 79.9208 177.283 80.2458 177.684 80.2458H216.162C216.563 80.2458 216.888 79.9208 216.888 79.5198V48.3018C216.888 47.9008 216.563 47.5758 216.162 47.5758H177.684ZM212.636 56.2648C213.826 54.8039 213.607 52.6546 212.146 51.4642C210.685 50.2738 208.536 50.4931 207.345 51.954L193.561 68.8709L187.138 63.4757C185.695 62.2636 183.543 62.4508 182.331 63.8937C181.119 65.3367 181.306 67.4891 182.749 68.7012L191.26 75.8502C193.028 77.3358 195.67 77.0861 197.129 75.2955L212.636 56.2648Z" fill="#1564FE"/>
</svg>
