<svg width="513" height="437" viewBox="0 0 513 437" fill="none" xmlns="http://www.w3.org/2000/svg">
<g filter="url(#filter0_d_270_60326)">
<g clip-path="url(#clip0_270_60326)">
<g filter="url(#filter1_d_270_60326)">
<rect x="9" y="122" width="368" height="306" rx="5" fill="white"/>
</g>
<path d="M59.381 369.871H355.095" stroke="#E1E3E8" stroke-dasharray="2"/>
<path d="M59.381 335.871H355.095" stroke="#E1E3E8" stroke-dasharray="2"/>
<path d="M59.381 300.774H355.095" stroke="#E1E3E8" stroke-dasharray="2"/>
<path d="M59.381 265.677H355.095" stroke="#E1E3E8" stroke-dasharray="2"/>
<path d="M59.381 230.581H355.095" stroke="#E1E3E8" stroke-dasharray="2"/>
<path d="M59.381 196.581H355.095" stroke="#E1E3E8" stroke-dasharray="2"/>
<path d="M33.7811 356.982V365.709H32.7243V358.09H32.6731L30.5425 359.505V358.431L32.7243 356.982H33.7811ZM39.322 365.829C38.68 365.829 38.1331 365.654 37.6814 365.305C37.2297 364.952 36.8845 364.442 36.6459 363.775C36.4072 363.104 36.2879 362.295 36.2879 361.346C36.2879 360.403 36.4072 359.597 36.6459 358.93C36.8874 358.259 37.2339 357.748 37.6857 357.396C38.1402 357.04 38.6857 356.863 39.322 356.863C39.9584 356.863 40.5024 357.04 40.9541 357.396C41.4087 357.748 41.7553 358.259 41.9939 358.93C42.2354 359.597 42.3561 360.403 42.3561 361.346C42.3561 362.295 42.2368 363.104 41.9982 363.775C41.7595 364.442 41.4143 364.952 40.9626 365.305C40.5109 365.654 39.9641 365.829 39.322 365.829ZM39.322 364.891C39.9584 364.891 40.4527 364.584 40.805 363.971C41.1572 363.357 41.3334 362.482 41.3334 361.346C41.3334 360.59 41.2524 359.947 41.0905 359.415C40.9314 358.884 40.7013 358.479 40.4001 358.201C40.1018 357.923 39.7425 357.783 39.322 357.783C38.6913 357.783 38.1984 358.094 37.8433 358.717C37.4882 359.336 37.3107 360.212 37.3107 361.346C37.3107 362.102 37.3902 362.744 37.5493 363.272C37.7084 363.8 37.9371 364.202 38.2354 364.478C38.5365 364.754 38.8987 364.891 39.322 364.891Z" fill="#848A9C"/>
<path d="M34.5354 333.829C34.0354 333.829 33.5852 333.729 33.1846 333.53C32.784 333.332 32.463 333.059 32.2215 332.712C31.98 332.366 31.8479 331.971 31.8252 331.528H32.8479C32.8877 331.923 33.0667 332.249 33.3849 332.508C33.7059 332.763 34.0894 332.891 34.5354 332.891C34.8934 332.891 35.2116 332.807 35.49 332.64C35.7712 332.472 35.9914 332.242 36.1505 331.95C36.3124 331.654 36.3934 331.32 36.3934 330.948C36.3934 330.567 36.3096 330.228 36.142 329.93C35.9772 329.629 35.7499 329.391 35.4602 329.218C35.1704 329.045 34.8394 328.957 34.4673 328.954C34.2002 328.951 33.9261 328.992 33.6448 329.077C33.3636 329.16 33.132 329.266 32.9502 329.397L31.9616 329.278L32.49 324.982H37.0241V325.92H33.3763L33.0695 328.494H33.1207C33.2996 328.352 33.5241 328.234 33.794 328.14C34.0638 328.046 34.3451 327.999 34.6377 327.999C35.1718 327.999 35.6477 328.127 36.0653 328.383C36.4857 328.636 36.8153 328.982 37.0539 329.423C37.2954 329.863 37.4161 330.366 37.4161 330.931C37.4161 331.488 37.2911 331.985 37.0411 332.423C36.794 332.857 36.4531 333.201 36.0184 333.454C35.5837 333.704 35.0894 333.829 34.5354 333.829ZM42.1399 333.829C41.4979 333.829 40.951 333.654 40.4993 333.305C40.0476 332.952 39.7024 332.442 39.4638 331.775C39.2251 331.104 39.1058 330.295 39.1058 329.346C39.1058 328.403 39.2251 327.597 39.4638 326.93C39.7053 326.259 40.0518 325.748 40.5036 325.396C40.9581 325.04 41.5036 324.863 42.1399 324.863C42.7763 324.863 43.3203 325.04 43.772 325.396C44.2266 325.748 44.5732 326.259 44.8118 326.93C45.0533 327.597 45.174 328.403 45.174 329.346C45.174 330.295 45.0547 331.104 44.8161 331.775C44.5774 332.442 44.2322 332.952 43.7805 333.305C43.3288 333.654 42.782 333.829 42.1399 333.829ZM42.1399 332.891C42.7763 332.891 43.2706 332.584 43.6229 331.971C43.9751 331.357 44.1513 330.482 44.1513 329.346C44.1513 328.59 44.0703 327.947 43.9084 327.415C43.7493 326.884 43.5192 326.479 43.218 326.201C42.9197 325.923 42.5604 325.783 42.1399 325.783C41.5092 325.783 41.0163 326.094 40.6612 326.717C40.3061 327.336 40.1286 328.212 40.1286 329.346C40.1286 330.102 40.2081 330.744 40.3672 331.272C40.5263 331.8 40.755 332.202 41.0533 332.478C41.3544 332.754 41.7166 332.891 42.1399 332.891Z" fill="#848A9C"/>
<path d="M33.7811 292.982V301.709H32.7243V294.09H32.6731L30.5425 295.505V294.431L32.7243 292.982H33.7811ZM39.322 301.829C38.68 301.829 38.1331 301.654 37.6814 301.305C37.2297 300.952 36.8845 300.442 36.6459 299.775C36.4072 299.104 36.2879 298.295 36.2879 297.346C36.2879 296.403 36.4072 295.597 36.6459 294.93C36.8874 294.259 37.2339 293.748 37.6857 293.396C38.1402 293.04 38.6857 292.863 39.322 292.863C39.9584 292.863 40.5024 293.04 40.9541 293.396C41.4087 293.748 41.7553 294.259 41.9939 294.93C42.2354 295.597 42.3561 296.403 42.3561 297.346C42.3561 298.295 42.2368 299.104 41.9982 299.775C41.7595 300.442 41.4143 300.952 40.9626 301.305C40.5109 301.654 39.9641 301.829 39.322 301.829ZM39.322 300.891C39.9584 300.891 40.4527 300.584 40.805 299.971C41.1572 299.357 41.3334 298.482 41.3334 297.346C41.3334 296.59 41.2524 295.947 41.0905 295.415C40.9314 294.884 40.7013 294.479 40.4001 294.201C40.1018 293.923 39.7425 293.783 39.322 293.783C38.6913 293.783 38.1984 294.094 37.8433 294.717C37.4882 295.336 37.3107 296.212 37.3107 297.346C37.3107 298.102 37.3902 298.744 37.5493 299.272C37.7084 299.8 37.9371 300.202 38.2354 300.478C38.5365 300.754 38.8987 300.891 39.322 300.891ZM47.0064 301.829C46.3644 301.829 45.8175 301.654 45.3658 301.305C44.9141 300.952 44.5689 300.442 44.3303 299.775C44.0916 299.104 43.9723 298.295 43.9723 297.346C43.9723 296.403 44.0916 295.597 44.3303 294.93C44.5717 294.259 44.9183 293.748 45.37 293.396C45.8246 293.04 46.37 292.863 47.0064 292.863C47.6428 292.863 48.1868 293.04 48.6385 293.396C49.093 293.748 49.4396 294.259 49.6783 294.93C49.9197 295.597 50.0405 296.403 50.0405 297.346C50.0405 298.295 49.9212 299.104 49.6825 299.775C49.4439 300.442 49.0987 300.952 48.647 301.305C48.1953 301.654 47.6484 301.829 47.0064 301.829ZM47.0064 300.891C47.6428 300.891 48.1371 300.584 48.4894 299.971C48.8416 299.357 49.0178 298.482 49.0178 297.346C49.0178 296.59 48.9368 295.947 48.7749 295.415C48.6158 294.884 48.3857 294.479 48.0845 294.201C47.7862 293.923 47.4269 293.783 47.0064 293.783C46.3757 293.783 45.8828 294.094 45.5277 294.717C45.1726 295.336 44.995 296.212 44.995 297.346C44.995 298.102 45.0746 298.744 45.2337 299.272C45.3928 299.8 45.6215 300.202 45.9197 300.478C46.2209 300.754 46.5831 300.891 47.0064 300.891Z" fill="#848A9C"/>
<path d="M33.7811 261.982V270.709H32.7243V263.09H32.6731L30.5425 264.505V263.431L32.7243 261.982H33.7811ZM39.2027 270.829C38.7027 270.829 38.2524 270.729 37.8518 270.53C37.4513 270.332 37.1303 270.059 36.8888 269.712C36.6473 269.366 36.5152 268.971 36.4925 268.528H37.5152C37.555 268.923 37.7339 269.249 38.0521 269.508C38.3732 269.763 38.7567 269.891 39.2027 269.891C39.5607 269.891 39.8788 269.807 40.1572 269.64C40.4385 269.472 40.6587 269.242 40.8178 268.95C40.9797 268.654 41.0607 268.32 41.0607 267.948C41.0607 267.567 40.9768 267.228 40.8092 266.93C40.6445 266.629 40.4172 266.391 40.1274 266.218C39.8376 266.045 39.5067 265.957 39.1345 265.954C38.8675 265.951 38.5933 265.992 38.3121 266.077C38.0308 266.16 37.7993 266.266 37.6175 266.397L36.6288 266.278L37.1572 261.982H41.6913V262.92H38.0436L37.7368 265.494H37.7879C37.9669 265.352 38.1913 265.234 38.4612 265.14C38.7311 265.046 39.0124 264.999 39.305 264.999C39.8391 264.999 40.3149 265.127 40.7325 265.383C41.153 265.636 41.4825 265.982 41.7212 266.423C41.9626 266.863 42.0834 267.366 42.0834 267.931C42.0834 268.488 41.9584 268.985 41.7084 269.423C41.4612 269.857 41.1203 270.201 40.6857 270.454C40.251 270.704 39.7567 270.829 39.2027 270.829ZM46.8072 270.829C46.1651 270.829 45.6183 270.654 45.1666 270.305C44.7148 269.952 44.3697 269.442 44.131 268.775C43.8924 268.104 43.7731 267.295 43.7731 266.346C43.7731 265.403 43.8924 264.597 44.131 263.93C44.3725 263.259 44.7191 262.748 45.1708 262.396C45.6254 262.04 46.1708 261.863 46.8072 261.863C47.4435 261.863 47.9876 262.04 48.4393 262.396C48.8938 262.748 49.2404 263.259 49.4791 263.93C49.7205 264.597 49.8413 265.403 49.8413 266.346C49.8413 267.295 49.722 268.104 49.4833 268.775C49.2447 269.442 48.8995 269.952 48.4478 270.305C47.9961 270.654 47.4492 270.829 46.8072 270.829ZM46.8072 269.891C47.4435 269.891 47.9379 269.584 48.2901 268.971C48.6424 268.357 48.8185 267.482 48.8185 266.346C48.8185 265.59 48.7376 264.947 48.5756 264.415C48.4166 263.884 48.1864 263.479 47.8853 263.201C47.587 262.923 47.2276 262.783 46.8072 262.783C46.1765 262.783 45.6836 263.094 45.3285 263.717C44.9734 264.336 44.7958 265.212 44.7958 266.346C44.7958 267.102 44.8754 267.744 45.0345 268.272C45.1935 268.8 45.4222 269.202 45.7205 269.478C46.0217 269.754 46.3839 269.891 46.8072 269.891Z" fill="#848A9C"/>
<path d="M33.4402 238.829C32.9402 238.829 32.4899 238.729 32.0893 238.53C31.6888 238.332 31.3677 238.059 31.1263 237.712C30.8848 237.366 30.7527 236.971 30.73 236.528H31.7527C31.7925 236.923 31.9714 237.249 32.2896 237.508C32.6106 237.763 32.9942 237.891 33.4402 237.891C33.7981 237.891 34.1163 237.807 34.3947 237.64C34.676 237.472 34.8962 237.242 35.0552 236.95C35.2172 236.654 35.2981 236.32 35.2981 235.948C35.2981 235.567 35.2143 235.228 35.0467 234.93C34.882 234.629 34.6547 234.391 34.3649 234.218C34.0751 234.045 33.7442 233.957 33.372 233.954C33.105 233.951 32.8308 233.992 32.5496 234.077C32.2683 234.16 32.0368 234.266 31.855 234.397L30.8663 234.278L31.3947 229.982H35.9288V230.92H32.2811L31.9743 233.494H32.0254C32.2044 233.352 32.4288 233.234 32.6987 233.14C32.9686 233.046 33.2499 232.999 33.5425 232.999C34.0766 232.999 34.5524 233.127 34.97 233.383C35.3905 233.636 35.72 233.982 35.9587 234.423C36.2001 234.863 36.3209 235.366 36.3209 235.931C36.3209 236.488 36.1959 236.985 35.9459 237.423C35.6987 237.857 35.3578 238.201 34.9231 238.454C34.4885 238.704 33.9942 238.829 33.4402 238.829ZM41.0447 238.829C40.4026 238.829 39.8558 238.654 39.404 238.305C38.9523 237.952 38.6072 237.442 38.3685 236.775C38.1299 236.104 38.0106 235.295 38.0106 234.346C38.0106 233.403 38.1299 232.597 38.3685 231.93C38.61 231.259 38.9566 230.748 39.4083 230.396C39.8629 230.04 40.4083 229.863 41.0447 229.863C41.681 229.863 42.2251 230.04 42.6768 230.396C43.1313 230.748 43.4779 231.259 43.7165 231.93C43.958 232.597 44.0788 233.403 44.0788 234.346C44.0788 235.295 43.9594 236.104 43.7208 236.775C43.4822 237.442 43.137 237.952 42.6853 238.305C42.2336 238.654 41.6867 238.829 41.0447 238.829ZM41.0447 237.891C41.681 237.891 42.1754 237.584 42.5276 236.971C42.8799 236.357 43.056 235.482 43.056 234.346C43.056 233.59 42.9751 232.947 42.8131 232.415C42.654 231.884 42.4239 231.479 42.1228 231.201C41.8245 230.923 41.4651 230.783 41.0447 230.783C40.414 230.783 39.9211 231.094 39.566 231.717C39.2109 232.336 39.0333 233.212 39.0333 234.346C39.0333 235.102 39.1129 235.744 39.2719 236.272C39.431 236.8 39.6597 237.202 39.958 237.478C40.2592 237.754 40.6214 237.891 41.0447 237.891ZM48.7291 238.829C48.087 238.829 47.5401 238.654 47.0884 238.305C46.6367 237.952 46.2916 237.442 46.0529 236.775C45.8143 236.104 45.695 235.295 45.695 234.346C45.695 233.403 45.8143 232.597 46.0529 231.93C46.2944 231.259 46.641 230.748 47.0927 230.396C47.5472 230.04 48.0927 229.863 48.7291 229.863C49.3654 229.863 49.9095 230.04 50.3612 230.396C50.8157 230.748 51.1623 231.259 51.4009 231.93C51.6424 232.597 51.7631 233.403 51.7631 234.346C51.7631 235.295 51.6438 236.104 51.4052 236.775C51.1666 237.442 50.8214 237.952 50.3697 238.305C49.918 238.654 49.3711 238.829 48.7291 238.829ZM48.7291 237.891C49.3654 237.891 49.8597 237.584 50.212 236.971C50.5643 236.357 50.7404 235.482 50.7404 234.346C50.7404 233.59 50.6595 232.947 50.4975 232.415C50.3384 231.884 50.1083 231.479 49.8072 231.201C49.5089 230.923 49.1495 230.783 48.7291 230.783C48.0984 230.783 47.6055 231.094 47.2504 231.717C46.8952 232.336 46.7177 233.212 46.7177 234.346C46.7177 235.102 46.7972 235.744 46.9563 236.272C47.1154 236.8 47.3441 237.202 47.6424 237.478C47.9435 237.754 48.3058 237.891 48.7291 237.891Z" fill="#848A9C"/>
<path d="M33.7811 197.982V206.709H32.7243V199.09H32.6731L30.5425 200.505V199.431L32.7243 197.982H33.7811ZM37.43 204.323L37.4129 203.079H37.6175L40.4811 200.164H41.7254L38.6743 203.249H38.5891L37.43 204.323ZM36.4925 206.709V197.982H37.4982V206.709H36.4925ZM40.6516 206.709L38.0947 203.471L38.8107 202.772L41.93 206.709H40.6516ZM45.2102 206.113V200.488H46.1648V206.113H45.2102ZM42.875 203.778V202.823H48.5V203.778H42.875Z" fill="#848A9C"/>
<g clip-path="url(#clip1_270_60326)">
<path d="M285.002 158.032L282.038 149.572H283.31L285.578 156.232L287.906 149.572H288.854L291.158 156.304L293.474 149.572H294.686L291.698 158.032H290.654L288.362 151.456L286.046 158.032H285.002ZM298.061 158.14C297.101 158.14 296.345 157.872 295.793 157.336C295.241 156.792 294.965 156.052 294.965 155.116C294.965 154.516 295.085 153.988 295.325 153.532C295.573 153.068 295.913 152.708 296.345 152.452C296.777 152.196 297.273 152.068 297.833 152.068C298.641 152.068 299.277 152.328 299.741 152.848C300.205 153.36 300.437 154.068 300.437 154.972V155.38H296.141C296.229 156.596 296.873 157.204 298.073 157.204C298.409 157.204 298.737 157.152 299.057 157.048C299.385 156.944 299.693 156.772 299.981 156.532L300.341 157.372C300.077 157.612 299.737 157.8 299.321 157.936C298.905 158.072 298.485 158.14 298.061 158.14ZM297.881 152.92C297.377 152.92 296.977 153.076 296.681 153.388C296.385 153.7 296.205 154.116 296.141 154.636H299.417C299.393 154.092 299.249 153.672 298.985 153.376C298.721 153.072 298.353 152.92 297.881 152.92ZM304.691 158.14C303.731 158.14 302.975 157.872 302.423 157.336C301.871 156.792 301.595 156.052 301.595 155.116C301.595 154.516 301.715 153.988 301.955 153.532C302.203 153.068 302.543 152.708 302.975 152.452C303.407 152.196 303.903 152.068 304.463 152.068C305.271 152.068 305.907 152.328 306.371 152.848C306.835 153.36 307.067 154.068 307.067 154.972V155.38H302.771C302.859 156.596 303.503 157.204 304.703 157.204C305.039 157.204 305.367 157.152 305.687 157.048C306.015 156.944 306.323 156.772 306.611 156.532L306.971 157.372C306.707 157.612 306.367 157.8 305.951 157.936C305.535 158.072 305.115 158.14 304.691 158.14ZM304.511 152.92C304.007 152.92 303.607 153.076 303.311 153.388C303.015 153.7 302.835 154.116 302.771 154.636H306.047C306.023 154.092 305.879 153.672 305.615 153.376C305.351 153.072 304.983 152.92 304.511 152.92ZM308.573 158.032V149.572H309.785V154.732H309.809L312.353 152.176H313.853L311.045 154.996L314.069 158.032H312.557L309.809 155.356H309.785V158.032H308.573ZM316.852 158.14C316.212 158.14 315.732 157.96 315.412 157.6C315.1 157.24 314.944 156.712 314.944 156.016V149.572H316.156V155.944C316.156 156.736 316.48 157.132 317.128 157.132C317.224 157.132 317.312 157.128 317.392 157.12C317.48 157.112 317.568 157.096 317.656 157.072L317.632 158.044C317.36 158.108 317.1 158.14 316.852 158.14ZM319.256 160.192L320.3 157.876L317.852 152.176H319.148L320.948 156.628L322.772 152.176H324.02L320.528 160.192H319.256Z" fill="#848A9C"/>
<path d="M340.896 153.258L337.024 157.135L333.152 153.258" stroke="#848A9C" stroke-linecap="round"/>
</g>
<rect x="267.976" y="140.048" width="86.619" height="26.4194" rx="12" stroke="#C4C8D3"/>
<path d="M30.5254 156.897V154.909H40.97V156.897H36.9239V168H34.5716V156.897H30.5254ZM42.1383 168V158.182H44.3819V159.818H44.4842C44.6631 159.251 44.97 158.815 45.4046 158.508C45.8435 158.197 46.3442 158.041 46.9067 158.041C47.0346 158.041 47.1773 158.048 47.335 158.06C47.4969 158.069 47.6312 158.084 47.7377 158.105V160.234C47.6397 160.2 47.4842 160.17 47.2711 160.144C47.0623 160.114 46.8599 160.099 46.6639 160.099C46.242 160.099 45.8627 160.191 45.5261 160.374C45.1937 160.553 44.9316 160.803 44.7398 161.122C44.5481 161.442 44.4522 161.81 44.4522 162.228V168H42.1383ZM52.2011 168.198C51.5789 168.198 51.0185 168.087 50.52 167.866C50.0256 167.64 49.6336 167.308 49.3438 166.869C49.0583 166.43 48.9156 165.888 48.9156 165.245C48.9156 164.691 49.0178 164.233 49.2224 163.871C49.4269 163.509 49.706 163.219 50.0597 163.001C50.4134 162.784 50.8119 162.62 51.2551 162.509C51.7025 162.394 52.1649 162.311 52.6421 162.26C53.2174 162.2 53.684 162.147 54.042 162.1C54.3999 162.049 54.6599 161.972 54.8218 161.87C54.988 161.763 55.0711 161.599 55.0711 161.378V161.339C55.0711 160.858 54.9283 160.485 54.6428 160.221C54.3573 159.957 53.9461 159.825 53.4092 159.825C52.8424 159.825 52.3928 159.948 52.0605 160.195C51.7323 160.442 51.5107 160.734 51.3957 161.071L49.2352 160.764C49.4056 160.168 49.6869 159.669 50.0789 159.268C50.471 158.864 50.9504 158.561 51.5171 158.361C52.0839 158.156 52.7103 158.054 53.3964 158.054C53.8694 158.054 54.3403 158.109 54.809 158.22C55.2778 158.331 55.706 158.514 56.0938 158.77C56.4816 159.021 56.7927 159.364 57.0271 159.799C57.2657 160.234 57.385 160.777 57.385 161.429V168H55.1606V166.651H55.0839C54.9433 166.924 54.7451 167.18 54.4894 167.418C54.238 167.653 53.9205 167.842 53.537 167.987C53.1578 168.128 52.7124 168.198 52.2011 168.198ZM52.8019 166.498C53.2664 166.498 53.6691 166.406 54.01 166.223C54.3509 166.036 54.613 165.788 54.7962 165.482C54.9837 165.175 55.0775 164.84 55.0775 164.478V163.321C55.0051 163.381 54.8815 163.436 54.7068 163.487C54.5363 163.538 54.3445 163.583 54.1315 163.621C53.9184 163.66 53.7075 163.694 53.4987 163.724C53.2899 163.754 53.1087 163.779 52.9553 163.8C52.6102 163.847 52.3012 163.924 52.0285 164.031C51.7558 164.137 51.5406 164.286 51.3829 164.478C51.2252 164.665 51.1464 164.908 51.1464 165.207C51.1464 165.633 51.3019 165.955 51.613 166.172C51.9241 166.389 52.3204 166.498 52.8019 166.498ZM62.3022 162.247V168H59.9883V158.182H62.1999V159.85H62.315C62.5409 159.3 62.9009 158.864 63.3953 158.54C63.8938 158.216 64.5096 158.054 65.2426 158.054C65.9201 158.054 66.5103 158.199 67.0132 158.489C67.5203 158.778 67.9123 159.198 68.1893 159.748C68.4705 160.298 68.609 160.964 68.6048 161.749V168H66.2909V162.107C66.2909 161.45 66.1204 160.937 65.7795 160.566C65.4428 160.195 64.9762 160.01 64.3796 160.01C63.9748 160.01 63.6147 160.099 63.2994 160.278C62.9883 160.453 62.7433 160.707 62.5643 161.039C62.3896 161.371 62.3022 161.774 62.3022 162.247ZM78.9936 160.777L76.8842 161.007C76.8245 160.794 76.7201 160.594 76.571 160.406C76.4261 160.219 76.2301 160.067 75.9829 159.952C75.7358 159.837 75.4332 159.78 75.0752 159.78C74.5937 159.78 74.1889 159.884 73.8608 160.093C73.5369 160.302 73.3771 160.572 73.3813 160.905C73.3771 161.19 73.4815 161.423 73.6946 161.602C73.9119 161.781 74.2698 161.928 74.7684 162.043L76.4431 162.401C77.3721 162.601 78.0625 162.918 78.5142 163.353C78.9701 163.788 79.2002 164.357 79.2045 165.06C79.2002 165.678 79.0191 166.223 78.6612 166.696C78.3075 167.165 77.8153 167.531 77.1846 167.795C76.5539 168.06 75.8295 168.192 75.0113 168.192C73.8096 168.192 72.8423 167.94 72.1093 167.438C71.3764 166.93 70.9396 166.225 70.799 165.322L73.0554 165.104C73.1576 165.548 73.375 165.882 73.7073 166.108C74.0397 166.334 74.4723 166.447 75.0049 166.447C75.5546 166.447 75.9957 166.334 76.3281 166.108C76.6647 165.882 76.8331 165.603 76.8331 165.271C76.8331 164.989 76.7244 164.757 76.5071 164.574C76.294 164.391 75.9616 164.25 75.5099 164.152L73.8352 163.8C72.8934 163.604 72.1967 163.274 71.745 162.81C71.2933 162.341 71.0696 161.749 71.0738 161.033C71.0696 160.428 71.2336 159.903 71.566 159.46C71.9027 159.013 72.3693 158.668 72.9659 158.425C73.5667 158.178 74.2592 158.054 75.0433 158.054C76.1938 158.054 77.0994 158.299 77.7599 158.789C78.4247 159.279 78.8359 159.942 78.9936 160.777ZM84.2144 168.198C83.5922 168.198 83.0319 168.087 82.5333 167.866C82.039 167.64 81.6469 167.308 81.3571 166.869C81.0716 166.43 80.9289 165.888 80.9289 165.245C80.9289 164.691 81.0311 164.233 81.2357 163.871C81.4402 163.509 81.7194 163.219 82.073 163.001C82.4267 162.784 82.8252 162.62 83.2684 162.509C83.7158 162.394 84.1782 162.311 84.6554 162.26C85.2307 162.2 85.6973 162.147 86.0553 162.1C86.4132 162.049 86.6732 161.972 86.8351 161.87C87.0013 161.763 87.0844 161.599 87.0844 161.378V161.339C87.0844 160.858 86.9417 160.485 86.6561 160.221C86.3706 159.957 85.9594 159.825 85.4225 159.825C84.8557 159.825 84.4061 159.948 84.0738 160.195C83.7456 160.442 83.524 160.734 83.409 161.071L81.2485 160.764C81.4189 160.168 81.7002 159.669 82.0922 159.268C82.4843 158.864 82.9637 158.561 83.5304 158.361C84.0972 158.156 84.7236 158.054 85.4097 158.054C85.8827 158.054 86.3536 158.109 86.8223 158.22C87.2911 158.331 87.7194 158.514 88.1071 158.77C88.4949 159.021 88.806 159.364 89.0404 159.799C89.279 160.234 89.3983 160.777 89.3983 161.429V168H87.1739V166.651H87.0972C86.9566 166.924 86.7584 167.18 86.5027 167.418C86.2513 167.653 85.9338 167.842 85.5503 167.987C85.1711 168.128 84.7257 168.198 84.2144 168.198ZM84.8152 166.498C85.2797 166.498 85.6824 166.406 86.0233 166.223C86.3642 166.036 86.6263 165.788 86.8096 165.482C86.9971 165.175 87.0908 164.84 87.0908 164.478V163.321C87.0184 163.381 86.8948 163.436 86.7201 163.487C86.5496 163.538 86.3579 163.583 86.1448 163.621C85.9317 163.66 85.7208 163.694 85.512 163.724C85.3032 163.754 85.1221 163.779 84.9686 163.8C84.6235 163.847 84.3145 163.924 84.0418 164.031C83.7691 164.137 83.5539 164.286 83.3962 164.478C83.2385 164.665 83.1597 164.908 83.1597 165.207C83.1597 165.633 83.3152 165.955 83.6263 166.172C83.9374 166.389 84.3337 166.498 84.8152 166.498ZM96.2843 168.192C95.3042 168.192 94.4625 167.977 93.7594 167.546C93.0606 167.116 92.5215 166.521 92.1422 165.763C91.7672 165 91.5797 164.122 91.5797 163.129C91.5797 162.132 91.7715 161.252 92.155 160.489C92.5385 159.722 93.0797 159.126 93.7786 158.7C94.4817 158.269 95.3127 158.054 96.2715 158.054C97.0684 158.054 97.7736 158.201 98.3873 158.495C99.0052 158.785 99.4973 159.196 99.8638 159.729C100.23 160.257 100.439 160.875 100.49 161.582H98.2786C98.1891 161.109 97.976 160.715 97.6394 160.4C97.307 160.08 96.8617 159.92 96.3035 159.92C95.8304 159.92 95.415 160.048 95.057 160.304C94.6991 160.555 94.4199 160.918 94.2196 161.391C94.0236 161.864 93.9256 162.43 93.9256 163.091C93.9256 163.76 94.0236 164.335 94.2196 164.817C94.4157 165.294 94.6905 165.663 95.0442 165.923C95.4022 166.178 95.8219 166.306 96.3035 166.306C96.6444 166.306 96.9491 166.242 97.2175 166.114C97.4902 165.982 97.7182 165.793 97.9015 165.545C98.0847 165.298 98.2104 164.998 98.2786 164.644H100.49C100.435 165.339 100.23 165.955 99.8766 166.491C99.5229 167.024 99.0414 167.442 98.432 167.744C97.8226 168.043 97.1067 168.192 96.2843 168.192ZM107.57 158.182V159.972H101.925V158.182H107.57ZM103.319 155.83H105.633V165.047C105.633 165.358 105.68 165.597 105.773 165.763C105.871 165.925 105.999 166.036 106.157 166.095C106.315 166.155 106.489 166.185 106.681 166.185C106.826 166.185 106.958 166.174 107.077 166.153C107.201 166.131 107.295 166.112 107.359 166.095L107.749 167.904C107.625 167.947 107.448 167.994 107.218 168.045C106.992 168.096 106.715 168.126 106.387 168.134C105.807 168.151 105.285 168.064 104.821 167.872C104.356 167.676 103.988 167.374 103.715 166.964C103.447 166.555 103.315 166.044 103.319 165.43V155.83ZM109.781 168V158.182H112.095V168H109.781ZM110.945 156.788C110.578 156.788 110.263 156.667 109.999 156.424C109.734 156.177 109.602 155.881 109.602 155.536C109.602 155.186 109.734 154.89 109.999 154.647C110.263 154.4 110.578 154.276 110.945 154.276C111.315 154.276 111.631 154.4 111.891 154.647C112.155 154.89 112.287 155.186 112.287 155.536C112.287 155.881 112.155 156.177 111.891 156.424C111.631 156.667 111.315 156.788 110.945 156.788ZM119.034 168.192C118.075 168.192 117.244 167.981 116.541 167.559C115.838 167.137 115.292 166.547 114.905 165.788C114.521 165.03 114.329 164.143 114.329 163.129C114.329 162.115 114.521 161.227 114.905 160.464C115.292 159.701 115.838 159.109 116.541 158.687C117.244 158.265 118.075 158.054 119.034 158.054C119.993 158.054 120.824 158.265 121.527 158.687C122.23 159.109 122.773 159.701 123.157 160.464C123.545 161.227 123.738 162.115 123.738 163.129C123.738 164.143 123.545 165.03 123.157 165.788C122.773 166.547 122.23 167.137 121.527 167.559C120.824 167.981 119.993 168.192 119.034 168.192ZM119.047 166.338C119.567 166.338 120.001 166.195 120.351 165.91C120.7 165.62 120.96 165.232 121.131 164.746C121.305 164.261 121.393 163.719 121.393 163.123C121.393 162.522 121.305 161.979 121.131 161.493C120.96 161.003 120.7 160.613 120.351 160.323C120.001 160.033 119.567 159.888 119.047 159.888C118.514 159.888 118.071 160.033 117.717 160.323C117.368 160.613 117.106 161.003 116.931 161.493C116.76 161.979 116.675 162.522 116.675 163.123C116.675 163.719 116.76 164.261 116.931 164.746C117.106 165.232 117.368 165.62 117.717 165.91C118.071 166.195 118.514 166.338 119.047 166.338ZM128.293 162.247V168H125.979V158.182H128.191V159.85H128.306C128.532 159.3 128.892 158.864 129.386 158.54C129.885 158.216 130.5 158.054 131.233 158.054C131.911 158.054 132.501 158.199 133.004 158.489C133.511 158.778 133.903 159.198 134.18 159.748C134.461 160.298 134.6 160.964 134.595 161.749V168H132.282V162.107C132.282 161.45 132.111 160.937 131.77 160.566C131.434 160.195 130.967 160.01 130.37 160.01C129.965 160.01 129.605 160.099 129.29 160.278C128.979 160.453 128.734 160.707 128.555 161.039C128.38 161.371 128.293 161.774 128.293 162.247ZM144.984 160.777L142.875 161.007C142.815 160.794 142.711 160.594 142.562 160.406C142.417 160.219 142.221 160.067 141.974 159.952C141.726 159.837 141.424 159.78 141.066 159.78C140.584 159.78 140.18 159.884 139.851 160.093C139.528 160.302 139.368 160.572 139.372 160.905C139.368 161.19 139.472 161.423 139.685 161.602C139.903 161.781 140.261 161.928 140.759 162.043L142.434 162.401C143.363 162.601 144.053 162.918 144.505 163.353C144.961 163.788 145.191 164.357 145.195 165.06C145.191 165.678 145.01 166.223 144.652 166.696C144.298 167.165 143.806 167.531 143.175 167.795C142.545 168.06 141.82 168.192 141.002 168.192C139.8 168.192 138.833 167.94 138.1 167.438C137.367 166.93 136.93 166.225 136.79 165.322L139.046 165.104C139.148 165.548 139.366 165.882 139.698 166.108C140.03 166.334 140.463 166.447 140.996 166.447C141.545 166.447 141.986 166.334 142.319 166.108C142.655 165.882 142.824 165.603 142.824 165.271C142.824 164.989 142.715 164.757 142.498 164.574C142.285 164.391 141.952 164.25 141.501 164.152L139.826 163.8C138.884 163.604 138.187 163.274 137.736 162.81C137.284 162.341 137.06 161.749 137.065 161.033C137.06 160.428 137.224 159.903 137.557 159.46C137.893 159.013 138.36 158.668 138.957 158.425C139.557 158.178 140.25 158.054 141.034 158.054C142.185 158.054 143.09 158.299 143.751 158.789C144.415 159.279 144.827 159.942 144.984 160.777Z" fill="#243465"/>
<g clip-path="url(#clip2_270_60326)">
<path d="M60.8295 396.067C60.7784 395.636 60.571 395.3 60.2074 395.062C59.8438 394.823 59.3977 394.704 58.8693 394.704C58.483 394.704 58.1449 394.766 57.8551 394.891C57.5682 395.016 57.3438 395.188 57.1818 395.407C57.0227 395.626 56.9432 395.874 56.9432 396.153C56.9432 396.386 56.9986 396.586 57.1094 396.753C57.223 396.918 57.3679 397.056 57.544 397.167C57.7202 397.275 57.9048 397.364 58.098 397.435C58.2912 397.503 58.4688 397.559 58.6307 397.601L59.517 397.84C59.7443 397.9 59.9972 397.982 60.2756 398.087C60.5568 398.192 60.8253 398.336 61.081 398.518C61.3395 398.697 61.5526 398.927 61.7202 399.208C61.8878 399.489 61.9716 399.834 61.9716 400.243C61.9716 400.715 61.848 401.141 61.6009 401.522C61.3565 401.903 60.9986 402.205 60.527 402.43C60.0582 402.654 59.4886 402.766 58.8182 402.766C58.1932 402.766 57.652 402.665 57.1946 402.464C56.7401 402.262 56.3821 401.981 56.1207 401.62C55.8622 401.259 55.7159 400.84 55.6818 400.363H56.7727C56.8011 400.692 56.9119 400.965 57.1051 401.181C57.3011 401.394 57.5483 401.553 57.8466 401.658C58.1477 401.761 58.4716 401.812 58.8182 401.812C59.2216 401.812 59.5838 401.746 59.9048 401.616C60.2259 401.482 60.4801 401.297 60.6676 401.062C60.8551 400.823 60.9489 400.545 60.9489 400.226C60.9489 399.937 60.8679 399.701 60.706 399.519C60.544 399.337 60.331 399.189 60.0668 399.076C59.8026 398.962 59.517 398.863 59.2102 398.778L58.1364 398.471C57.4545 398.275 56.9148 397.995 56.517 397.631C56.1193 397.268 55.9205 396.792 55.9205 396.204C55.9205 395.715 56.0526 395.289 56.3168 394.925C56.5838 394.559 56.9418 394.275 57.3906 394.073C57.8423 393.868 58.3466 393.766 58.9034 393.766C59.4659 393.766 59.9659 393.867 60.4034 394.069C60.8409 394.268 61.1875 394.54 61.4432 394.887C61.7017 395.234 61.8381 395.627 61.8523 396.067H60.8295ZM67.8822 399.937V396.067H68.8879V402.613H67.8822V401.505H67.814C67.6606 401.837 67.422 402.12 67.0981 402.353C66.7742 402.583 66.3651 402.698 65.8708 402.698C65.4617 402.698 65.0981 402.609 64.7799 402.43C64.4617 402.248 64.2117 401.975 64.0299 401.611C63.8481 401.245 63.7572 400.783 63.7572 400.226V396.067H64.7629V400.158C64.7629 400.636 64.8964 401.016 65.1634 401.3C65.4333 401.584 65.7771 401.726 66.1947 401.726C66.4447 401.726 66.6989 401.663 66.9575 401.535C67.2188 401.407 67.4376 401.211 67.6137 400.947C67.7927 400.682 67.8822 400.346 67.8822 399.937ZM71.9199 398.675V402.613H70.9142V396.067H71.8858V397.09H71.971C72.1244 396.758 72.3574 396.491 72.6699 396.289C72.9824 396.084 73.3858 395.982 73.8801 395.982C74.3233 395.982 74.7111 396.073 75.0435 396.255C75.3759 396.434 75.6344 396.707 75.819 397.073C76.0037 397.437 76.096 397.897 76.096 398.454V402.613H75.0904V398.522C75.0904 398.008 74.9568 397.607 74.6898 397.32C74.4227 397.03 74.0563 396.886 73.5904 396.886C73.2693 396.886 72.9824 396.955 72.7296 397.094C72.4796 397.234 72.2821 397.437 72.1372 397.704C71.9923 397.971 71.9199 398.295 71.9199 398.675Z" fill="#848A9C"/>
<path d="M103.152 393.886H104.413L107.379 401.13H107.482L110.448 393.886H111.709V402.613H110.72V395.982H110.635L107.908 402.613H106.953L104.226 395.982H104.141V402.613H103.152V393.886ZM116.535 402.749C115.944 402.749 115.426 402.609 114.98 402.327C114.536 402.046 114.19 401.653 113.94 401.147C113.693 400.641 113.569 400.05 113.569 399.374C113.569 398.692 113.693 398.097 113.94 397.589C114.19 397.08 114.536 396.685 114.98 396.404C115.426 396.123 115.944 395.982 116.535 395.982C117.126 395.982 117.643 396.123 118.086 396.404C118.532 396.685 118.879 397.08 119.126 397.589C119.376 398.097 119.501 398.692 119.501 399.374C119.501 400.05 119.376 400.641 119.126 401.147C118.879 401.653 118.532 402.046 118.086 402.327C117.643 402.609 117.126 402.749 116.535 402.749ZM116.535 401.846C116.984 401.846 117.353 401.731 117.643 401.501C117.933 401.27 118.147 400.968 118.286 400.593C118.426 400.218 118.495 399.812 118.495 399.374C118.495 398.937 118.426 398.529 118.286 398.151C118.147 397.773 117.933 397.468 117.643 397.235C117.353 397.002 116.984 396.886 116.535 396.886C116.086 396.886 115.717 397.002 115.427 397.235C115.137 397.468 114.923 397.773 114.784 398.151C114.644 398.529 114.575 398.937 114.575 399.374C114.575 399.812 114.644 400.218 114.784 400.593C114.923 400.968 115.137 401.27 115.427 401.501C115.717 401.731 116.086 401.846 116.535 401.846ZM122.226 398.675V402.613H121.22V396.067H122.192V397.09H122.277C122.431 396.758 122.664 396.491 122.976 396.289C123.289 396.084 123.692 395.982 124.186 395.982C124.629 395.982 125.017 396.073 125.35 396.255C125.682 396.434 125.941 396.707 126.125 397.073C126.31 397.437 126.402 397.897 126.402 398.454V402.613H125.397V398.522C125.397 398.008 125.263 397.607 124.996 397.32C124.729 397.03 124.362 396.886 123.897 396.886C123.576 396.886 123.289 396.955 123.036 397.094C122.786 397.234 122.588 397.437 122.443 397.704C122.299 397.971 122.226 398.295 122.226 398.675Z" fill="#848A9C"/>
<path d="M151.96 394.823V393.886H158.506V394.823H155.762V402.613H154.705V394.823H151.96ZM163.419 399.937V396.067H164.425V402.613H163.419V401.505H163.351C163.198 401.837 162.959 402.12 162.635 402.353C162.311 402.583 161.902 402.698 161.408 402.698C160.999 402.698 160.635 402.609 160.317 402.43C159.999 402.248 159.749 401.975 159.567 401.611C159.385 401.245 159.294 400.783 159.294 400.226V396.067H160.3V400.158C160.3 400.636 160.434 401.016 160.701 401.3C160.971 401.584 161.314 401.726 161.732 401.726C161.982 401.726 162.236 401.663 162.495 401.535C162.756 401.407 162.975 401.211 163.151 400.947C163.33 400.682 163.419 400.346 163.419 399.937ZM169.196 402.749C168.565 402.749 168.021 402.61 167.564 402.332C167.109 402.05 166.758 401.658 166.511 401.155C166.267 400.65 166.145 400.062 166.145 399.391C166.145 398.721 166.267 398.13 166.511 397.618C166.758 397.104 167.102 396.704 167.542 396.417C167.986 396.127 168.503 395.982 169.093 395.982C169.434 395.982 169.771 396.039 170.103 396.153C170.436 396.266 170.738 396.451 171.011 396.707C171.284 396.959 171.501 397.295 171.663 397.712C171.825 398.13 171.906 398.644 171.906 399.255V399.681H166.861V398.812H170.883C170.883 398.442 170.809 398.113 170.662 397.823C170.517 397.533 170.309 397.305 170.039 397.137C169.772 396.969 169.457 396.886 169.093 396.886C168.693 396.886 168.346 396.985 168.054 397.184C167.764 397.38 167.541 397.636 167.385 397.951C167.228 398.266 167.15 398.604 167.15 398.965V399.545C167.15 400.039 167.236 400.458 167.406 400.802C167.579 401.143 167.819 401.403 168.126 401.582C168.433 401.758 168.789 401.846 169.196 401.846C169.46 401.846 169.699 401.809 169.912 401.735C170.128 401.658 170.314 401.545 170.47 401.394C170.626 401.241 170.747 401.05 170.832 400.823L171.804 401.096C171.701 401.425 171.53 401.715 171.288 401.965C171.047 402.212 170.748 402.405 170.393 402.545C170.038 402.681 169.639 402.749 169.196 402.749Z" fill="#848A9C"/>
<path d="M198.928 402.613L196.541 393.886H197.615L199.439 400.993H199.524L201.382 393.886H202.575L204.433 400.993H204.519L206.343 393.886H207.416L205.03 402.613H203.939L202.013 395.658H201.945L200.019 402.613H198.928ZM210.916 402.749C210.285 402.749 209.741 402.61 209.284 402.332C208.829 402.05 208.479 401.658 208.231 401.155C207.987 400.65 207.865 400.062 207.865 399.391C207.865 398.721 207.987 398.13 208.231 397.618C208.479 397.104 208.822 396.704 209.263 396.417C209.706 396.127 210.223 395.982 210.814 395.982C211.155 395.982 211.491 396.039 211.824 396.153C212.156 396.266 212.459 396.451 212.731 396.707C213.004 396.959 213.222 397.295 213.383 397.712C213.545 398.13 213.626 398.644 213.626 399.255V399.681H208.581V398.812H212.604C212.604 398.442 212.53 398.113 212.382 397.823C212.237 397.533 212.03 397.305 211.76 397.137C211.493 396.969 211.177 396.886 210.814 396.886C210.413 396.886 210.067 396.985 209.774 397.184C209.484 397.38 209.261 397.636 209.105 397.951C208.949 398.266 208.871 398.604 208.871 398.965V399.545C208.871 400.039 208.956 400.458 209.126 400.802C209.3 401.143 209.54 401.403 209.847 401.582C210.153 401.758 210.51 401.846 210.916 401.846C211.18 401.846 211.419 401.809 211.632 401.735C211.848 401.658 212.034 401.545 212.19 401.394C212.347 401.241 212.467 401.05 212.552 400.823L213.524 401.096C213.422 401.425 213.25 401.715 213.008 401.965C212.767 402.212 212.469 402.405 212.114 402.545C211.758 402.681 211.359 402.749 210.916 402.749ZM217.812 402.749C217.267 402.749 216.785 402.611 216.368 402.336C215.95 402.057 215.623 401.665 215.387 401.16C215.152 400.651 215.034 400.05 215.034 399.357C215.034 398.67 215.152 398.073 215.387 397.567C215.623 397.062 215.951 396.671 216.372 396.395C216.792 396.12 217.278 395.982 217.829 395.982C218.255 395.982 218.592 396.053 218.839 396.195C219.089 396.334 219.279 396.493 219.41 396.672C219.544 396.849 219.647 396.993 219.721 397.107H219.806V393.886H220.812V402.613H219.841V401.607H219.721C219.647 401.726 219.542 401.877 219.406 402.059C219.27 402.238 219.075 402.398 218.822 402.54C218.569 402.68 218.233 402.749 217.812 402.749ZM217.949 401.846C218.352 401.846 218.693 401.741 218.971 401.53C219.25 401.317 219.461 401.023 219.606 400.648C219.751 400.27 219.824 399.834 219.824 399.34C219.824 398.851 219.752 398.424 219.61 398.057C219.468 397.688 219.258 397.401 218.98 397.197C218.701 396.989 218.358 396.886 217.949 396.886C217.522 396.886 217.167 396.995 216.883 397.214C216.602 397.43 216.39 397.724 216.248 398.096C216.109 398.465 216.039 398.88 216.039 399.34C216.039 399.806 216.11 400.229 216.252 400.61C216.397 400.988 216.61 401.289 216.892 401.513C217.176 401.735 217.528 401.846 217.949 401.846Z" fill="#848A9C"/>
<path d="M249.437 394.823V393.886H255.982V394.823H253.238V402.613H252.181V394.823H249.437ZM258.667 398.675V402.613H257.661V393.886H258.667V397.09H258.752C258.906 396.752 259.136 396.484 259.442 396.285C259.752 396.083 260.164 395.982 260.678 395.982C261.124 395.982 261.515 396.072 261.85 396.251C262.185 396.427 262.445 396.698 262.63 397.064C262.817 397.428 262.911 397.891 262.911 398.454V402.613H261.906V398.522C261.906 398.002 261.771 397.6 261.501 397.316C261.234 397.029 260.863 396.886 260.388 396.886C260.059 396.886 259.763 396.955 259.502 397.094C259.244 397.234 259.039 397.437 258.888 397.704C258.741 397.971 258.667 398.295 258.667 398.675ZM269.06 399.937V396.067H270.066V402.613H269.06V401.505H268.992C268.839 401.837 268.6 402.12 268.276 402.353C267.952 402.583 267.543 402.698 267.049 402.698C266.64 402.698 266.276 402.609 265.958 402.43C265.64 402.248 265.39 401.975 265.208 401.611C265.026 401.245 264.935 400.783 264.935 400.226V396.067H265.941V400.158C265.941 400.636 266.075 401.016 266.342 401.3C266.612 401.584 266.955 401.726 267.373 401.726C267.623 401.726 267.877 401.663 268.136 401.535C268.397 401.407 268.616 401.211 268.792 400.947C268.971 400.682 269.06 400.346 269.06 399.937Z" fill="#848A9C"/>
<path d="M295.914 402.613V393.886H301.147V394.823H296.971V397.772H300.755V398.709H296.971V402.613H295.914ZM302.935 402.613V396.067H303.906V397.056H303.974C304.094 396.732 304.31 396.469 304.622 396.268C304.935 396.066 305.287 395.965 305.679 395.965C305.753 395.965 305.845 395.966 305.956 395.969C306.067 395.972 306.151 395.976 306.207 395.982V397.005C306.173 396.996 306.095 396.984 305.973 396.966C305.854 396.947 305.727 396.937 305.594 396.937C305.276 396.937 304.991 397.003 304.741 397.137C304.494 397.268 304.298 397.449 304.153 397.682C304.011 397.913 303.94 398.175 303.94 398.471V402.613H302.935ZM307.584 402.613V396.067H308.59V402.613H307.584ZM308.095 394.976C307.899 394.976 307.73 394.91 307.588 394.776C307.449 394.643 307.379 394.482 307.379 394.295C307.379 394.107 307.449 393.947 307.588 393.813C307.73 393.68 307.899 393.613 308.095 393.613C308.291 393.613 308.459 393.68 308.598 393.813C308.74 393.947 308.811 394.107 308.811 394.295C308.811 394.482 308.74 394.643 308.598 394.776C308.459 394.91 308.291 394.976 308.095 394.976Z" fill="#848A9C"/>
<path d="M340.115 396.067C340.064 395.636 339.857 395.3 339.493 395.062C339.129 394.823 338.683 394.704 338.155 394.704C337.769 394.704 337.431 394.766 337.141 394.891C336.854 395.016 336.629 395.188 336.468 395.407C336.308 395.626 336.229 395.874 336.229 396.153C336.229 396.386 336.284 396.586 336.395 396.753C336.509 396.918 336.654 397.056 336.83 397.167C337.006 397.275 337.191 397.364 337.384 397.435C337.577 397.503 337.754 397.559 337.916 397.601L338.803 397.84C339.03 397.9 339.283 397.982 339.561 398.087C339.843 398.192 340.111 398.336 340.367 398.518C340.625 398.697 340.838 398.927 341.006 399.208C341.174 399.489 341.257 399.834 341.257 400.243C341.257 400.715 341.134 401.141 340.887 401.522C340.642 401.903 340.284 402.205 339.813 402.43C339.344 402.654 338.774 402.766 338.104 402.766C337.479 402.766 336.938 402.665 336.48 402.464C336.026 402.262 335.668 401.981 335.406 401.62C335.148 401.259 335.002 400.84 334.968 400.363H336.058C336.087 400.692 336.198 400.965 336.391 401.181C336.587 401.394 336.834 401.553 337.132 401.658C337.433 401.761 337.757 401.812 338.104 401.812C338.507 401.812 338.87 401.746 339.191 401.616C339.512 401.482 339.766 401.297 339.953 401.062C340.141 400.823 340.235 400.545 340.235 400.226C340.235 399.937 340.154 399.701 339.992 399.519C339.83 399.337 339.617 399.189 339.352 399.076C339.088 398.962 338.803 398.863 338.496 398.778L337.422 398.471C336.74 398.275 336.201 397.995 335.803 397.631C335.405 397.268 335.206 396.792 335.206 396.204C335.206 395.715 335.338 395.289 335.602 394.925C335.87 394.559 336.227 394.275 336.676 394.073C337.128 393.868 337.632 393.766 338.189 393.766C338.752 393.766 339.252 393.867 339.689 394.069C340.127 394.268 340.473 394.54 340.729 394.887C340.987 395.234 341.124 395.627 341.138 396.067H340.115ZM344.969 402.766C344.554 402.766 344.178 402.688 343.84 402.532C343.502 402.373 343.233 402.144 343.034 401.846C342.836 401.545 342.736 401.181 342.736 400.755C342.736 400.38 342.81 400.076 342.958 399.843C343.105 399.607 343.303 399.422 343.55 399.289C343.797 399.155 344.07 399.056 344.368 398.991C344.669 398.922 344.972 398.868 345.276 398.829C345.674 398.778 345.996 398.739 346.243 398.714C346.493 398.685 346.675 398.638 346.789 398.573C346.905 398.508 346.963 398.394 346.963 398.232V398.198C346.963 397.778 346.848 397.451 346.618 397.218C346.391 396.985 346.046 396.868 345.583 396.868C345.103 396.868 344.726 396.974 344.453 397.184C344.181 397.394 343.989 397.618 343.878 397.857L342.924 397.516C343.094 397.118 343.321 396.809 343.605 396.587C343.892 396.363 344.205 396.207 344.543 396.118C344.884 396.028 345.219 395.982 345.549 395.982C345.759 395.982 346 396.008 346.273 396.059C346.549 396.107 346.814 396.208 347.07 396.361C347.328 396.515 347.543 396.746 347.713 397.056C347.884 397.366 347.969 397.78 347.969 398.3V402.613H346.963V401.726H346.912C346.844 401.868 346.73 402.02 346.571 402.182C346.412 402.344 346.201 402.482 345.936 402.596C345.672 402.709 345.35 402.766 344.969 402.766ZM345.122 401.863C345.52 401.863 345.855 401.785 346.128 401.628C346.404 401.472 346.611 401.27 346.75 401.023C346.892 400.776 346.963 400.516 346.963 400.243V399.323C346.921 399.374 346.827 399.421 346.682 399.464C346.54 399.503 346.375 399.539 346.188 399.57C346.003 399.599 345.823 399.624 345.647 399.647C345.473 399.667 345.333 399.684 345.225 399.698C344.963 399.732 344.719 399.788 344.492 399.864C344.267 399.938 344.086 400.05 343.946 400.201C343.81 400.349 343.742 400.55 343.742 400.806C343.742 401.155 343.871 401.42 344.13 401.599C344.391 401.775 344.722 401.863 345.122 401.863ZM352.836 396.067V396.92H349.444V396.067H352.836ZM350.432 394.499H351.438V400.738C351.438 401.022 351.479 401.235 351.561 401.377C351.647 401.516 351.755 401.61 351.885 401.658C352.019 401.704 352.159 401.726 352.307 401.726C352.418 401.726 352.509 401.721 352.58 401.709C352.651 401.695 352.708 401.684 352.75 401.675L352.955 402.579C352.887 402.604 352.792 402.63 352.669 402.655C352.547 402.684 352.392 402.698 352.205 402.698C351.921 402.698 351.642 402.637 351.37 402.515C351.1 402.393 350.875 402.207 350.696 401.957C350.52 401.707 350.432 401.391 350.432 401.011V394.499Z" fill="#848A9C"/>
</g>
<g clip-path="url(#clip3_270_60326)">
<path d="M59.381 328.919C59.381 328.919 98.2446 329.636 115.786 328.919C133.327 328.202 140.287 290.903 162.333 290.903C184.38 290.903 187.38 331.992 211.071 331.992C234.763 331.992 239.806 289.123 259.81 289.123C279.813 289.123 294.31 316.574 303.071 317.122C311.833 317.671 344.691 317.122 344.691 317.122" stroke="#FF8C73" stroke-width="2"/>
<path opacity="0.05" fill-rule="evenodd" clip-rule="evenodd" d="M59.381 312.658C59.381 312.658 98.2446 283.394 115.786 282.677C133.327 281.96 140.287 308.451 162.333 308.451C184.38 308.451 187.38 265.677 211.071 265.677C234.763 265.677 235.137 229.937 258.426 229.937C281.714 229.937 294.31 273.903 303.071 274.451C311.833 275 344.69 274.451 344.69 274.451V369.871H59.381L59.381 312.658Z" fill="url(#paint0_linear_270_60326)"/>
<path d="M59.381 312.658C59.381 312.658 98.2446 283.394 115.786 282.677C133.327 281.96 140.287 308.451 162.333 308.451C184.38 308.451 187.38 265.677 211.071 265.677C234.763 265.677 236.521 229.937 259.81 229.937C283.098 229.937 294.31 273.903 303.071 274.451C311.833 275 344.691 274.451 344.691 274.451" stroke="#0C4AFF" stroke-width="2"/>
<path d="M259.81 369.871V239.354" stroke="#525252" stroke-width="2"/>
<path d="M265.381 229.483C265.381 232.567 262.885 235.064 259.81 235.064C256.734 235.064 254.238 232.567 254.238 229.483C254.238 226.4 256.734 223.903 259.81 223.903C262.885 223.903 265.381 226.4 265.381 229.483Z" fill="white" stroke="#525252" stroke-width="2"/>
<g filter="url(#filter2_d_270_60326)">
<path fill-rule="evenodd" clip-rule="evenodd" d="M228.048 187C228.048 183.686 230.734 181 234.048 181H285.91C289.223 181 291.91 183.686 291.91 187V205.643C291.91 208.957 289.228 211.643 285.914 211.643C279.902 211.643 271.249 211.643 269.193 211.643C265.966 211.643 264.483 218.29 260.561 218.29C256.638 218.29 254.719 211.643 251.139 211.643C248.856 211.643 240.092 211.643 234.043 211.643C230.729 211.643 228.048 208.957 228.048 205.643V187Z" fill="white"/>
<path fill-rule="evenodd" clip-rule="evenodd" d="M228.048 187C228.048 183.686 230.734 181 234.048 181H285.91C289.223 181 291.91 183.686 291.91 187V205.643C291.91 208.957 289.228 211.643 285.914 211.643C279.902 211.643 271.249 211.643 269.193 211.643C265.966 211.643 264.483 218.29 260.561 218.29C256.638 218.29 254.719 211.643 251.139 211.643C248.856 211.643 240.092 211.643 234.043 211.643C230.729 211.643 228.048 208.957 228.048 205.643V187Z" stroke="#EEEEEE"/>
</g>
<path d="M246.969 201.091V190.182H247.668V201.091H246.969ZM248.985 193.672C248.945 193.3 248.777 193.01 248.482 192.803C248.189 192.595 247.809 192.491 247.34 192.491C247.01 192.491 246.728 192.541 246.492 192.641C246.256 192.74 246.076 192.875 245.951 193.045C245.826 193.216 245.762 193.411 245.759 193.629C245.759 193.811 245.8 193.969 245.882 194.102C245.968 194.236 246.083 194.349 246.228 194.443C246.372 194.534 246.533 194.611 246.709 194.673C246.885 194.736 247.063 194.788 247.242 194.831L248.06 195.036C248.389 195.112 248.706 195.216 249.01 195.347C249.317 195.477 249.591 195.642 249.833 195.841C250.077 196.04 250.27 196.28 250.412 196.561C250.554 196.842 250.625 197.172 250.625 197.55C250.625 198.061 250.495 198.511 250.233 198.901C249.972 199.287 249.594 199.589 249.1 199.808C248.608 200.024 248.013 200.132 247.314 200.132C246.635 200.132 246.046 200.027 245.546 199.817C245.049 199.607 244.659 199.3 244.378 198.896C244.1 198.493 243.949 198.001 243.926 197.422H245.482C245.505 197.726 245.598 197.979 245.763 198.18C245.928 198.382 246.142 198.533 246.407 198.632C246.674 198.732 246.972 198.781 247.301 198.781C247.645 198.781 247.946 198.73 248.205 198.628C248.466 198.523 248.671 198.378 248.818 198.193C248.966 198.006 249.041 197.787 249.044 197.537C249.041 197.31 248.975 197.122 248.844 196.974C248.713 196.824 248.53 196.699 248.294 196.599C248.061 196.497 247.789 196.406 247.476 196.327L246.483 196.071C245.764 195.886 245.196 195.607 244.779 195.232C244.364 194.854 244.157 194.352 244.157 193.727C244.157 193.213 244.296 192.763 244.574 192.376C244.855 191.99 245.237 191.69 245.72 191.477C246.203 191.261 246.75 191.153 247.361 191.153C247.98 191.153 248.523 191.261 248.989 191.477C249.458 191.69 249.826 191.987 250.093 192.368C250.36 192.746 250.497 193.18 250.506 193.672H248.985ZM255.168 200.119C254.6 200.119 254.091 200.013 253.642 199.8C253.194 199.584 252.837 199.288 252.573 198.913C252.311 198.538 252.172 198.109 252.155 197.626H253.689C253.718 197.984 253.873 198.277 254.154 198.504C254.435 198.729 254.773 198.841 255.168 198.841C255.478 198.841 255.753 198.77 255.995 198.628C256.236 198.486 256.426 198.288 256.566 198.036C256.705 197.783 256.773 197.494 256.77 197.17C256.773 196.841 256.703 196.548 256.561 196.293C256.419 196.037 256.225 195.837 255.978 195.692C255.73 195.544 255.446 195.47 255.125 195.47C254.864 195.467 254.607 195.516 254.354 195.615C254.101 195.714 253.901 195.845 253.753 196.007L252.326 195.773L252.782 191.273H257.844V192.594H254.09L253.838 194.908H253.89C254.051 194.717 254.28 194.56 254.576 194.435C254.871 194.307 255.195 194.243 255.547 194.243C256.076 194.243 256.547 194.368 256.962 194.618C257.377 194.865 257.703 195.206 257.942 195.641C258.181 196.075 258.3 196.572 258.3 197.132C258.3 197.709 258.167 198.223 257.899 198.675C257.635 199.124 257.267 199.477 256.796 199.736C256.327 199.991 255.784 200.119 255.168 200.119ZM263.462 191.273V200H261.881V192.811H261.83L259.788 194.115V192.666L261.957 191.273H263.462ZM269.088 200.166C268.386 200.166 267.784 199.989 267.281 199.634C266.781 199.276 266.396 198.76 266.126 198.087C265.859 197.411 265.726 196.597 265.726 195.645C265.728 194.693 265.863 193.884 266.13 193.216C266.4 192.545 266.785 192.034 267.285 191.682C267.788 191.33 268.389 191.153 269.088 191.153C269.787 191.153 270.388 191.33 270.89 191.682C271.393 192.034 271.778 192.545 272.045 193.216C272.315 193.886 272.45 194.696 272.45 195.645C272.45 196.599 272.315 197.415 272.045 198.091C271.778 198.764 271.393 199.278 270.89 199.634C270.39 199.989 269.79 200.166 269.088 200.166ZM269.088 198.832C269.633 198.832 270.064 198.564 270.379 198.027C270.697 197.487 270.856 196.693 270.856 195.645C270.856 194.952 270.784 194.369 270.639 193.898C270.494 193.426 270.29 193.071 270.025 192.832C269.761 192.591 269.449 192.47 269.088 192.47C268.545 192.47 268.116 192.74 267.801 193.28C267.486 193.817 267.326 194.605 267.324 195.645C267.321 196.341 267.39 196.926 267.532 197.401C267.677 197.875 267.882 198.233 268.146 198.474C268.41 198.713 268.724 198.832 269.088 198.832Z" fill="#243465"/>
</g>
</g>
</g>
<g filter="url(#filter3_d_270_60326)">
<rect x="264" y="34" width="213" height="137" rx="16" fill="white"/>
<path d="M306.986 54H305.721L308.025 47.4545H309.489L311.796 54H310.531L308.782 48.7969H308.731L306.986 54ZM307.028 51.4336H310.479V52.386H307.028V51.4336ZM312.843 47.4545H314.294L316.237 52.1974H316.314L318.257 47.4545H319.708V54H318.57V49.5032H318.509L316.7 53.9808H315.85L314.041 49.4936H313.98V54H312.843V47.4545ZM327.032 50.7273C327.032 51.4325 326.9 52.0366 326.636 52.5394C326.374 53.0401 326.016 53.4237 325.562 53.69C325.11 53.9563 324.598 54.0895 324.025 54.0895C323.451 54.0895 322.938 53.9563 322.484 53.69C322.032 53.4215 321.674 53.0369 321.41 52.5362C321.148 52.0334 321.017 51.4304 321.017 50.7273C321.017 50.022 321.148 49.419 321.41 48.9183C321.674 48.4155 322.032 48.0309 322.484 47.7646C322.938 47.4982 323.451 47.3651 324.025 47.3651C324.598 47.3651 325.11 47.4982 325.562 47.7646C326.016 48.0309 326.374 48.4155 326.636 48.9183C326.9 49.419 327.032 50.022 327.032 50.7273ZM325.84 50.7273C325.84 50.2308 325.762 49.8121 325.607 49.4712C325.453 49.1282 325.24 48.8693 324.967 48.6946C324.695 48.5178 324.38 48.4293 324.025 48.4293C323.669 48.4293 323.354 48.5178 323.082 48.6946C322.809 48.8693 322.595 49.1282 322.439 49.4712C322.286 49.8121 322.209 50.2308 322.209 50.7273C322.209 51.2237 322.286 51.6435 322.439 51.9865C322.595 52.3274 322.809 52.5863 323.082 52.7631C323.354 52.9379 323.669 53.0252 324.025 53.0252C324.38 53.0252 324.695 52.9379 324.967 52.7631C325.24 52.5863 325.453 52.3274 325.607 51.9865C325.762 51.6435 325.84 51.2237 325.84 50.7273ZM332.463 47.4545H333.649V51.7308C333.649 52.1996 333.538 52.6119 333.317 52.9677C333.097 53.3235 332.788 53.6016 332.39 53.8018C331.992 54 331.526 54.0991 330.993 54.0991C330.459 54.0991 329.992 54 329.593 53.8018C329.195 53.6016 328.886 53.3235 328.667 52.9677C328.447 52.6119 328.337 52.1996 328.337 51.7308V47.4545H329.523V51.6317C329.523 51.9045 329.583 52.1474 329.702 52.3604C329.824 52.5735 329.994 52.7408 330.213 52.8622C330.433 52.9815 330.693 53.0412 330.993 53.0412C331.294 53.0412 331.554 52.9815 331.773 52.8622C331.995 52.7408 332.165 52.5735 332.284 52.3604C332.404 52.1474 332.463 51.9045 332.463 51.6317V47.4545ZM340.501 47.4545V54H339.447L336.362 49.5415H336.308V54H335.122V47.4545H336.183L339.264 51.9162H339.322V47.4545H340.501ZM341.69 48.4485V47.4545H346.912V48.4485H344.889V54H343.713V48.4485H341.69Z" fill="#848A9C"/>
<path d="M370.5 61H282.5V63H370.5V61Z" fill="black" fill-opacity="0.1" mask="url(#path-34-inside-1_270_60326)"/>
<path d="M403.748 49.663H402.553C402.519 49.467 402.456 49.2933 402.364 49.142C402.273 48.9886 402.159 48.8587 402.022 48.7521C401.886 48.6456 401.73 48.5657 401.556 48.5124C401.383 48.457 401.197 48.4293 400.996 48.4293C400.641 48.4293 400.325 48.5188 400.05 48.6978C399.776 48.8746 399.56 49.1346 399.405 49.4776C399.249 49.8185 399.172 50.2351 399.172 50.7273C399.172 51.228 399.249 51.6499 399.405 51.9929C399.563 52.3338 399.778 52.5916 400.05 52.7663C400.325 52.9389 400.64 53.0252 400.993 53.0252C401.189 53.0252 401.373 52.9996 401.543 52.9485C401.716 52.8952 401.87 52.8175 402.006 52.7152C402.145 52.6129 402.261 52.4872 402.355 52.3381C402.451 52.1889 402.517 52.0185 402.553 51.8267L403.748 51.8331C403.703 52.1442 403.607 52.4361 403.457 52.7088C403.31 52.9815 403.118 53.2223 402.879 53.4311C402.64 53.6378 402.361 53.7997 402.042 53.9169C401.722 54.032 401.367 54.0895 400.977 54.0895C400.402 54.0895 399.888 53.9563 399.437 53.69C398.985 53.4237 398.629 53.0391 398.369 52.5362C398.109 52.0334 397.979 51.4304 397.979 50.7273C397.979 50.022 398.11 49.419 398.373 48.9183C398.635 48.4155 398.991 48.0309 399.443 47.7646C399.895 47.4982 400.406 47.3651 400.977 47.3651C401.342 47.3651 401.68 47.4162 401.994 47.5185C402.307 47.6207 402.586 47.771 402.831 47.9691C403.076 48.1651 403.277 48.4059 403.435 48.6914C403.595 48.9748 403.699 49.2987 403.748 49.663ZM410.867 50.7273C410.867 51.4325 410.735 52.0366 410.471 52.5394C410.209 53.0401 409.851 53.4237 409.397 53.69C408.945 53.9563 408.433 54.0895 407.86 54.0895C407.287 54.0895 406.773 53.9563 406.319 53.69C405.868 53.4215 405.51 53.0369 405.245 52.5362C404.983 52.0334 404.852 51.4304 404.852 50.7273C404.852 50.022 404.983 49.419 405.245 48.9183C405.51 48.4155 405.868 48.0309 406.319 47.7646C406.773 47.4982 407.287 47.3651 407.86 47.3651C408.433 47.3651 408.945 47.4982 409.397 47.7646C409.851 48.0309 410.209 48.4155 410.471 48.9183C410.735 49.419 410.867 50.022 410.867 50.7273ZM409.675 50.7273C409.675 50.2308 409.597 49.8121 409.442 49.4712C409.288 49.1282 409.075 48.8693 408.803 48.6946C408.53 48.5178 408.216 48.4293 407.86 48.4293C407.504 48.4293 407.19 48.5178 406.917 48.6946C406.644 48.8693 406.43 49.1282 406.274 49.4712C406.121 49.8121 406.044 50.2308 406.044 50.7273C406.044 51.2237 406.121 51.6435 406.274 51.9865C406.43 52.3274 406.644 52.5863 406.917 52.7631C407.19 52.9379 407.504 53.0252 407.86 53.0252C408.216 53.0252 408.53 52.9379 408.803 52.7631C409.075 52.5863 409.288 52.3274 409.442 51.9865C409.597 51.6435 409.675 51.2237 409.675 50.7273ZM416.299 47.4545H417.484V51.7308C417.484 52.1996 417.374 52.6119 417.152 52.9677C416.933 53.3235 416.624 53.6016 416.225 53.8018C415.827 54 415.361 54.0991 414.828 54.0991C414.294 54.0991 413.827 54 413.429 53.8018C413.03 53.6016 412.721 53.3235 412.502 52.9677C412.282 52.6119 412.173 52.1996 412.173 51.7308V47.4545H413.358V51.6317C413.358 51.9045 413.418 52.1474 413.537 52.3604C413.659 52.5735 413.829 52.7408 414.049 52.8622C414.268 52.9815 414.528 53.0412 414.828 53.0412C415.129 53.0412 415.389 52.9815 415.608 52.8622C415.83 52.7408 416 52.5735 416.12 52.3604C416.239 52.1474 416.299 51.9045 416.299 51.6317V47.4545ZM424.336 47.4545V54H423.282L420.198 49.5415H420.143V54H418.958V47.4545H420.019L423.1 51.9162H423.157V47.4545H424.336ZM425.525 48.4485V47.4545H430.747V48.4485H428.724V54H427.548V48.4485H425.525Z" fill="black" fill-opacity="0.84"/>
<path d="M458.5 61H370.5V63H458.5V61Z" fill="#0C4AFF" mask="url(#path-37-inside-2_270_60326)"/>
<circle cx="287" cy="83.5" r="4" fill="#0C4AFF"/>
<path d="M296.486 87H295.221L297.525 80.4545H298.989L301.296 87H300.031L298.282 81.7969H298.231L296.486 87ZM296.528 84.4336H299.979V85.386H296.528V84.4336ZM302.343 87V80.4545H304.797C305.3 80.4545 305.722 80.5483 306.063 80.7358C306.406 80.9233 306.665 81.1811 306.839 81.5092C307.016 81.8352 307.105 82.206 307.105 82.6214C307.105 83.0412 307.016 83.4141 306.839 83.7401C306.663 84.0661 306.402 84.3228 306.056 84.5103C305.711 84.6957 305.286 84.7884 304.781 84.7884H303.154V83.8136H304.621C304.915 83.8136 305.156 83.7624 305.344 83.6602C305.531 83.5579 305.67 83.4173 305.759 83.2383C305.851 83.0593 305.897 82.8537 305.897 82.6214C305.897 82.3892 305.851 82.1847 305.759 82.0078C305.67 81.831 305.53 81.6935 305.341 81.5955C305.153 81.4954 304.911 81.4453 304.615 81.4453H303.528V87H302.343ZM308.319 87V80.4545H310.774C311.276 80.4545 311.698 80.5483 312.039 80.7358C312.382 80.9233 312.641 81.1811 312.816 81.5092C312.993 81.8352 313.081 82.206 313.081 82.6214C313.081 83.0412 312.993 83.4141 312.816 83.7401C312.639 84.0661 312.378 84.3228 312.033 84.5103C311.688 84.6957 311.263 84.7884 310.758 84.7884H309.131V83.8136H310.598C310.892 83.8136 311.133 83.7624 311.32 83.6602C311.508 83.5579 311.646 83.4173 311.736 83.2383C311.827 83.0593 311.873 82.8537 311.873 82.6214C311.873 82.3892 311.827 82.1847 311.736 82.0078C311.646 81.831 311.507 81.6935 311.317 81.5955C311.129 81.4954 310.888 81.4453 310.591 81.4453H309.505V87H308.319ZM314.295 87V80.4545H316.75C317.253 80.4545 317.675 80.5419 318.016 80.7166C318.359 80.8913 318.618 81.1364 318.792 81.4517C318.969 81.7649 319.057 82.1303 319.057 82.5479C319.057 82.9677 318.968 83.332 318.789 83.641C318.612 83.9478 318.351 84.1854 318.006 84.3537C317.661 84.5199 317.237 84.603 316.734 84.603H314.986V83.6186H316.574C316.868 83.6186 317.109 83.5781 317.296 83.4972C317.484 83.4141 317.622 83.2937 317.712 83.136C317.804 82.9762 317.849 82.7802 317.849 82.5479C317.849 82.3157 317.804 82.1175 317.712 81.9535C317.62 81.7873 317.481 81.6616 317.293 81.5763C317.106 81.489 316.864 81.4453 316.568 81.4453H315.481V87H314.295ZM317.677 84.0341L319.297 87H317.974L316.382 84.0341H317.677ZM326.182 83.7273C326.182 84.4325 326.05 85.0366 325.786 85.5394C325.524 86.0401 325.166 86.4237 324.712 86.69C324.26 86.9563 323.748 87.0895 323.175 87.0895C322.601 87.0895 322.088 86.9563 321.634 86.69C321.182 86.4215 320.824 86.0369 320.56 85.5362C320.298 85.0334 320.167 84.4304 320.167 83.7273C320.167 83.022 320.298 82.419 320.56 81.9183C320.824 81.4155 321.182 81.0309 321.634 80.7646C322.088 80.4982 322.601 80.3651 323.175 80.3651C323.748 80.3651 324.26 80.4982 324.712 80.7646C325.166 81.0309 325.524 81.4155 325.786 81.9183C326.05 82.419 326.182 83.022 326.182 83.7273ZM324.99 83.7273C324.99 83.2308 324.912 82.8121 324.757 82.4712C324.603 82.1282 324.39 81.8693 324.117 81.6946C323.845 81.5178 323.53 81.4293 323.175 81.4293C322.819 81.4293 322.504 81.5178 322.232 81.6946C321.959 81.8693 321.745 82.1282 321.589 82.4712C321.436 82.8121 321.359 83.2308 321.359 83.7273C321.359 84.2237 321.436 84.6435 321.589 84.9865C321.745 85.3274 321.959 85.5863 322.232 85.7631C322.504 85.9379 322.819 86.0252 323.175 86.0252C323.53 86.0252 323.845 85.9379 324.117 85.7631C324.39 85.5863 324.603 85.3274 324.757 84.9865C324.912 84.6435 324.99 84.2237 324.99 83.7273ZM328.012 80.4545L329.715 85.6065H329.782L331.482 80.4545H332.786L330.479 87H329.015L326.711 80.4545H328.012ZM333.833 87V80.4545H338.09V81.4485H335.019V83.2255H337.87V84.2195H335.019V86.006H338.116V87H333.833Z" fill="#848A9C"/>
<path d="M283.452 100V99.3338L285.22 97.6012C285.389 97.4305 285.53 97.2789 285.642 97.1463C285.755 97.0137 285.84 96.8853 285.896 96.761C285.952 96.6367 285.98 96.5041 285.98 96.3633C285.98 96.2025 285.944 96.065 285.871 95.9506C285.798 95.8346 285.698 95.7451 285.57 95.6822C285.443 95.6192 285.298 95.5877 285.135 95.5877C284.968 95.5877 284.821 95.6225 284.695 95.6921C284.569 95.7601 284.472 95.857 284.402 95.983C284.334 96.1089 284.3 96.2589 284.3 96.4329H283.423C283.423 96.1097 283.496 95.8288 283.644 95.5902C283.791 95.3516 283.994 95.1668 284.253 95.0359C284.513 94.9049 284.811 94.8395 285.148 94.8395C285.489 94.8395 285.789 94.9033 286.048 95.0309C286.306 95.1585 286.507 95.3333 286.649 95.5554C286.793 95.7775 286.865 96.031 286.865 96.3161C286.865 96.5066 286.829 96.6939 286.756 96.8778C286.683 97.0618 286.555 97.2656 286.371 97.4893C286.188 97.7131 285.932 97.984 285.603 98.3022L284.725 99.1946V99.2294H286.942V100H283.452ZM289.051 99.304L289.019 99.5774C288.995 99.7862 288.954 99.9983 288.894 100.214C288.836 100.431 288.775 100.631 288.71 100.813C288.646 100.995 288.593 101.138 288.554 101.243H287.947C287.97 101.142 288.002 101.004 288.042 100.83C288.083 100.656 288.123 100.461 288.161 100.244C288.199 100.027 288.225 99.8061 288.238 99.5824L288.255 99.304H289.051ZM291.942 100.07C291.61 100.07 291.314 100.007 291.052 99.8832C290.79 99.7572 290.582 99.5849 290.428 99.3661C290.275 99.1474 290.194 98.8971 290.184 98.6154H291.079C291.096 98.8242 291.186 98.9949 291.35 99.1275C291.514 99.2584 291.711 99.3239 291.942 99.3239C292.122 99.3239 292.283 99.2824 292.424 99.1996C292.565 99.1167 292.676 99.0015 292.757 98.854C292.838 98.7066 292.878 98.5384 292.876 98.3494C292.878 98.1572 292.837 97.9865 292.755 97.8374C292.672 97.6882 292.558 97.5714 292.414 97.4869C292.27 97.4007 292.104 97.3576 291.917 97.3576C291.764 97.3559 291.614 97.3841 291.467 97.4421C291.319 97.5001 291.203 97.5763 291.116 97.6708L290.284 97.5341L290.55 94.9091H293.503V95.6797H291.313L291.166 97.0295H291.196C291.29 96.9184 291.424 96.8265 291.596 96.7536C291.768 96.679 291.957 96.6417 292.163 96.6417C292.471 96.6417 292.746 96.7146 292.988 96.8604C293.23 97.0046 293.421 97.2035 293.56 97.457C293.699 97.7106 293.769 98.0006 293.769 98.3271C293.769 98.6635 293.691 98.9634 293.535 99.2269C293.381 99.4888 293.166 99.6951 292.891 99.8459C292.618 99.995 292.301 100.07 291.942 100.07ZM296.856 94.9091V100H295.934V95.8065H295.904L294.714 96.5671V95.7219L295.979 94.9091H296.856ZM300.198 100.07C299.954 100.068 299.716 100.026 299.484 99.9428C299.252 99.8583 299.044 99.7216 298.858 99.5327C298.672 99.3421 298.525 99.0894 298.416 98.7745C298.306 98.458 298.252 98.0661 298.254 97.5987C298.254 97.1629 298.3 96.7743 298.393 96.4329C298.486 96.0915 298.619 95.8031 298.793 95.5678C298.967 95.3308 299.177 95.1502 299.422 95.0259C299.669 94.9016 299.945 94.8395 300.25 94.8395C300.57 94.8395 300.853 94.9025 301.1 95.0284C301.349 95.1544 301.549 95.3267 301.702 95.5455C301.854 95.7625 301.949 96.0078 301.985 96.2812H301.078C301.031 96.0857 300.936 95.9299 300.792 95.8139C300.649 95.6963 300.469 95.6374 300.25 95.6374C299.897 95.6374 299.625 95.7907 299.435 96.0973C299.246 96.4039 299.15 96.8248 299.149 97.3601H299.184C299.265 97.2143 299.37 97.0891 299.499 96.9847C299.629 96.8803 299.774 96.8 299.937 96.7436C300.101 96.6856 300.274 96.6566 300.456 96.6566C300.755 96.6566 301.022 96.7279 301.259 96.8704C301.498 97.0129 301.687 97.2093 301.826 97.4595C301.965 97.7081 302.034 97.9931 302.032 98.3146C302.034 98.6494 301.958 98.9502 301.804 99.217C301.65 99.4821 301.435 99.6909 301.16 99.8434C300.885 99.9959 300.564 100.071 300.198 100.07ZM300.193 99.3239C300.374 99.3239 300.535 99.2799 300.678 99.1921C300.82 99.1043 300.933 98.9858 301.016 98.8366C301.099 98.6875 301.139 98.5201 301.137 98.3345C301.139 98.1522 301.099 97.9873 301.018 97.8398C300.939 97.6924 300.828 97.5755 300.688 97.4893C300.547 97.4032 300.386 97.3601 300.205 97.3601C300.071 97.3601 299.946 97.3858 299.83 97.4371C299.714 97.4885 299.613 97.5598 299.527 97.6509C299.441 97.7404 299.373 97.8448 299.323 97.9641C299.275 98.0818 299.25 98.2077 299.248 98.342C299.25 98.5193 299.291 98.6825 299.373 98.8317C299.454 98.9808 299.566 99.1001 299.708 99.1896C299.851 99.2791 300.012 99.3239 300.193 99.3239ZM303.905 99.304L303.872 99.5774C303.849 99.7862 303.808 99.9983 303.748 100.214C303.69 100.431 303.629 100.631 303.564 100.813C303.499 100.995 303.447 101.138 303.407 101.243H302.801C302.824 101.142 302.856 101.004 302.895 100.83C302.937 100.656 302.977 100.461 303.015 100.244C303.053 100.027 303.078 99.8061 303.092 99.5824L303.109 99.304H303.905ZM306.529 94.9091V100H305.607V95.8065H305.577L304.386 96.5671V95.7219L305.651 94.9091H306.529ZM308.006 100V99.3338L309.773 97.6012C309.942 97.4305 310.083 97.2789 310.196 97.1463C310.308 97.0137 310.393 96.8853 310.449 96.761C310.506 96.6367 310.534 96.5041 310.534 96.3633C310.534 96.2025 310.497 96.065 310.424 95.9506C310.352 95.8346 310.251 95.7451 310.124 95.6822C309.996 95.6192 309.851 95.5877 309.689 95.5877C309.521 95.5877 309.375 95.6225 309.249 95.6921C309.123 95.7601 309.025 95.857 308.955 95.983C308.887 96.1089 308.853 96.2589 308.853 96.4329H307.976C307.976 96.1097 308.05 95.8288 308.197 95.5902C308.345 95.3516 308.548 95.1668 308.806 95.0359C309.066 94.9049 309.365 94.8395 309.701 94.8395C310.042 94.8395 310.342 94.9033 310.601 95.0309C310.859 95.1585 311.06 95.3333 311.203 95.5554C311.347 95.7775 311.419 96.031 311.419 96.3161C311.419 96.5066 311.382 96.6939 311.309 96.8778C311.236 97.0618 311.108 97.2656 310.924 97.4893C310.742 97.7131 310.486 97.984 310.156 98.3022L309.279 99.1946V99.2294H311.496V100H308.006ZM314.365 100.07C314.007 100.07 313.689 100.008 313.41 99.8857C313.134 99.763 312.915 99.5923 312.754 99.3736C312.593 99.1548 312.508 98.9021 312.498 98.6154H313.433C313.441 98.753 313.487 98.8731 313.569 98.9759C313.652 99.0769 313.762 99.1557 313.9 99.212C314.038 99.2683 314.192 99.2965 314.362 99.2965C314.545 99.2965 314.706 99.265 314.847 99.2021C314.988 99.1374 315.098 99.0479 315.178 98.9336C315.257 98.8192 315.296 98.6875 315.295 98.5384C315.296 98.3842 315.256 98.2483 315.175 98.1307C315.094 98.013 314.976 97.921 314.822 97.8548C314.67 97.7885 314.486 97.7553 314.27 97.7553H313.82V97.0444H314.27C314.448 97.0444 314.603 97.0137 314.735 96.9524C314.869 96.8911 314.975 96.8049 315.051 96.6939C315.127 96.5812 315.164 96.4511 315.163 96.3036C315.164 96.1594 315.132 96.0343 315.066 95.9283C315.001 95.8205 314.909 95.7369 314.79 95.6772C314.672 95.6175 314.534 95.5877 314.375 95.5877C314.219 95.5877 314.075 95.6159 313.942 95.6722C313.81 95.7286 313.703 95.8089 313.622 95.9134C313.54 96.0161 313.497 96.1387 313.492 96.2812H312.605C312.612 95.9962 312.694 95.746 312.851 95.5305C313.01 95.3134 313.222 95.1444 313.487 95.0234C313.753 94.9008 314.05 94.8395 314.38 94.8395C314.72 94.8395 315.014 94.9033 315.265 95.0309C315.517 95.1568 315.711 95.3267 315.849 95.5405C315.986 95.7543 316.055 95.9904 316.055 96.2489C316.057 96.5356 315.972 96.7759 315.802 96.9698C315.633 97.1637 315.411 97.2905 315.135 97.3501V97.3899C315.493 97.4396 315.768 97.5722 315.958 97.7876C316.151 98.0014 316.246 98.2674 316.244 98.5856C316.244 98.8706 316.163 99.1258 316.001 99.3512C315.84 99.5749 315.618 99.7506 315.334 99.8782C315.053 100.006 314.729 100.07 314.365 100.07Z" fill="#848A9C"/>
<path d="M322.964 99.1847V95.7443H323.744V99.1847H322.964ZM321.634 97.8548V97.0742H325.074V97.8548H321.634ZM326.255 99.0554V98.3221L328.415 94.9091H329.026V95.9531H328.654L327.199 98.2575V98.2972H330.215V99.0554H326.255ZM328.683 100V98.8317L328.693 98.5036V94.9091H329.563V100H328.683ZM332.116 99.304L332.084 99.5774C332.061 99.7862 332.019 99.9983 331.959 100.214C331.901 100.431 331.84 100.631 331.776 100.813C331.711 100.995 331.659 101.138 331.619 101.243H331.012C331.036 101.142 331.067 101.004 331.107 100.83C331.148 100.656 331.188 100.461 331.226 100.244C331.264 100.027 331.29 99.8061 331.303 99.5824L331.321 99.304H332.116ZM335.007 100.07C334.675 100.07 334.379 100.007 334.117 99.8832C333.855 99.7572 333.647 99.5849 333.493 99.3661C333.341 99.1474 333.259 98.8971 333.249 98.6154H334.144C334.161 98.8242 334.251 98.9949 334.415 99.1275C334.579 99.2584 334.777 99.3239 335.007 99.3239C335.188 99.3239 335.348 99.2824 335.489 99.1996C335.63 99.1167 335.741 99.0015 335.822 98.854C335.903 98.7066 335.943 98.5384 335.942 98.3494C335.943 98.1572 335.903 97.9865 335.82 97.8374C335.737 97.6882 335.623 97.5714 335.479 97.4869C335.335 97.4007 335.169 97.3576 334.982 97.3576C334.83 97.3559 334.68 97.3841 334.532 97.4421C334.385 97.5001 334.268 97.5763 334.182 97.6708L333.349 97.5341L333.615 94.9091H336.568V95.6797H334.378L334.231 97.0295H334.261C334.356 96.9184 334.489 96.8265 334.661 96.7536C334.834 96.679 335.023 96.6417 335.228 96.6417C335.536 96.6417 335.811 96.7146 336.053 96.8604C336.295 97.0046 336.486 97.2035 336.625 97.457C336.764 97.7106 336.834 98.0006 336.834 98.3271C336.834 98.6635 336.756 98.9634 336.6 99.2269C336.446 99.4888 336.232 99.6951 335.956 99.8459C335.683 99.995 335.367 100.07 335.007 100.07ZM340.573 99.0455V98.777C340.573 98.5798 340.614 98.3983 340.697 98.2326C340.782 98.0669 340.904 97.9335 341.065 97.8324C341.226 97.7313 341.421 97.6808 341.649 97.6808C341.885 97.6808 342.082 97.7313 342.241 97.8324C342.4 97.9318 342.52 98.0644 342.601 98.2301C342.684 98.3958 342.726 98.5781 342.726 98.777V99.0455C342.726 99.2427 342.684 99.4241 342.601 99.5898C342.519 99.7556 342.397 99.889 342.236 99.9901C342.077 100.091 341.881 100.142 341.649 100.142C341.417 100.142 341.221 100.091 341.06 99.9901C340.899 99.889 340.778 99.7556 340.695 99.5898C340.614 99.4241 340.573 99.2427 340.573 99.0455ZM341.222 98.777V99.0455C341.222 99.1764 341.253 99.2965 341.316 99.4059C341.379 99.5153 341.49 99.57 341.649 99.57C341.81 99.57 341.92 99.5161 341.98 99.4084C342.041 99.299 342.072 99.178 342.072 99.0455V98.777C342.072 98.6444 342.043 98.5234 341.985 98.4141C341.927 98.303 341.815 98.2475 341.649 98.2475C341.494 98.2475 341.383 98.303 341.319 98.4141C341.254 98.5234 341.222 98.6444 341.222 98.777ZM337.985 96.1321V95.8636C337.985 95.6648 338.028 95.4825 338.112 95.3168C338.197 95.151 338.319 95.0185 338.48 94.919C338.641 94.8179 338.835 94.7674 339.064 94.7674C339.298 94.7674 339.494 94.8179 339.653 94.919C339.814 95.0185 339.935 95.151 340.016 95.3168C340.097 95.4825 340.138 95.6648 340.138 95.8636V96.1321C340.138 96.331 340.097 96.5133 340.014 96.679C339.933 96.843 339.812 96.9748 339.651 97.0742C339.49 97.1737 339.294 97.2234 339.064 97.2234C338.83 97.2234 338.633 97.1737 338.473 97.0742C338.313 96.9748 338.192 96.8422 338.11 96.6765C338.027 96.5108 337.985 96.3293 337.985 96.1321ZM338.639 95.8636V96.1321C338.639 96.2647 338.67 96.3857 338.731 96.495C338.794 96.6027 338.905 96.6566 339.064 96.6566C339.223 96.6566 339.333 96.6027 339.392 96.495C339.454 96.3857 339.484 96.2647 339.484 96.1321V95.8636C339.484 95.7311 339.455 95.6101 339.397 95.5007C339.339 95.3897 339.228 95.3342 339.064 95.3342C338.907 95.3342 338.797 95.3897 338.734 95.5007C338.671 95.6117 338.639 95.7327 338.639 95.8636ZM338.269 100L341.769 94.9091H342.39L338.89 100H338.269Z" fill="#1CB43D"/>
<path d="M436.693 98.1193C436.275 98.1165 435.867 98.044 435.47 97.902C435.072 97.7571 434.714 97.5227 434.396 97.1989C434.078 96.8722 433.825 96.4389 433.637 95.8991C433.45 95.3565 433.357 94.6847 433.36 93.8835C433.36 93.1364 433.44 92.4702 433.599 91.8849C433.758 91.2997 433.987 90.8054 434.285 90.402C434.583 89.9957 434.943 89.6861 435.363 89.473C435.786 89.2599 436.259 89.1534 436.782 89.1534C437.33 89.1534 437.816 89.2614 438.24 89.4773C438.666 89.6932 439.009 89.9886 439.271 90.3636C439.532 90.7358 439.694 91.1562 439.757 91.625H438.201C438.122 91.2898 437.958 91.0227 437.711 90.8239C437.467 90.6222 437.157 90.5213 436.782 90.5213C436.177 90.5213 435.711 90.7841 435.384 91.3097C435.061 91.8352 434.897 92.5568 434.894 93.4744H434.954C435.093 93.2244 435.274 93.0099 435.495 92.831C435.717 92.652 435.967 92.5142 436.245 92.4176C436.526 92.3182 436.823 92.2685 437.136 92.2685C437.647 92.2685 438.106 92.3906 438.512 92.6349C438.921 92.8793 439.245 93.2159 439.484 93.6449C439.723 94.071 439.84 94.5597 439.838 95.1108C439.84 95.6847 439.71 96.2003 439.446 96.6577C439.181 97.1122 438.813 97.4702 438.342 97.7315C437.87 97.9929 437.321 98.1222 436.693 98.1193ZM436.684 96.8409C436.994 96.8409 437.271 96.7656 437.515 96.6151C437.759 96.4645 437.953 96.2614 438.095 96.0057C438.237 95.75 438.306 95.4631 438.303 95.1449C438.306 94.8324 438.238 94.5497 438.099 94.2969C437.963 94.044 437.774 93.8437 437.532 93.696C437.291 93.5483 437.015 93.4744 436.705 93.4744C436.475 93.4744 436.261 93.5185 436.062 93.6065C435.863 93.6946 435.69 93.8168 435.542 93.973C435.394 94.1264 435.278 94.3054 435.193 94.5099C435.11 94.7116 435.068 94.9276 435.065 95.1577C435.068 95.4616 435.139 95.7415 435.278 95.9972C435.417 96.2528 435.609 96.4574 435.853 96.6108C436.098 96.7642 436.374 96.8409 436.684 96.8409ZM444.688 98.1662C443.986 98.1662 443.384 97.9886 442.881 97.6335C442.381 97.2756 441.996 96.7599 441.726 96.0866C441.459 95.4105 441.326 94.5966 441.326 93.6449C441.329 92.6932 441.464 91.8835 441.731 91.2159C442.001 90.5455 442.386 90.0341 442.886 89.6818C443.388 89.3295 443.989 89.1534 444.688 89.1534C445.387 89.1534 445.988 89.3295 446.491 89.6818C446.994 90.0341 447.378 90.5455 447.646 91.2159C447.915 91.8864 448.05 92.696 448.05 93.6449C448.05 94.5994 447.915 95.4148 447.646 96.0909C447.378 96.7642 446.994 97.2784 446.491 97.6335C445.991 97.9886 445.39 98.1662 444.688 98.1662ZM444.688 96.8324C445.234 96.8324 445.664 96.5639 445.979 96.027C446.298 95.4872 446.457 94.6932 446.457 93.6449C446.457 92.9517 446.384 92.3693 446.239 91.8977C446.094 91.4261 445.89 91.071 445.626 90.8324C445.361 90.5909 445.049 90.4702 444.688 90.4702C444.146 90.4702 443.717 90.7401 443.401 91.2798C443.086 91.8168 442.927 92.6051 442.924 93.6449C442.921 94.3409 442.991 94.9261 443.133 95.4006C443.278 95.875 443.482 96.233 443.746 96.4744C444.011 96.7131 444.324 96.8324 444.688 96.8324ZM454.317 96.3636V95.9034C454.317 95.5653 454.388 95.2543 454.53 94.9702C454.675 94.6861 454.885 94.4574 455.161 94.2841C455.436 94.1108 455.77 94.0241 456.162 94.0241C456.565 94.0241 456.903 94.1108 457.176 94.2841C457.449 94.4545 457.655 94.6818 457.794 94.9659C457.936 95.25 458.007 95.5625 458.007 95.9034V96.3636C458.007 96.7017 457.936 97.0128 457.794 97.2969C457.652 97.581 457.443 97.8097 457.168 97.983C456.895 98.1563 456.56 98.2429 456.162 98.2429C455.764 98.2429 455.428 98.1563 455.152 97.983C454.876 97.8097 454.668 97.581 454.526 97.2969C454.386 97.0128 454.317 96.7017 454.317 96.3636ZM455.429 95.9034V96.3636C455.429 96.5881 455.483 96.794 455.591 96.9815C455.699 97.169 455.889 97.2628 456.162 97.2628C456.438 97.2628 456.626 97.1705 456.729 96.9858C456.834 96.7983 456.886 96.5909 456.886 96.3636V95.9034C456.886 95.6761 456.837 95.4688 456.737 95.2812C456.638 95.0909 456.446 94.9957 456.162 94.9957C455.895 94.9957 455.706 95.0909 455.595 95.2812C455.484 95.4688 455.429 95.6761 455.429 95.9034ZM449.881 91.3693V90.9091C449.881 90.5682 449.953 90.2557 450.098 89.9716C450.243 89.6875 450.453 89.4602 450.729 89.2898C451.004 89.1165 451.338 89.0298 451.73 89.0298C452.131 89.0298 452.467 89.1165 452.74 89.2898C453.016 89.4602 453.223 89.6875 453.362 89.9716C453.501 90.2557 453.571 90.5682 453.571 90.9091V91.3693C453.571 91.7102 453.5 92.0227 453.358 92.3068C453.219 92.5881 453.011 92.8139 452.736 92.9844C452.46 93.1548 452.125 93.2401 451.73 93.2401C451.33 93.2401 450.991 93.1548 450.716 92.9844C450.443 92.8139 450.236 92.5866 450.094 92.3026C449.952 92.0185 449.881 91.7074 449.881 91.3693ZM451.001 90.9091V91.3693C451.001 91.5966 451.054 91.804 451.159 91.9915C451.267 92.1761 451.457 92.2685 451.73 92.2685C452.003 92.2685 452.19 92.1761 452.293 91.9915C452.398 91.804 452.45 91.5966 452.45 91.3693V90.9091C452.45 90.6818 452.401 90.4744 452.301 90.2869C452.202 90.0966 452.011 90.0014 451.73 90.0014C451.46 90.0014 451.271 90.0966 451.163 90.2869C451.055 90.4773 451.001 90.6847 451.001 90.9091ZM450.366 98L456.366 89.2727H457.432L451.432 98H450.366Z" fill="#848A9C"/>
<rect x="283" y="107" width="176" height="2" fill="black" fill-opacity="0.1"/>
<rect x="283" y="107" width="108" height="2" rx="1" fill="#0C4AFF"/>
<circle cx="287" cy="124.5" r="4" fill="#FF8C73"/>
<path d="M297.864 128H295.646V121.455H297.908C298.558 121.455 299.116 121.586 299.583 121.848C300.052 122.108 300.412 122.482 300.663 122.969C300.915 123.457 301.04 124.041 301.04 124.721C301.04 125.403 300.914 125.989 300.66 126.479C300.409 126.969 300.045 127.345 299.57 127.607C299.097 127.869 298.528 128 297.864 128ZM296.831 126.974H297.806C298.262 126.974 298.642 126.891 298.947 126.725C299.252 126.556 299.481 126.306 299.634 125.974C299.788 125.639 299.864 125.222 299.864 124.721C299.864 124.22 299.788 123.805 299.634 123.474C299.481 123.142 299.254 122.894 298.953 122.73C298.655 122.564 298.284 122.48 297.841 122.48H296.831V126.974ZM302.351 128V121.455H306.609V122.449H303.537V124.225H306.388V125.219H303.537V127.006H306.634V128H302.351ZM313.605 123.663H312.41C312.376 123.467 312.313 123.293 312.221 123.142C312.13 122.989 312.016 122.859 311.879 122.752C311.743 122.646 311.588 122.566 311.413 122.512C311.24 122.457 311.054 122.429 310.853 122.429C310.498 122.429 310.182 122.519 309.907 122.698C309.633 122.875 309.417 123.135 309.262 123.478C309.106 123.819 309.029 124.235 309.029 124.727C309.029 125.228 309.106 125.65 309.262 125.993C309.42 126.334 309.635 126.592 309.907 126.766C310.182 126.939 310.497 127.025 310.85 127.025C311.046 127.025 311.23 127 311.4 126.949C311.573 126.895 311.727 126.817 311.863 126.715C312.002 126.613 312.118 126.487 312.212 126.338C312.308 126.189 312.374 126.018 312.41 125.827L313.605 125.833C313.561 126.144 313.464 126.436 313.314 126.709C313.167 126.982 312.975 127.222 312.736 127.431C312.497 127.638 312.218 127.8 311.899 127.917C311.579 128.032 311.224 128.089 310.834 128.089C310.259 128.089 309.746 127.956 309.294 127.69C308.842 127.424 308.486 127.039 308.226 126.536C307.966 126.033 307.836 125.43 307.836 124.727C307.836 124.022 307.967 123.419 308.23 122.918C308.492 122.415 308.849 122.031 309.3 121.765C309.752 121.498 310.263 121.365 310.834 121.365C311.199 121.365 311.537 121.416 311.851 121.518C312.164 121.621 312.443 121.771 312.688 121.969C312.933 122.165 313.134 122.406 313.292 122.691C313.452 122.975 313.556 123.299 313.605 123.663ZM314.875 128V121.455H316.061V127.006H318.944V128H314.875ZM321.343 121.455V128H320.158V121.455H321.343ZM328.191 121.455V128H327.136L324.052 123.542H323.997V128H322.812V121.455H323.873L326.954 125.916H327.011V121.455H328.191ZM329.667 128V121.455H333.924V122.449H330.853V124.225H333.703V125.219H330.853V127.006H333.95V128H329.667Z" fill="#848A9C"/>
<path d="M283.452 141V140.334L285.22 138.601C285.389 138.431 285.53 138.279 285.642 138.146C285.755 138.014 285.84 137.885 285.896 137.761C285.952 137.637 285.98 137.504 285.98 137.363C285.98 137.203 285.944 137.065 285.871 136.951C285.798 136.835 285.698 136.745 285.57 136.682C285.443 136.619 285.298 136.588 285.135 136.588C284.968 136.588 284.821 136.623 284.695 136.692C284.569 136.76 284.472 136.857 284.402 136.983C284.334 137.109 284.3 137.259 284.3 137.433H283.423C283.423 137.11 283.496 136.829 283.644 136.59C283.791 136.352 283.994 136.167 284.253 136.036C284.513 135.905 284.811 135.839 285.148 135.839C285.489 135.839 285.789 135.903 286.048 136.031C286.306 136.158 286.507 136.333 286.649 136.555C286.793 136.777 286.865 137.031 286.865 137.316C286.865 137.507 286.829 137.694 286.756 137.878C286.683 138.062 286.555 138.266 286.371 138.489C286.188 138.713 285.932 138.984 285.603 139.302L284.725 140.195V140.229H286.942V141H283.452ZM289.051 140.304L289.019 140.577C288.995 140.786 288.954 140.998 288.894 141.214C288.836 141.431 288.775 141.631 288.71 141.813C288.646 141.995 288.593 142.138 288.554 142.243H287.947C287.97 142.142 288.002 142.004 288.042 141.83C288.083 141.656 288.123 141.461 288.161 141.244C288.199 141.027 288.225 140.806 288.238 140.582L288.255 140.304H289.051ZM291.942 141.07C291.61 141.07 291.314 141.007 291.052 140.883C290.79 140.757 290.582 140.585 290.428 140.366C290.275 140.147 290.194 139.897 290.184 139.615H291.079C291.096 139.824 291.186 139.995 291.35 140.127C291.514 140.258 291.711 140.324 291.942 140.324C292.122 140.324 292.283 140.282 292.424 140.2C292.565 140.117 292.676 140.002 292.757 139.854C292.838 139.707 292.878 139.538 292.876 139.349C292.878 139.157 292.837 138.987 292.755 138.837C292.672 138.688 292.558 138.571 292.414 138.487C292.27 138.401 292.104 138.358 291.917 138.358C291.764 138.356 291.614 138.384 291.467 138.442C291.319 138.5 291.203 138.576 291.116 138.671L290.284 138.534L290.55 135.909H293.503V136.68H291.313L291.166 138.029H291.196C291.29 137.918 291.424 137.826 291.596 137.754C291.768 137.679 291.957 137.642 292.163 137.642C292.471 137.642 292.746 137.715 292.988 137.86C293.23 138.005 293.421 138.203 293.56 138.457C293.699 138.711 293.769 139.001 293.769 139.327C293.769 139.663 293.691 139.963 293.535 140.227C293.381 140.489 293.166 140.695 292.891 140.846C292.618 140.995 292.301 141.07 291.942 141.07ZM296.856 135.909V141H295.934V136.806H295.904L294.714 137.567V136.722L295.979 135.909H296.856ZM300.198 141.07C299.954 141.068 299.716 141.026 299.484 140.943C299.252 140.858 299.044 140.722 298.858 140.533C298.672 140.342 298.525 140.089 298.416 139.775C298.306 139.458 298.252 139.066 298.254 138.599C298.254 138.163 298.3 137.774 298.393 137.433C298.486 137.092 298.619 136.803 298.793 136.568C298.967 136.331 299.177 136.15 299.422 136.026C299.669 135.902 299.945 135.839 300.25 135.839C300.57 135.839 300.853 135.902 301.1 136.028C301.349 136.154 301.549 136.327 301.702 136.545C301.854 136.763 301.949 137.008 301.985 137.281H301.078C301.031 137.086 300.936 136.93 300.792 136.814C300.649 136.696 300.469 136.637 300.25 136.637C299.897 136.637 299.625 136.791 299.435 137.097C299.246 137.404 299.15 137.825 299.149 138.36H299.184C299.265 138.214 299.37 138.089 299.499 137.985C299.629 137.88 299.774 137.8 299.937 137.744C300.101 137.686 300.274 137.657 300.456 137.657C300.755 137.657 301.022 137.728 301.259 137.87C301.498 138.013 301.687 138.209 301.826 138.46C301.965 138.708 302.034 138.993 302.032 139.315C302.034 139.649 301.958 139.95 301.804 140.217C301.65 140.482 301.435 140.691 301.16 140.843C300.885 140.996 300.564 141.071 300.198 141.07ZM300.193 140.324C300.374 140.324 300.535 140.28 300.678 140.192C300.82 140.104 300.933 139.986 301.016 139.837C301.099 139.687 301.139 139.52 301.137 139.335C301.139 139.152 301.099 138.987 301.018 138.84C300.939 138.692 300.828 138.576 300.688 138.489C300.547 138.403 300.386 138.36 300.205 138.36C300.071 138.36 299.946 138.386 299.83 138.437C299.714 138.489 299.613 138.56 299.527 138.651C299.441 138.74 299.373 138.845 299.323 138.964C299.275 139.082 299.25 139.208 299.248 139.342C299.25 139.519 299.291 139.683 299.373 139.832C299.454 139.981 299.566 140.1 299.708 140.19C299.851 140.279 300.012 140.324 300.193 140.324ZM303.905 140.304L303.872 140.577C303.849 140.786 303.808 140.998 303.748 141.214C303.69 141.431 303.629 141.631 303.564 141.813C303.499 141.995 303.447 142.138 303.407 142.243H302.801C302.824 142.142 302.856 142.004 302.895 141.83C302.937 141.656 302.977 141.461 303.015 141.244C303.053 141.027 303.078 140.806 303.092 140.582L303.109 140.304H303.905ZM306.529 135.909V141H305.607V136.806H305.577L304.386 137.567V136.722L305.651 135.909H306.529ZM308.006 141V140.334L309.773 138.601C309.942 138.431 310.083 138.279 310.196 138.146C310.308 138.014 310.393 137.885 310.449 137.761C310.506 137.637 310.534 137.504 310.534 137.363C310.534 137.203 310.497 137.065 310.424 136.951C310.352 136.835 310.251 136.745 310.124 136.682C309.996 136.619 309.851 136.588 309.689 136.588C309.521 136.588 309.375 136.623 309.249 136.692C309.123 136.76 309.025 136.857 308.955 136.983C308.887 137.109 308.853 137.259 308.853 137.433H307.976C307.976 137.11 308.05 136.829 308.197 136.59C308.345 136.352 308.548 136.167 308.806 136.036C309.066 135.905 309.365 135.839 309.701 135.839C310.042 135.839 310.342 135.903 310.601 136.031C310.859 136.158 311.06 136.333 311.203 136.555C311.347 136.777 311.419 137.031 311.419 137.316C311.419 137.507 311.382 137.694 311.309 137.878C311.236 138.062 311.108 138.266 310.924 138.489C310.742 138.713 310.486 138.984 310.156 139.302L309.279 140.195V140.229H311.496V141H308.006ZM314.365 141.07C314.007 141.07 313.689 141.008 313.41 140.886C313.134 140.763 312.915 140.592 312.754 140.374C312.593 140.155 312.508 139.902 312.498 139.615H313.433C313.441 139.753 313.487 139.873 313.569 139.976C313.652 140.077 313.762 140.156 313.9 140.212C314.038 140.268 314.192 140.297 314.362 140.297C314.545 140.297 314.706 140.265 314.847 140.202C314.988 140.137 315.098 140.048 315.178 139.934C315.257 139.819 315.296 139.687 315.295 139.538C315.296 139.384 315.256 139.248 315.175 139.131C315.094 139.013 314.976 138.921 314.822 138.855C314.67 138.788 314.486 138.755 314.27 138.755H313.82V138.044H314.27C314.448 138.044 314.603 138.014 314.735 137.952C314.869 137.891 314.975 137.805 315.051 137.694C315.127 137.581 315.164 137.451 315.163 137.304C315.164 137.159 315.132 137.034 315.066 136.928C315.001 136.821 314.909 136.737 314.79 136.677C314.672 136.618 314.534 136.588 314.375 136.588C314.219 136.588 314.075 136.616 313.942 136.672C313.81 136.729 313.703 136.809 313.622 136.913C313.54 137.016 313.497 137.139 313.492 137.281H312.605C312.612 136.996 312.694 136.746 312.851 136.531C313.01 136.313 313.222 136.144 313.487 136.023C313.753 135.901 314.05 135.839 314.38 135.839C314.72 135.839 315.014 135.903 315.265 136.031C315.517 136.157 315.711 136.327 315.849 136.54C315.986 136.754 316.055 136.99 316.055 137.249C316.057 137.536 315.972 137.776 315.802 137.97C315.633 138.164 315.411 138.29 315.135 138.35V138.39C315.493 138.44 315.768 138.572 315.958 138.788C316.151 139.001 316.246 139.267 316.244 139.586C316.244 139.871 316.163 140.126 316.001 140.351C315.84 140.575 315.618 140.751 315.334 140.878C315.053 141.006 314.729 141.07 314.365 141.07Z" fill="#848A9C"/>
<path d="M322.964 140.185V136.744H323.744V140.185H322.964ZM321.634 138.855V138.074H325.074V138.855H321.634ZM326.255 140.055V139.322L328.415 135.909H329.026V136.953H328.654L327.199 139.257V139.297H330.215V140.055H326.255ZM328.683 141V139.832L328.693 139.504V135.909H329.563V141H328.683ZM332.116 140.304L332.084 140.577C332.061 140.786 332.019 140.998 331.959 141.214C331.901 141.431 331.84 141.631 331.776 141.813C331.711 141.995 331.659 142.138 331.619 142.243H331.012C331.036 142.142 331.067 142.004 331.107 141.83C331.148 141.656 331.188 141.461 331.226 141.244C331.264 141.027 331.29 140.806 331.303 140.582L331.321 140.304H332.116ZM335.007 141.07C334.675 141.07 334.379 141.007 334.117 140.883C333.855 140.757 333.647 140.585 333.493 140.366C333.341 140.147 333.259 139.897 333.249 139.615H334.144C334.161 139.824 334.251 139.995 334.415 140.127C334.579 140.258 334.777 140.324 335.007 140.324C335.188 140.324 335.348 140.282 335.489 140.2C335.63 140.117 335.741 140.002 335.822 139.854C335.903 139.707 335.943 139.538 335.942 139.349C335.943 139.157 335.903 138.987 335.82 138.837C335.737 138.688 335.623 138.571 335.479 138.487C335.335 138.401 335.169 138.358 334.982 138.358C334.83 138.356 334.68 138.384 334.532 138.442C334.385 138.5 334.268 138.576 334.182 138.671L333.349 138.534L333.615 135.909H336.568V136.68H334.378L334.231 138.029H334.261C334.356 137.918 334.489 137.826 334.661 137.754C334.834 137.679 335.023 137.642 335.228 137.642C335.536 137.642 335.811 137.715 336.053 137.86C336.295 138.005 336.486 138.203 336.625 138.457C336.764 138.711 336.834 139.001 336.834 139.327C336.834 139.663 336.756 139.963 336.6 140.227C336.446 140.489 336.232 140.695 335.956 140.846C335.683 140.995 335.367 141.07 335.007 141.07ZM340.573 140.045V139.777C340.573 139.58 340.614 139.398 340.697 139.233C340.782 139.067 340.904 138.933 341.065 138.832C341.226 138.731 341.421 138.681 341.649 138.681C341.885 138.681 342.082 138.731 342.241 138.832C342.4 138.932 342.52 139.064 342.601 139.23C342.684 139.396 342.726 139.578 342.726 139.777V140.045C342.726 140.243 342.684 140.424 342.601 140.59C342.519 140.756 342.397 140.889 342.236 140.99C342.077 141.091 341.881 141.142 341.649 141.142C341.417 141.142 341.221 141.091 341.06 140.99C340.899 140.889 340.778 140.756 340.695 140.59C340.614 140.424 340.573 140.243 340.573 140.045ZM341.222 139.777V140.045C341.222 140.176 341.253 140.297 341.316 140.406C341.379 140.515 341.49 140.57 341.649 140.57C341.81 140.57 341.92 140.516 341.98 140.408C342.041 140.299 342.072 140.178 342.072 140.045V139.777C342.072 139.644 342.043 139.523 341.985 139.414C341.927 139.303 341.815 139.248 341.649 139.248C341.494 139.248 341.383 139.303 341.319 139.414C341.254 139.523 341.222 139.644 341.222 139.777ZM337.985 137.132V136.864C337.985 136.665 338.028 136.482 338.112 136.317C338.197 136.151 338.319 136.018 338.48 135.919C338.641 135.818 338.835 135.767 339.064 135.767C339.298 135.767 339.494 135.818 339.653 135.919C339.814 136.018 339.935 136.151 340.016 136.317C340.097 136.482 340.138 136.665 340.138 136.864V137.132C340.138 137.331 340.097 137.513 340.014 137.679C339.933 137.843 339.812 137.975 339.651 138.074C339.49 138.174 339.294 138.223 339.064 138.223C338.83 138.223 338.633 138.174 338.473 138.074C338.313 137.975 338.192 137.842 338.11 137.676C338.027 137.511 337.985 137.329 337.985 137.132ZM338.639 136.864V137.132C338.639 137.265 338.67 137.386 338.731 137.495C338.794 137.603 338.905 137.657 339.064 137.657C339.223 137.657 339.333 137.603 339.392 137.495C339.454 137.386 339.484 137.265 339.484 137.132V136.864C339.484 136.731 339.455 136.61 339.397 136.501C339.339 136.39 339.228 136.334 339.064 136.334C338.907 136.334 338.797 136.39 338.734 136.501C338.671 136.612 338.639 136.733 338.639 136.864ZM338.269 141L341.769 135.909H342.39L338.89 141H338.269Z" fill="#FF8C73"/>
<path d="M439.062 130.273V139H437.481V131.811H437.43L435.389 133.115V131.666L437.558 130.273H439.062ZM444.688 139.166C443.986 139.166 443.384 138.989 442.881 138.634C442.381 138.276 441.996 137.76 441.726 137.087C441.459 136.411 441.326 135.597 441.326 134.645C441.329 133.693 441.464 132.884 441.731 132.216C442.001 131.545 442.386 131.034 442.886 130.682C443.388 130.33 443.989 130.153 444.688 130.153C445.387 130.153 445.988 130.33 446.491 130.682C446.994 131.034 447.378 131.545 447.646 132.216C447.915 132.886 448.05 133.696 448.05 134.645C448.05 135.599 447.915 136.415 447.646 137.091C447.378 137.764 446.994 138.278 446.491 138.634C445.991 138.989 445.39 139.166 444.688 139.166ZM444.688 137.832C445.234 137.832 445.664 137.564 445.979 137.027C446.298 136.487 446.457 135.693 446.457 134.645C446.457 133.952 446.384 133.369 446.239 132.898C446.094 132.426 445.89 132.071 445.626 131.832C445.361 131.591 445.049 131.47 444.688 131.47C444.146 131.47 443.717 131.74 443.401 132.28C443.086 132.817 442.927 133.605 442.924 134.645C442.921 135.341 442.991 135.926 443.133 136.401C443.278 136.875 443.482 137.233 443.746 137.474C444.011 137.713 444.324 137.832 444.688 137.832ZM454.317 137.364V136.903C454.317 136.565 454.388 136.254 454.53 135.97C454.675 135.686 454.885 135.457 455.161 135.284C455.436 135.111 455.77 135.024 456.162 135.024C456.565 135.024 456.903 135.111 457.176 135.284C457.449 135.455 457.655 135.682 457.794 135.966C457.936 136.25 458.007 136.562 458.007 136.903V137.364C458.007 137.702 457.936 138.013 457.794 138.297C457.652 138.581 457.443 138.81 457.168 138.983C456.895 139.156 456.56 139.243 456.162 139.243C455.764 139.243 455.428 139.156 455.152 138.983C454.876 138.81 454.668 138.581 454.526 138.297C454.386 138.013 454.317 137.702 454.317 137.364ZM455.429 136.903V137.364C455.429 137.588 455.483 137.794 455.591 137.982C455.699 138.169 455.889 138.263 456.162 138.263C456.438 138.263 456.626 138.17 456.729 137.986C456.834 137.798 456.886 137.591 456.886 137.364V136.903C456.886 136.676 456.837 136.469 456.737 136.281C456.638 136.091 456.446 135.996 456.162 135.996C455.895 135.996 455.706 136.091 455.595 136.281C455.484 136.469 455.429 136.676 455.429 136.903ZM449.881 132.369V131.909C449.881 131.568 449.953 131.256 450.098 130.972C450.243 130.687 450.453 130.46 450.729 130.29C451.004 130.116 451.338 130.03 451.73 130.03C452.131 130.03 452.467 130.116 452.74 130.29C453.016 130.46 453.223 130.687 453.362 130.972C453.501 131.256 453.571 131.568 453.571 131.909V132.369C453.571 132.71 453.5 133.023 453.358 133.307C453.219 133.588 453.011 133.814 452.736 133.984C452.46 134.155 452.125 134.24 451.73 134.24C451.33 134.24 450.991 134.155 450.716 133.984C450.443 133.814 450.236 133.587 450.094 133.303C449.952 133.018 449.881 132.707 449.881 132.369ZM451.001 131.909V132.369C451.001 132.597 451.054 132.804 451.159 132.991C451.267 133.176 451.457 133.268 451.73 133.268C452.003 133.268 452.19 133.176 452.293 132.991C452.398 132.804 452.45 132.597 452.45 132.369V131.909C452.45 131.682 452.401 131.474 452.301 131.287C452.202 131.097 452.011 131.001 451.73 131.001C451.46 131.001 451.271 131.097 451.163 131.287C451.055 131.477 451.001 131.685 451.001 131.909ZM450.366 139L456.366 130.273H457.432L451.432 139H450.366Z" fill="#848A9C"/>
<rect x="283" y="148" width="176" height="2" fill="black" fill-opacity="0.1"/>
<rect x="283" y="148" width="31" height="2" rx="1" fill="#FF8C73"/>
</g>
<defs>
<filter id="filter0_d_270_60326" x="0" y="113" width="386" height="324" filterUnits="userSpaceOnUse" color-interpolation-filters="sRGB">
<feFlood flood-opacity="0" result="BackgroundImageFix"/>
<feColorMatrix in="SourceAlpha" type="matrix" values="0 0 0 0 0 0 0 0 0 0 0 0 0 0 0 0 0 0 127 0" result="hardAlpha"/>
<feOffset/>
<feGaussianBlur stdDeviation="4.5"/>
<feComposite in2="hardAlpha" operator="out"/>
<feColorMatrix type="matrix" values="0 0 0 0 0 0 0 0 0 0 0 0 0 0 0 0 0 0 0.1 0"/>
<feBlend mode="normal" in2="BackgroundImageFix" result="effect1_dropShadow_270_60326"/>
<feBlend mode="normal" in="SourceGraphic" in2="effect1_dropShadow_270_60326" result="shape"/>
</filter>
<filter id="filter1_d_270_60326" x="-26" y="97" width="438" height="376" filterUnits="userSpaceOnUse" color-interpolation-filters="sRGB">
<feFlood flood-opacity="0" result="BackgroundImageFix"/>
<feColorMatrix in="SourceAlpha" type="matrix" values="0 0 0 0 0 0 0 0 0 0 0 0 0 0 0 0 0 0 127 0" result="hardAlpha"/>
<feOffset dy="10"/>
<feGaussianBlur stdDeviation="17.5"/>
<feColorMatrix type="matrix" values="0 0 0 0 0 0 0 0 0 0 0 0 0 0 0 0 0 0 0.0305125 0"/>
<feBlend mode="normal" in2="BackgroundImageFix" result="effect1_dropShadow_270_60326"/>
<feBlend mode="normal" in="SourceGraphic" in2="effect1_dropShadow_270_60326" result="shape"/>
</filter>
<filter id="filter2_d_270_60326" x="217.548" y="172.5" width="84.862" height="58.2905" filterUnits="userSpaceOnUse" color-interpolation-filters="sRGB">
<feFlood flood-opacity="0" result="BackgroundImageFix"/>
<feColorMatrix in="SourceAlpha" type="matrix" values="0 0 0 0 0 0 0 0 0 0 0 0 0 0 0 0 0 0 127 0" result="hardAlpha"/>
<feOffset dy="2"/>
<feGaussianBlur stdDeviation="5"/>
<feColorMatrix type="matrix" values="0 0 0 0 0.0154908 0 0 0 0 0.023745 0 0 0 0 0.13502 0 0 0 0.056627 0"/>
<feBlend mode="normal" in2="BackgroundImageFix" result="effect1_dropShadow_270_60326"/>
<feBlend mode="normal" in="SourceGraphic" in2="effect1_dropShadow_270_60326" result="shape"/>
</filter>
<filter id="filter3_d_270_60326" x="228" y="0" width="285" height="209" filterUnits="userSpaceOnUse" color-interpolation-filters="sRGB">
<feFlood flood-opacity="0" result="BackgroundImageFix"/>
<feColorMatrix in="SourceAlpha" type="matrix" values="0 0 0 0 0 0 0 0 0 0 0 0 0 0 0 0 0 0 127 0" result="hardAlpha"/>
<feOffset dy="2"/>
<feGaussianBlur stdDeviation="18"/>
<feComposite in2="hardAlpha" operator="out"/>
<feColorMatrix type="matrix" values="0 0 0 0 0 0 0 0 0 0 0 0 0 0 0 0 0 0 0.2 0"/>
<feBlend mode="normal" in2="BackgroundImageFix" result="effect1_dropShadow_270_60326"/>
<feBlend mode="normal" in="SourceGraphic" in2="effect1_dropShadow_270_60326" result="shape"/>
</filter>
<linearGradient id="paint0_linear_270_60326" x1="114.022" y1="279.386" x2="113.208" y2="369.064" gradientUnits="userSpaceOnUse">
<stop stop-color="#1548DC"/>
<stop offset="1" stop-color="#04BFDA" stop-opacity="0.01"/>
</linearGradient>
<clipPath id="clip0_270_60326">
<rect x="9" y="122" width="368" height="306" rx="16" fill="white"/>
</clipPath>
<clipPath id="clip1_270_60326">
<rect width="60.2381" height="17.5484" fill="white" transform="translate(281.714 145.032)"/>
</clipPath>
<clipPath id="clip2_270_60326">
<rect width="300.095" height="17.5484" fill="white" transform="translate(55 389.613)"/>
</clipPath>
<clipPath id="clip3_270_60326">
<rect width="285.857" height="188.645" fill="white" transform="translate(59.381 181.226)"/>
</clipPath>
</defs>
</svg>
