<svg width="24" height="24" viewBox="0 0 24 24" fill="none" xmlns="http://www.w3.org/2000/svg">
<path d="M0 0.982414C0.03 0.912414 0.0625 0.84179 0.089375 0.77179C0.156551 0.60701 0.26062 0.45983 0.39358 0.341566C0.526541 0.223302 0.684851 0.137104 0.856339 0.0895989C1.02783 0.0420941 1.20792 0.0345484 1.38279 0.0675413C1.55765 0.100534 1.72261 0.173187 1.865 0.279914C1.96233 0.356802 2.05421 0.440335 2.14 0.529914C5.34833 3.73825 8.55667 6.94658 11.765 10.1549C11.8275 10.2174 11.8831 10.2974 11.9525 10.3812C12.0525 10.2862 12.12 10.2243 12.1844 10.1593C15.4152 6.93012 18.6444 3.70096 21.8719 0.47179C22.2113 0.13179 22.5969 -0.0338355 23.0763 0.0899145C23.262 0.137225 23.4332 0.229756 23.5745 0.359262C23.7158 0.488767 23.8229 0.651224 23.8862 0.832151C23.9495 1.01308 23.967 1.20685 23.9373 1.39621C23.9075 1.58557 23.8314 1.76462 23.7156 1.91741C23.6389 2.01487 23.5553 2.10676 23.4656 2.19241C20.2623 5.3945 17.0592 8.59637 13.8563 11.798C13.7906 11.8643 13.715 11.923 13.6206 12.0005C13.7037 12.0887 13.7644 12.1549 13.8275 12.218C17.0521 15.4426 20.2762 18.6666 23.5 21.8899C23.8862 22.2762 24.0625 22.7062 23.8706 23.2424C23.7256 23.6518 23.3994 23.8593 23.015 23.9999H22.55C22.1981 23.8868 21.9406 23.6462 21.6856 23.3905C18.5202 20.218 15.351 17.0485 12.1781 13.8818C12.1156 13.8193 12.0469 13.7568 11.9463 13.6599C11.8883 13.7427 11.8257 13.8222 11.7588 13.898C8.59583 17.0647 5.4325 20.2297 2.26875 23.393C2.01375 23.6487 1.75625 23.8893 1.40438 24.0018H0.9375C0.468125 23.8474 0.150625 23.5412 0 23.0643V22.5962C0.114375 22.2455 0.35375 21.9874 0.609375 21.7318C3.78187 18.5651 6.95229 15.396 10.1206 12.2243C10.1831 12.1618 10.2456 12.0937 10.3431 11.9918C10.2544 11.9284 10.1693 11.8602 10.0881 11.7874C6.92146 8.62408 3.75625 5.46075 0.5925 2.29741C0.3425 2.04741 0.11 1.79741 0 1.44991V0.982414Z" fill="black" fill-opacity="0.84"/>
</svg>
