<svg width="36" height="36" viewBox="0 0 36 36" fill="none" xmlns="http://www.w3.org/2000/svg">
<g clip-path="url(#clip0_580_20833)">
<path d="M0 6.52586C0.28125 5.68211 0.880312 5.39242 1.75031 5.3943C12.6147 5.40805 23.4794 5.41117 34.3444 5.40367C35.1338 5.40367 35.6663 5.75148 35.8631 6.39273C35.9258 6.59431 35.9422 6.80745 35.9109 7.01623C35.8796 7.22501 35.8016 7.42402 35.6826 7.59838C35.5636 7.77275 35.4067 7.91795 35.2237 8.02315C35.0406 8.12834 34.8362 8.1908 34.6256 8.20586C34.4859 8.21617 34.3444 8.21055 34.2047 8.21055C23.3866 8.21055 12.5688 8.21367 1.75125 8.21992C0.88125 8.21992 0.284063 7.93023 0 7.08742V6.52586Z" fill="black" fill-opacity="0.84"/>
<path d="M0 17.7543C0.28125 16.9106 0.880312 16.6209 1.75031 16.6218C12.6147 16.6368 23.4794 16.6403 34.3444 16.6321C35.1338 16.6321 35.6663 16.979 35.8631 17.6203C35.9258 17.8218 35.9422 18.035 35.9109 18.2438C35.8796 18.4525 35.8016 18.6516 35.6826 18.8259C35.5636 19.0003 35.4067 19.1455 35.2237 19.2507C35.0406 19.3559 34.8362 19.4183 34.6256 19.4334C34.4859 19.4437 34.3444 19.4381 34.2047 19.4381C23.3866 19.4381 12.5688 19.4412 1.75125 19.4475C0.88125 19.4475 0.284063 19.1578 0 18.3159V17.7543Z" fill="black" fill-opacity="0.84"/>
<path d="M0 28.9792C0.28125 28.1354 0.880312 27.8457 1.75031 27.8467C12.6147 27.8604 23.4794 27.8636 34.3444 27.8561C35.1338 27.8561 35.6663 28.2039 35.8631 28.8451C35.9274 29.0472 35.9449 29.2613 35.9144 29.4711C35.8838 29.6809 35.806 29.8811 35.6869 30.0565C35.5677 30.2319 35.4103 30.378 35.2264 30.4837C35.0426 30.5894 34.8372 30.652 34.6256 30.6667C34.4859 30.677 34.3444 30.6667 34.2047 30.6667C23.3866 30.6667 12.5688 30.6698 1.75125 30.6761C0.88125 30.677 0.28125 30.3854 0 29.5417V28.9792Z" fill="black" fill-opacity="0.84"/>
</g>
<defs>
<clipPath id="clip0_580_20833">
<rect width="36" height="36" fill="white"/>
</clipPath>
</defs>
</svg>
