<svg width="253" height="59" viewBox="0 0 253 59" fill="none" xmlns="http://www.w3.org/2000/svg">
<path d="M1.6 58.5V12.78L0.700001 5.58H13.66L44.26 37.62L47.77 42.48H48.76V5.58H60.64V58.5H49.21L17.89 25.92L14.38 21.69H13.48V58.5H1.6ZM84.2355 58.5C81.2355 58.5 78.9255 58.11 77.3055 57.33C75.6855 56.55 74.5155 55.56 73.7955 54.36C73.1355 53.16 72.7155 51.9 72.5355 50.58C72.4155 49.26 72.3555 48.06 72.3555 46.98V29.7C72.3555 28.8 72.4155 27.72 72.5355 26.46C72.7155 25.14 73.1355 23.85 73.7955 22.59C74.5155 21.33 75.6855 20.28 77.3055 19.44C78.9855 18.6 81.2955 18.18 84.2355 18.18H103.585C107.545 18.18 110.635 18.57 112.855 19.35C115.135 20.07 116.725 21.27 117.625 22.95C118.585 24.63 119.065 26.88 119.065 29.7V43.02H103.315C97.9155 43.02 93.5055 42.9 90.0855 42.66C86.7255 42.42 84.4755 42.27 83.3355 42.21V47.16C83.2755 49.56 84.7155 50.76 87.6555 50.76H92.2455C95.4855 50.76 98.6355 50.73 101.695 50.67C104.815 50.55 107.665 50.43 110.245 50.31C112.825 50.13 114.895 49.98 116.455 49.86L120.055 55.71C120.055 57.57 114.145 58.5 102.325 58.5H84.2355ZM83.3355 35.28H108.085V29.52C108.085 28.32 107.935 27.48 107.635 27C107.395 26.52 106.615 26.22 105.295 26.1C103.975 25.98 101.725 25.92 98.5455 25.92H87.6555C84.7755 25.92 83.3355 27.12 83.3355 29.52V35.28ZM124.566 58.5L126.366 54.9L141.936 38.25L124.566 18.18H138.246L149.226 32.13H150.126L161.286 18.18H174.966L173.526 21.06L157.056 38.25L174.966 58.5H161.196L150.126 45H149.226L138.246 58.5H124.566ZM187.663 12.51C185.443 12.51 183.823 12.06 182.803 11.16C181.783 10.26 181.273 8.76 181.273 6.66C181.273 4.5 181.753 3 182.713 2.16C183.733 1.26 185.383 0.809997 187.663 0.809997C189.943 0.809997 191.593 1.26 192.613 2.16C193.633 3 194.143 4.5 194.143 6.66C194.143 8.7 193.633 10.2 192.613 11.16C191.593 12.06 189.943 12.51 187.663 12.51ZM182.173 58.5V18.18H193.153V58.5H182.173ZM215.896 58.5C211.876 58.5 208.876 57.69 206.896 56.07C204.976 54.45 204.016 51.81 204.016 48.15V29.7C204.016 28.8 204.076 27.72 204.196 26.46C204.376 25.14 204.796 23.85 205.456 22.59C206.176 21.33 207.346 20.28 208.966 19.44C210.646 18.6 212.956 18.18 215.896 18.18H240.736C243.736 18.18 246.046 18.6 247.666 19.44C249.286 20.28 250.426 21.33 251.086 22.59C251.806 23.85 252.226 25.14 252.346 26.46C252.526 27.72 252.616 28.8 252.616 29.7V46.98C252.616 48.06 252.526 49.26 252.346 50.58C252.226 51.9 251.806 53.16 251.086 54.36C250.366 55.56 249.196 56.55 247.576 57.33C245.956 58.11 243.676 58.5 240.736 58.5H215.896ZM219.316 50.76H237.316C240.256 50.76 241.726 49.56 241.726 47.16V29.52C241.726 27.12 240.256 25.92 237.316 25.92H219.316C216.436 25.92 214.996 27.12 214.996 29.52V47.16C214.996 49.56 216.436 50.76 219.316 50.76Z" fill="white"/>
<path d="M1.6 58.5H1.1V59H1.6V58.5ZM1.6 12.78H2.1V12.7489L2.09614 12.718L1.6 12.78ZM0.7 5.58V5.08H0.133609L0.203862 5.64202L0.7 5.58ZM13.66 5.58L14.0216 5.23467L13.8739 5.08H13.66V5.58ZM44.26 37.62L44.6653 37.3273L44.6453 37.2995L44.6216 37.2747L44.26 37.62ZM47.77 42.48L47.3647 42.7727L47.5143 42.98H47.77V42.48ZM48.76 42.48V42.98H49.26V42.48H48.76ZM48.76 5.58V5.08H48.26V5.58H48.76ZM60.64 5.58H61.14V5.08H60.64V5.58ZM60.64 58.5V59H61.14V58.5H60.64ZM49.21 58.5L48.8495 58.8465L48.9971 59H49.21V58.5ZM17.89 25.92L17.5052 26.2393L17.5169 26.2533L17.5295 26.2665L17.89 25.92ZM14.38 21.69L14.7648 21.3707L14.6148 21.19H14.38V21.69ZM13.48 21.69V21.19H12.98V21.69H13.48ZM13.48 58.5V59H13.98V58.5H13.48ZM2.1 58.5V12.78H1.1V58.5H2.1ZM2.09614 12.718L1.19614 5.51798L0.203862 5.64202L1.10386 12.842L2.09614 12.718ZM0.7 6.08H13.66V5.08H0.7V6.08ZM13.2984 5.92533L43.8984 37.9653L44.6216 37.2747L14.0216 5.23467L13.2984 5.92533ZM43.8547 37.9127L47.3647 42.7727L48.1753 42.1873L44.6653 37.3273L43.8547 37.9127ZM47.77 42.98H48.76V41.98H47.77V42.98ZM49.26 42.48V5.58H48.26V42.48H49.26ZM48.76 6.08H60.64V5.08H48.76V6.08ZM60.14 5.58V58.5H61.14V5.58H60.14ZM60.64 58H49.21V59H60.64V58ZM49.5705 58.1535L18.2505 25.5735L17.5295 26.2665L48.8495 58.8465L49.5705 58.1535ZM18.2748 25.6007L14.7648 21.3707L13.9952 22.0093L17.5052 26.2393L18.2748 25.6007ZM14.38 21.19H13.48V22.19H14.38V21.19ZM12.98 21.69V58.5H13.98V21.69H12.98ZM13.48 58H1.6V59H13.48V58ZM77.3055 57.33L77.5224 56.8795L77.3055 57.33ZM73.7955 54.36L73.3574 54.601L73.3619 54.6092L73.3667 54.6172L73.7955 54.36ZM72.5355 50.58L72.0375 50.6253L72.0385 50.6364L72.0401 50.6476L72.5355 50.58ZM72.5355 26.46L72.0401 26.3924L72.0387 26.4025L72.0377 26.4126L72.5355 26.46ZM73.7955 22.59L73.3613 22.3419L73.3568 22.3499L73.3526 22.358L73.7955 22.59ZM77.3055 19.44L77.0818 18.9927L77.0753 18.9961L77.3055 19.44ZM112.855 19.35L112.69 19.8217L112.697 19.8244L112.705 19.8268L112.855 19.35ZM117.625 22.95L117.185 23.1862L117.191 23.1981L117.625 22.95ZM119.065 43.02V43.52H119.565V43.02H119.065ZM90.0855 42.66L90.0498 43.1587L90.0505 43.1588L90.0855 42.66ZM83.3355 42.21L83.3617 41.7107L82.8355 41.683V42.21H83.3355ZM83.3355 47.16L83.8355 47.1725V47.16H83.3355ZM101.695 50.67L101.705 51.17L101.715 51.1696L101.695 50.67ZM110.245 50.31L110.269 50.8096L110.28 50.8088L110.245 50.31ZM116.455 49.86L116.881 49.5979L116.721 49.3381L116.417 49.3615L116.455 49.86ZM120.055 55.71H120.555V55.5685L120.481 55.448L120.055 55.71ZM83.3355 35.28H82.8355V35.78H83.3355V35.28ZM108.085 35.28V35.78H108.585V35.28H108.085ZM107.635 27L107.188 27.2236L107.199 27.2449L107.211 27.265L107.635 27ZM105.295 26.1L105.25 26.5979L105.295 26.1ZM84.2355 58C81.2667 58 79.0439 57.6121 77.5224 56.8795L77.0886 57.7805C78.807 58.6079 81.2043 59 84.2355 59V58ZM77.5224 56.8795C75.9655 56.1299 74.8815 55.1982 74.2242 54.1028L73.3667 54.6172C74.1495 55.9218 75.4054 56.9701 77.0886 57.7805L77.5224 56.8795ZM74.2336 54.119C73.6023 52.9713 73.2024 51.7699 73.0309 50.5124L72.0401 50.6476C72.2286 52.0301 72.6686 53.3487 73.3574 54.601L74.2336 54.119ZM73.0334 50.5347C72.9145 49.2265 72.8555 48.042 72.8555 46.98H71.8555C71.8555 48.078 71.9165 49.2934 72.0375 50.6253L73.0334 50.5347ZM72.8555 46.98V29.7H71.8555V46.98H72.8555ZM72.8555 29.7C72.8555 28.8207 72.9142 27.7574 73.0332 26.5074L72.0377 26.4126C71.9168 27.6826 71.8555 28.7793 71.8555 29.7H72.8555ZM73.0309 26.5276C73.2025 25.2688 73.6035 24.0341 74.2384 22.822L73.3526 22.358C72.6675 23.6659 72.2284 25.0112 72.0401 26.3924L73.0309 26.5276ZM74.2296 22.8381C74.8909 21.6807 75.9791 20.691 77.5356 19.8839L77.0753 18.9961C75.3918 19.869 74.14 20.9793 73.3613 22.3419L74.2296 22.8381ZM77.5291 19.8872C79.1113 19.0961 81.3336 18.68 84.2355 18.68V17.68C81.2573 17.68 78.8596 18.1039 77.0819 18.9928L77.5291 19.8872ZM84.2355 18.68H103.585V17.68H84.2355V18.68ZM103.585 18.68C107.522 18.68 110.547 19.0689 112.69 19.8217L113.021 18.8783C110.724 18.0711 107.569 17.68 103.585 17.68V18.68ZM112.705 19.8268C114.894 20.518 116.361 21.6486 117.185 23.1861L118.066 22.7139C117.09 20.8914 115.377 19.622 113.006 18.8732L112.705 19.8268ZM117.191 23.1981C118.093 24.7757 118.565 26.9298 118.565 29.7H119.565C119.565 26.8302 119.078 24.4843 118.06 22.7019L117.191 23.1981ZM118.565 29.7V43.02H119.565V29.7H118.565ZM119.065 42.52H103.315V43.52H119.065V42.52ZM103.315 42.52C97.9213 42.52 93.5242 42.4001 90.1205 42.1612L90.0505 43.1588C93.4867 43.3999 97.9096 43.52 103.315 43.52V42.52ZM90.1211 42.1613C86.7618 41.9213 84.5072 41.771 83.3617 41.7107L83.3092 42.7093C84.4438 42.769 86.6891 42.9187 90.0498 43.1587L90.1211 42.1613ZM82.8355 42.21V47.16H83.8355V42.21H82.8355ZM82.8356 47.1475C82.803 48.4535 83.1813 49.5199 84.0504 50.2441C84.8989 50.9512 86.1314 51.26 87.6555 51.26V50.26C86.2395 50.26 85.282 49.9688 84.6906 49.4759C84.1197 49.0001 83.808 48.2665 83.8353 47.1725L82.8356 47.1475ZM87.6555 51.26H92.2455V50.26H87.6555V51.26ZM92.2455 51.26C95.4885 51.26 98.6418 51.23 101.705 51.1699L101.686 50.1701C98.6291 50.23 95.4824 50.26 92.2455 50.26V51.26ZM101.715 51.1696C104.836 51.0496 107.687 50.9295 110.269 50.8095L110.222 49.8105C107.644 49.9305 104.795 50.0504 101.676 50.1704L101.715 51.1696ZM110.28 50.8088C112.861 50.6287 114.932 50.4787 116.494 50.3585L116.417 49.3615C114.859 49.4813 112.79 49.6312 110.211 49.8112L110.28 50.8088ZM116.03 50.122L119.63 55.972L120.481 55.448L116.881 49.5979L116.03 50.122ZM119.555 55.71C119.555 55.8647 119.437 56.1467 118.734 56.4785C118.06 56.7966 117.008 57.0784 115.545 57.3086C112.63 57.7673 108.229 58 102.325 58V59C108.242 59 112.706 58.7677 115.701 58.2964C117.193 58.0616 118.357 57.7622 119.161 57.3828C119.935 57.0171 120.555 56.4853 120.555 55.71H119.555ZM102.325 58H84.2355V59H102.325V58ZM83.3355 35.78H108.085V34.78H83.3355V35.78ZM108.585 35.28V29.52H107.585V35.28H108.585ZM108.585 29.52C108.585 28.31 108.44 27.3439 108.059 26.735L107.211 27.265C107.431 27.6161 107.585 28.33 107.585 29.52H108.585ZM108.083 26.7764C107.883 26.3768 107.494 26.1191 107.05 25.9483C106.599 25.775 106.023 25.6641 105.341 25.6021L105.25 26.5979C105.888 26.6559 106.362 26.755 106.691 26.8817C107.027 27.0109 107.148 27.1432 107.188 27.2236L108.083 26.7764ZM105.341 25.6021C103.996 25.4798 101.726 25.42 98.5455 25.42V26.42C101.725 26.42 103.955 26.4802 105.25 26.5979L105.341 25.6021ZM98.5455 25.42H87.6555V26.42H98.5455V25.42ZM87.6555 25.42C86.1583 25.42 84.9424 25.73 84.0954 26.4359C83.2309 27.1563 82.8355 28.2165 82.8355 29.52H83.8355C83.8355 28.4235 84.1601 27.6837 84.7356 27.2041C85.3285 26.71 86.2726 26.42 87.6555 26.42V25.42ZM82.8355 29.52V35.28H83.8355V29.52H82.8355ZM124.566 58.5L124.119 58.2764L123.757 59H124.566V58.5ZM126.366 54.9L126.001 54.5585L125.951 54.6115L125.919 54.6764L126.366 54.9ZM141.936 38.25L142.301 38.5915L142.608 38.2629L142.314 37.9228L141.936 38.25ZM124.566 18.18V17.68H123.472L124.188 18.5072L124.566 18.18ZM138.246 18.18L138.639 17.8708L138.489 17.68H138.246V18.18ZM149.226 32.13L148.833 32.4392L148.983 32.63H149.226V32.13ZM150.126 32.13V32.63H150.366L150.516 32.4423L150.126 32.13ZM161.286 18.18V17.68H161.046L160.896 17.8677L161.286 18.18ZM174.966 18.18L175.413 18.4036L175.775 17.68H174.966V18.18ZM173.526 21.06L173.887 21.4059L173.939 21.3513L173.973 21.2836L173.526 21.06ZM157.056 38.25L156.695 37.9041L156.377 38.2365L156.681 38.5812L157.056 38.25ZM174.966 58.5V59H176.076L175.341 58.1688L174.966 58.5ZM161.196 58.5L160.809 58.817L160.959 59H161.196V58.5ZM150.126 45L150.513 44.683L150.363 44.5H150.126V45ZM149.226 45V44.5H148.988L148.838 44.6845L149.226 45ZM138.246 58.5V59H138.484L138.634 58.8155L138.246 58.5ZM125.013 58.7236L126.813 55.1236L125.919 54.6764L124.119 58.2764L125.013 58.7236ZM126.731 55.2415L142.301 38.5915L141.571 37.9085L126.001 54.5585L126.731 55.2415ZM142.314 37.9228L124.944 17.8528L124.188 18.5072L141.558 38.5772L142.314 37.9228ZM124.566 18.68H138.246V17.68H124.566V18.68ZM137.853 18.4892L148.833 32.4392L149.619 31.8208L138.639 17.8708L137.853 18.4892ZM149.226 32.63H150.126V31.63H149.226V32.63ZM150.516 32.4423L161.676 18.4923L160.896 17.8677L149.736 31.8176L150.516 32.4423ZM161.286 18.68H174.966V17.68H161.286V18.68ZM174.519 17.9564L173.079 20.8364L173.973 21.2836L175.413 18.4036L174.519 17.9564ZM173.165 20.7141L156.695 37.9041L157.417 38.5959L173.887 21.4059L173.165 20.7141ZM156.681 38.5812L174.591 58.8312L175.341 58.1688L157.431 37.9187L156.681 38.5812ZM174.966 58H161.196V59H174.966V58ZM161.583 58.183L150.513 44.683L149.739 45.317L160.809 58.817L161.583 58.183ZM150.126 44.5H149.226V45.5H150.126V44.5ZM148.838 44.6845L137.858 58.1845L138.634 58.8155L149.614 45.3155L148.838 44.6845ZM138.246 58H124.566V59H138.246V58ZM182.803 11.16L183.134 10.7851L182.803 11.16ZM182.713 2.16L183.042 2.53629L183.044 2.53491L182.713 2.16ZM192.613 2.16L192.282 2.53491L192.289 2.54055L192.295 2.54596L192.613 2.16ZM192.613 11.16L192.944 11.5349L192.95 11.5296L192.956 11.5241L192.613 11.16ZM182.173 58.5H181.673V59H182.173V58.5ZM182.173 18.18V17.68H181.673V18.18H182.173ZM193.153 18.18H193.653V17.68H193.153V18.18ZM193.153 58.5V59H193.653V58.5H193.153ZM187.663 12.01C185.493 12.01 184.02 11.5669 183.134 10.7851L182.472 11.5349C183.626 12.553 185.393 13.01 187.663 13.01V12.01ZM183.134 10.7851C182.268 10.0215 181.773 8.69426 181.773 6.66H180.773C180.773 8.82574 181.298 10.4985 182.472 11.5349L183.134 10.7851ZM181.773 6.66C181.773 4.54835 182.247 3.23258 183.042 2.53628L182.384 1.78371C181.26 2.76741 180.773 4.45165 180.773 6.66H181.773ZM183.044 2.53491C183.928 1.75471 185.429 1.31 187.663 1.31V0.309997C185.338 0.309997 183.538 0.765285 182.382 1.78508L183.044 2.53491ZM187.663 1.31C189.898 1.31 191.398 1.75471 192.282 2.53491L192.944 1.78508C191.788 0.765285 189.989 0.309997 187.663 0.309997V1.31ZM192.295 2.54596C193.143 3.2444 193.643 4.55614 193.643 6.66H194.643C194.643 4.44385 194.123 2.75559 192.931 1.77403L192.295 2.54596ZM193.643 6.66C193.643 8.62564 193.152 9.96652 192.27 10.7959L192.956 11.5241C194.115 10.4335 194.643 8.77436 194.643 6.66H193.643ZM192.282 10.7851C191.398 11.5653 189.898 12.01 187.663 12.01V13.01C189.989 13.01 191.788 12.5547 192.944 11.5349L192.282 10.7851ZM182.673 58.5V18.18H181.673V58.5H182.673ZM182.173 18.68H193.153V17.68H182.173V18.68ZM192.653 18.18V58.5H193.653V18.18H192.653ZM193.153 58H182.173V59H193.153V58ZM206.896 56.07L206.573 56.4522L206.579 56.457L206.896 56.07ZM204.196 26.46L203.7 26.3924L203.699 26.4025L203.698 26.4126L204.196 26.46ZM205.456 22.59L205.021 22.3419L205.017 22.3499L205.013 22.358L205.456 22.59ZM208.966 19.44L208.742 18.9927L208.735 18.9961L208.966 19.44ZM251.086 22.59L250.643 22.822L250.647 22.8301L250.652 22.8381L251.086 22.59ZM252.346 26.46L251.848 26.5053L251.849 26.518L251.851 26.5307L252.346 26.46ZM252.346 50.58L251.85 50.5124L251.849 50.5236L251.848 50.5347L252.346 50.58ZM251.086 54.36L250.657 54.1028L251.086 54.36ZM247.576 57.33L247.359 56.8795L247.576 57.33ZM215.896 58C211.929 58 209.064 57.1984 207.212 55.683L206.579 56.457C208.687 58.1816 211.822 59 215.896 59V58ZM207.218 55.6879C205.455 54.1999 204.516 51.7318 204.516 48.15H203.516C203.516 51.8882 204.497 54.7001 206.573 56.4521L207.218 55.6879ZM204.516 48.15V29.7H203.516V48.15H204.516ZM204.516 29.7C204.516 28.8207 204.574 27.7574 204.693 26.5074L203.698 26.4126C203.577 27.6826 203.516 28.7793 203.516 29.7H204.516ZM204.691 26.5276C204.863 25.2688 205.264 24.0341 205.899 22.822L205.013 22.358C204.328 23.6659 203.889 25.0112 203.7 26.3924L204.691 26.5276ZM205.89 22.8381C206.551 21.6807 207.639 20.691 209.196 19.8839L208.735 18.9961C207.052 19.869 205.8 20.9793 205.021 22.3419L205.89 22.8381ZM209.189 19.8872C210.771 19.0961 212.994 18.68 215.896 18.68V17.68C212.918 17.68 210.52 18.1039 208.742 18.9928L209.189 19.8872ZM215.896 18.68H240.736V17.68H215.896V18.68ZM240.736 18.68C243.701 18.68 245.918 19.0972 247.435 19.8839L247.896 18.9961C246.173 18.1028 243.77 17.68 240.736 17.68V18.68ZM247.435 19.8839C248.99 20.69 250.042 21.6754 250.643 22.822L251.529 22.358C250.809 20.9846 249.581 19.87 247.896 18.9961L247.435 19.8839ZM250.652 22.8381C251.339 24.0418 251.735 25.2632 251.848 26.5053L252.844 26.4147C252.716 25.0168 252.272 23.6582 251.52 22.3419L250.652 22.8381ZM251.851 26.5307C252.029 27.776 252.116 28.8311 252.116 29.7H253.116C253.116 28.7689 253.023 27.664 252.841 26.3893L251.851 26.5307ZM252.116 29.7V46.98H253.116V29.7H252.116ZM252.116 46.98C252.116 48.0329 252.028 49.2099 251.85 50.5124L252.841 50.6476C253.023 49.3101 253.116 48.0871 253.116 46.98H252.116ZM251.848 50.5347C251.735 51.7756 251.34 52.9636 250.657 54.1028L251.514 54.6172C252.271 53.3564 252.716 52.0244 252.844 50.6253L251.848 50.5347ZM250.657 54.1028C250 55.1982 248.916 56.1299 247.359 56.8795L247.793 57.7805C249.476 56.9701 250.732 55.9218 251.514 54.6172L250.657 54.1028ZM247.359 56.8795C245.836 57.6126 243.643 58 240.736 58V59C243.709 59 246.075 58.6074 247.793 57.7805L247.359 56.8795ZM240.736 58H215.896V59H240.736V58ZM219.316 51.26H237.316V50.26H219.316V51.26ZM237.316 51.26C238.841 51.26 240.078 50.9508 240.939 50.2473C241.82 49.528 242.226 48.4669 242.226 47.16H241.226C241.226 48.2531 240.896 48.992 240.307 49.4727C239.699 49.9692 238.73 50.26 237.316 50.26V51.26ZM242.226 47.16V29.52H241.226V47.16H242.226ZM242.226 29.52C242.226 28.2131 241.82 27.152 240.939 26.4327C240.078 25.7292 238.841 25.42 237.316 25.42V26.42C238.73 26.42 239.699 26.7108 240.307 27.2073C240.896 27.688 241.226 28.4269 241.226 29.52H242.226ZM237.316 25.42H219.316V26.42H237.316V25.42ZM219.316 25.42C217.819 25.42 216.603 25.73 215.756 26.4359C214.891 27.1563 214.496 28.2165 214.496 29.52H215.496C215.496 28.4235 215.82 27.6837 216.396 27.2041C216.989 26.71 217.933 26.42 219.316 26.42V25.42ZM214.496 29.52V47.16H215.496V29.52H214.496ZM214.496 47.16C214.496 48.4635 214.891 49.5237 215.756 50.2441C216.603 50.95 217.819 51.26 219.316 51.26V50.26C217.933 50.26 216.989 49.97 216.396 49.4759C215.82 48.9963 215.496 48.2565 215.496 47.16H214.496Z" fill="black" fill-opacity="0.9"/>
</svg>
