<svg width="28" height="28" viewBox="0 0 28 28" fill="none" xmlns="http://www.w3.org/2000/svg">
<path d="M26.2506 6.63497C25.298 7.99871 24.1096 9.18138 22.7412 10.1273L22.7412 10.1273C22.6546 12.5194 21.9563 14.8494 20.713 16.8949C19.4697 18.9403 17.7229 20.633 15.6392 21.8112C13.5556 22.9894 11.2048 23.6139 8.81109 23.6251C6.41742 23.6362 4.06085 23.0337 1.96634 21.8749L1.96705 21.8736C4.70213 21.8357 7.36554 20.9935 9.62514 19.452L9.62506 19.4521C7.20624 17.8035 5.36399 15.4393 4.35659 12.6909C3.34918 9.94247 3.22714 6.94772 4.00757 4.12646L4.00752 4.12649C5.1253 5.8479 6.60794 7.30244 8.35042 8.38708C10.0929 9.47172 12.0526 10.1599 14.0906 10.4029L14.0903 10.403C13.8757 9.3799 14.0344 8.31378 14.5377 7.39757C15.041 6.48137 15.8557 5.77561 16.8343 5.40803C17.8129 5.04045 18.8908 5.03533 19.8728 5.39359C20.8549 5.75186 21.6762 6.44984 22.1882 7.36123L22.1882 7.36171C23.5707 7.32045 24.9396 7.07557 26.2506 6.63497" stroke="black" stroke-opacity="0.84" stroke-width="2" stroke-linecap="round" stroke-linejoin="round"/>
</svg>
